{"glyphs":{"0":{"ha":907,"x_min":0,"x_max":0,"o":"m 453 -22 b 57 494 190 -22 57 167 b 453 1011 57 822 190 1011 b 850 494 717 1011 850 822 b 453 -22 850 167 718 -22 m 453 136 b 654 494 583 136 654 243 b 453 853 654 746 582 853 b 253 494 325 853 253 746 b 453 136 253 243 325 136 "},"1":{"ha":546,"x_min":0,"x_max":0,"o":"m 464 0 l 276 0 l 276 667 l 49 667 l 49 799 l 71 800 b 315 989 199 808 285 847 l 464 989 "},"2":{"ha":819,"x_min":0,"x_max":0,"o":"m 774 158 l 774 0 l 54 0 l 58 74 b 318 464 65 204 93 363 l 415 514 b 574 706 528 568 574 619 b 411 853 574 794 515 853 b 240 672 304 853 240 799 l 60 672 b 417 1011 58 879 176 1011 b 763 719 632 1011 763 888 b 501 382 763 563 675 468 l 410 333 b 264 158 317 283 271 243 "},"3":{"ha":853,"x_min":0,"x_max":0,"o":"m 643 528 b 811 283 740 488 811 404 b 440 -22 811 103 669 -22 b 53 328 181 -22 53 115 l 235 328 b 435 136 238 196 307 136 b 617 290 549 136 617 196 b 428 450 617 393 546 450 l 354 450 l 354 588 l 426 588 b 600 725 539 588 600 633 b 433 858 600 808 538 858 b 257 701 331 858 263 815 l 76 701 b 435 1011 81 896 203 1011 b 782 740 644 1011 782 910 b 643 528 782 643 725 568 "},"4":{"ha":874,"x_min":0,"x_max":0,"o":"m 840 228 l 708 228 l 708 0 l 521 0 l 521 228 l 40 228 l 40 406 l 503 989 l 708 989 l 708 386 l 840 386 m 207 386 l 525 386 l 525 788 "},"5":{"ha":839,"x_min":0,"x_max":0,"o":"m 453 650 b 792 321 681 650 792 496 b 422 -22 792 115 640 -22 b 57 282 222 -22 71 93 l 236 282 b 422 129 250 186 325 129 b 611 321 536 129 611 208 b 422 513 611 433 536 513 b 249 413 335 513 278 472 l 76 413 l 168 989 l 740 989 l 740 831 l 315 831 l 272 585 b 453 650 321 625 383 650 "},"6":{"ha":865,"x_min":0,"x_max":0,"o":"m 479 650 b 815 321 700 650 815 496 b 449 -22 815 115 665 -22 b 214 49 356 -22 274 4 b 57 481 96 138 57 293 b 451 1011 57 815 192 1011 b 801 736 640 1011 774 911 l 625 736 b 453 867 607 825 544 867 b 232 526 313 867 240 767 b 479 650 285 604 374 650 m 449 129 b 633 318 560 129 633 208 b 449 507 633 426 560 507 b 261 318 338 507 261 429 b 449 129 261 207 338 129 "},"7":{"ha":721,"x_min":0,"x_max":0,"o":"m 699 989 l 699 839 b 374 0 479 608 379 361 l 179 0 b 507 831 185 329 306 610 l 22 831 l 22 989 "},"8":{"ha":849,"x_min":0,"x_max":0,"o":"m 640 525 b 813 281 754 481 813 397 b 425 -22 813 99 664 -22 b 39 281 188 -22 39 99 b 210 525 39 397 97 481 b 79 738 126 568 79 642 b 425 1011 79 910 222 1011 b 771 738 628 1011 771 910 b 640 525 771 642 724 568 m 425 869 b 250 726 322 869 250 818 b 425 586 250 638 319 586 b 600 726 531 586 600 638 b 425 869 600 818 529 869 m 425 128 b 625 292 553 128 625 189 b 425 457 625 397 550 457 b 225 292 300 457 225 397 b 425 128 225 189 299 128 "},"9":{"ha":865,"x_min":0,"x_max":0,"o":"m 651 935 b 808 503 769 844 808 690 b 422 -28 808 174 679 -28 b 65 247 226 -28 92 72 l 240 247 b 421 117 258 158 322 117 b 633 457 560 117 626 222 b 386 333 581 379 492 333 b 50 661 167 333 50 488 b 418 1006 50 867 201 1006 b 651 935 511 1006 592 979 m 418 476 b 604 665 529 476 604 554 b 418 854 604 775 529 854 b 232 665 307 854 232 774 b 418 476 232 556 307 476 "},"\u0000":{"ha":0,"x_min":0,"x_max":0,"o":""},"\r":{"ha":300,"x_min":0,"x_max":0,"o":""}," ":{"ha":300,"x_min":0,"x_max":0,"o":""},"!":{"ha":310,"x_min":0,"x_max":0,"o":"m 61 735 l 61 989 l 249 989 l 249 735 l 203 301 l 104 301 m 53 199 l 257 199 l 257 0 l 53 0 "},"\"":{"ha":647,"x_min":0,"x_max":0,"o":"m 81 989 l 268 989 l 240 568 l 110 568 m 379 989 l 567 989 l 538 568 l 407 568 "},"#":{"ha":943,"x_min":0,"x_max":0,"o":"m 747 588 l 710 401 l 840 401 l 811 258 l 681 258 l 628 0 l 467 0 l 519 258 l 326 258 l 274 0 l 113 0 l 165 258 l 36 258 l 65 401 l 194 401 l 232 588 l 103 588 l 132 731 l 261 731 l 314 989 l 475 989 l 422 731 l 615 731 l 668 989 l 829 989 l 776 731 l 907 731 l 878 588 m 586 588 l 393 588 l 356 401 l 549 401 "},"$":{"ha":885,"x_min":0,"x_max":0,"o":"m 857 282 b 497 -21 857 97 721 -10 l 497 -161 l 397 -161 l 397 -19 b 33 326 169 -3 35 117 l 218 326 b 397 133 221 197 293 146 l 397 428 l 376 432 b 58 732 185 468 58 553 b 397 1011 58 889 178 1001 l 397 1150 l 497 1150 l 497 1008 b 828 694 724 986 821 864 l 646 694 b 497 856 640 782 601 839 l 497 581 l 529 575 b 857 282 763 529 857 439 m 250 738 b 397 603 250 667 286 631 l 397 858 b 250 738 299 851 250 806 m 497 131 b 663 272 604 139 663 188 b 497 407 663 343 619 378 l 497 131 "},"%":{"ha":1251,"x_min":0,"x_max":0,"o":"m 269 403 b 28 701 107 403 28 514 b 269 1001 28 890 107 1001 b 511 701 432 1001 511 890 b 269 403 511 514 432 403 m 826 989 l 953 989 l 425 0 l 299 0 m 269 514 b 374 701 338 514 374 567 b 269 890 374 838 338 890 b 165 701 203 890 165 838 b 269 514 165 567 203 514 m 982 -12 b 740 286 819 -12 740 99 b 982 586 740 475 819 586 b 1224 286 1143 586 1224 475 b 982 -12 1224 99 1143 -12 m 982 99 b 1086 286 1049 99 1086 151 b 982 475 1086 422 1049 475 b 876 286 914 475 876 422 b 982 99 876 151 914 99 "},"&":{"ha":963,"x_min":0,"x_max":0,"o":"m 743 0 l 671 82 b 375 -22 592 17 492 -22 b 36 267 160 -22 36 103 b 251 553 36 401 114 483 b 144 774 178 638 144 697 b 422 1011 144 904 246 1011 b 699 782 581 1011 699 924 b 494 519 699 678 626 588 l 667 328 b 700 486 688 378 699 432 l 861 486 b 778 206 857 385 828 288 l 963 0 m 428 871 b 321 774 367 871 321 832 b 406 619 321 732 347 683 l 408 617 b 536 774 493 664 536 713 b 428 871 536 829 490 871 m 390 128 b 572 193 464 128 524 153 l 340 451 b 219 281 265 410 219 361 b 390 128 219 201 281 128 "},"'":{"ha":350,"x_min":0,"x_max":0,"o":"m 81 989 l 268 989 l 240 568 l 110 568 "},"(":{"ha":403,"x_min":0,"x_max":0,"o":"m 233 -272 b 60 407 121 -78 60 136 b 233 1090 60 682 121 897 l 394 1090 b 240 407 283 881 240 675 b 394 -272 240 147 283 -57 l 233 -272 "},")":{"ha":403,"x_min":0,"x_max":0,"o":"m 8 -272 b 163 407 119 -57 163 147 b 8 1090 163 675 119 881 l 168 1090 b 343 407 282 897 343 682 b 168 -272 343 136 282 -78 l 8 -272 "},"*":{"ha":644,"x_min":0,"x_max":0,"o":"m 110 508 l 232 674 l 38 736 l 76 847 l 263 788 l 263 989 l 382 989 l 382 788 l 569 847 l 608 736 l 414 674 l 535 508 l 442 435 l 322 596 l 203 435 "},"+":{"ha":733,"x_min":0,"x_max":0,"o":"m 688 419 l 449 419 l 449 181 l 286 181 l 286 419 l 46 419 l 46 569 l 286 569 l 286 810 l 449 810 l 449 569 l 688 569 "},",":{"ha":310,"x_min":0,"x_max":0,"o":"m 257 199 l 257 -15 b 78 -218 257 -153 193 -214 l 53 -218 l 53 -118 l 76 -117 b 140 -24 121 -114 140 -83 l 140 0 l 53 0 l 53 199 "},"-":{"ha":506,"x_min":0,"x_max":0,"o":"m 46 465 l 458 465 l 458 315 l 46 315 "},".":{"ha":310,"x_min":0,"x_max":0,"o":"m 53 199 l 257 199 l 257 0 l 53 0 "},"/":{"ha":540,"x_min":0,"x_max":0,"o":"m 363 989 l 532 989 l 178 0 l 8 0 "},":":{"ha":310,"x_min":0,"x_max":0,"o":"m 53 682 l 257 682 l 257 483 l 53 483 m 53 199 l 257 199 l 257 0 l 53 0 "},";":{"ha":310,"x_min":0,"x_max":0,"o":"m 257 681 l 257 482 l 53 482 l 53 681 m 53 199 l 257 199 l 257 -15 b 78 -218 257 -153 193 -214 l 53 -218 l 53 -118 l 76 -117 b 140 -24 121 -114 140 -83 l 140 0 l 53 0 "},"<":{"ha":733,"x_min":0,"x_max":0,"o":"m 560 614 b 215 494 450 575 331 532 b 560 376 331 457 450 415 l 688 325 l 688 150 l 46 408 l 46 582 l 688 840 l 688 665 "},"=":{"ha":733,"x_min":0,"x_max":0,"o":"m 46 696 l 688 696 l 688 553 l 46 553 m 46 436 l 688 436 l 688 293 l 46 293 "},">":{"ha":733,"x_min":0,"x_max":0,"o":"m 688 582 l 688 408 l 46 150 l 46 325 l 174 376 b 518 494 283 415 403 457 b 174 614 403 532 283 575 l 46 665 l 46 840 "},"?":{"ha":738,"x_min":0,"x_max":0,"o":"m 271 301 b 301 471 271 394 278 425 b 408 583 324 517 365 550 b 518 735 464 625 518 668 b 372 861 518 811 475 861 b 206 683 265 861 211 815 l 29 683 b 375 1011 29 906 157 1011 b 706 749 574 1011 706 919 b 561 506 706 649 651 574 b 460 408 517 472 479 443 b 440 301 442 379 440 354 l 271 301 m 254 199 l 457 199 l 457 0 l 254 0 "},"@":{"ha":1282,"x_min":0,"x_max":0,"o":"m 644 1011 b 1243 483 996 1011 1243 792 b 972 111 1243 272 1149 111 b 785 232 876 111 807 156 b 593 114 749 153 678 114 b 343 425 449 114 343 219 b 593 733 343 622 451 733 b 760 646 669 733 724 704 l 760 717 l 917 717 l 917 344 b 989 246 917 276 942 246 b 1107 478 1068 246 1107 343 b 643 888 1107 714 939 888 b 176 421 360 888 176 696 b 653 -49 176 128 374 -49 b 928 1 754 -49 847 -32 l 928 -119 b 650 -168 846 -151 751 -168 b 39 421 282 -168 39 72 b 644 1011 39 756 278 1011 m 632 242 b 763 425 719 242 763 308 b 632 606 763 536 719 606 b 501 425 542 606 501 536 b 632 242 501 308 543 242 "},"A":{"ha":997,"x_min":0,"x_max":0,"o":"m 711 218 l 278 218 l 201 0 l 8 0 l 385 989 l 604 989 l 988 0 l 789 0 m 654 378 l 615 485 b 493 824 581 575 533 707 b 372 485 453 707 406 575 l 335 378 "},"B":{"ha":915,"x_min":0,"x_max":0,"o":"m 715 521 b 888 283 832 478 888 382 b 543 0 888 114 776 0 l 81 0 l 81 989 l 528 989 b 847 733 756 989 847 868 b 715 521 847 636 797 563 m 268 835 l 268 576 l 514 576 b 661 710 611 576 661 628 b 514 835 661 783 611 835 m 533 156 b 696 292 639 156 696 206 b 533 429 696 385 635 429 l 268 429 l 268 156 l 533 156 "},"C":{"ha":1007,"x_min":0,"x_max":0,"o":"m 518 -22 b 39 494 236 -22 39 175 b 518 1011 39 814 232 1011 b 967 649 738 1011 924 893 l 776 649 b 518 847 742 788 639 847 b 235 494 342 847 235 715 b 518 142 235 272 342 142 b 783 372 644 142 761 217 l 971 372 b 518 -22 943 111 744 -22 "},"D":{"ha":994,"x_min":0,"x_max":0,"o":"m 458 989 b 954 494 781 989 954 796 b 458 0 954 193 781 0 l 81 0 l 81 989 l 458 989 m 456 161 b 760 494 647 161 760 275 b 456 828 760 714 647 828 l 268 828 l 268 161 l 456 161 "},"E":{"ha":844,"x_min":0,"x_max":0,"o":"m 268 821 l 268 588 l 758 588 l 758 426 l 268 426 l 268 168 l 807 168 l 807 0 l 81 0 l 81 989 l 810 989 l 810 821 "},"F":{"ha":800,"x_min":0,"x_max":0,"o":"m 268 821 l 268 588 l 733 588 l 733 426 l 268 426 l 268 0 l 81 0 l 81 989 l 779 989 l 779 821 "},"G":{"ha":1063,"x_min":0,"x_max":0,"o":"m 996 533 l 996 0 l 860 0 l 833 131 b 511 -22 764 32 650 -22 b 39 494 226 -22 39 183 b 528 1011 39 806 226 1011 b 985 660 778 1011 951 874 l 792 660 b 529 847 764 775 665 847 b 235 494 347 847 235 713 b 536 142 235 276 350 142 b 813 382 682 142 803 238 l 554 382 l 554 533 "},"H":{"ha":996,"x_min":0,"x_max":0,"o":"m 915 989 l 915 0 l 728 0 l 728 422 l 268 422 l 268 0 l 81 0 l 81 989 l 268 989 l 268 592 l 728 592 l 728 989 "},"I":{"ha":350,"x_min":0,"x_max":0,"o":"m 81 989 l 268 989 l 268 0 l 81 0 "},"J":{"ha":763,"x_min":0,"x_max":0,"o":"m 363 -22 b 36 289 157 -22 36 99 l 36 353 l 215 353 l 215 289 b 361 139 215 190 272 139 b 508 289 451 139 508 190 l 508 989 l 694 989 l 694 289 b 363 -22 694 108 578 -22 "},"K":{"ha":972,"x_min":0,"x_max":0,"o":"m 557 586 l 964 0 l 740 0 l 424 461 l 268 310 l 268 0 l 81 0 l 81 989 l 268 989 l 268 522 l 731 989 l 964 989 "},"L":{"ha":761,"x_min":0,"x_max":0,"o":"m 739 168 l 739 0 l 81 0 l 81 989 l 268 989 l 268 168 "},"M":{"ha":1215,"x_min":0,"x_max":0,"o":"m 1133 989 l 1133 0 l 954 0 l 954 301 b 960 792 954 451 956 613 b 885 564 938 717 915 650 l 685 0 l 531 0 l 329 564 b 256 789 300 649 278 715 b 261 301 260 611 261 450 l 261 0 l 81 0 l 81 989 l 353 989 l 524 508 b 608 240 553 419 583 322 b 696 518 633 326 665 429 l 861 989 "},"N":{"ha":997,"x_min":0,"x_max":0,"o":"m 915 989 l 915 0 l 707 0 l 432 440 b 256 738 369 539 306 642 b 261 258 261 563 261 404 l 261 0 l 81 0 l 81 989 l 289 989 l 565 549 b 740 251 621 458 690 344 b 735 731 736 426 735 585 l 735 989 "},"O":{"ha":1067,"x_min":0,"x_max":0,"o":"m 533 -22 b 39 494 236 -22 39 183 b 533 1011 39 806 236 1011 b 1026 494 829 1011 1026 806 b 533 -22 1026 183 829 -22 m 533 143 b 832 494 714 143 832 276 b 533 846 832 713 714 846 b 235 494 353 846 235 713 b 533 143 235 276 353 143 "},"P":{"ha":904,"x_min":0,"x_max":0,"o":"m 515 989 b 865 667 743 989 865 858 b 515 346 865 476 743 346 l 268 346 l 268 0 l 81 0 l 81 989 l 515 989 m 507 507 b 676 667 617 507 676 564 b 507 828 676 769 617 828 l 268 828 l 268 507 l 507 507 "},"Q":{"ha":1067,"x_min":0,"x_max":0,"o":"m 1026 494 b 893 122 1026 340 978 213 l 1010 -4 l 913 -97 l 786 39 b 533 -22 715 0 629 -22 b 39 494 236 -22 39 183 b 533 1011 39 806 236 1011 b 1026 494 829 1011 1026 806 m 533 143 b 664 171 582 143 626 153 l 550 294 l 649 388 l 767 258 b 832 494 808 318 832 397 b 533 846 832 713 714 846 b 235 494 353 846 235 713 b 533 143 235 276 353 143 "},"R":{"ha":924,"x_min":0,"x_max":0,"o":"m 864 115 b 894 0 865 72 875 29 l 701 0 b 675 118 683 29 676 69 l 671 226 b 513 388 665 353 613 388 l 268 388 l 268 0 l 81 0 l 81 989 l 529 989 b 878 710 757 989 878 876 b 713 474 878 596 819 511 b 856 263 822 439 851 365 l 864 115 m 518 535 b 685 689 619 535 685 588 b 511 835 685 786 619 835 l 268 835 l 268 535 "},"S":{"ha":885,"x_min":0,"x_max":0,"o":"m 457 -22 b 33 326 193 -22 35 99 l 218 326 b 463 129 221 171 325 129 b 663 272 592 129 663 179 b 460 415 663 350 611 385 l 376 432 b 58 732 185 468 58 553 b 425 1011 58 896 188 1011 b 828 694 703 1011 821 881 l 646 694 b 428 860 639 800 585 860 b 250 738 308 860 250 813 b 443 592 250 658 296 622 l 529 575 b 857 282 763 529 857 439 b 457 -22 857 86 704 -22 "},"T":{"ha":867,"x_min":0,"x_max":0,"o":"m 844 821 l 528 821 l 528 0 l 339 0 l 339 821 l 22 821 l 22 989 l 844 989 "},"U":{"ha":961,"x_min":0,"x_max":0,"o":"m 481 -21 b 67 372 232 -21 67 115 l 67 989 l 254 989 l 254 371 b 481 142 254 215 339 142 b 707 371 622 142 707 215 l 707 989 l 894 989 l 894 372 b 481 -21 894 115 735 -21 "},"V":{"ha":953,"x_min":0,"x_max":0,"o":"m 944 989 l 590 0 l 371 0 l 8 989 l 208 989 l 388 478 b 482 169 419 381 453 275 b 575 478 510 275 543 381 l 750 989 "},"W":{"ha":1358,"x_min":0,"x_max":0,"o":"m 1350 989 l 1076 0 l 865 0 l 760 411 b 679 761 732 525 703 644 b 599 411 656 644 628 525 l 493 0 l 283 0 l 8 989 l 204 989 l 307 590 b 397 214 338 468 371 339 b 482 592 424 339 453 468 l 583 989 l 776 989 l 878 592 b 961 213 908 468 936 338 b 1051 590 989 338 1021 468 l 1156 989 "},"X":{"ha":929,"x_min":0,"x_max":0,"o":"m 921 0 l 703 0 l 594 160 b 463 361 549 226 506 293 b 331 160 419 293 376 226 l 221 0 l 8 0 l 357 504 l 29 989 l 246 989 l 344 842 b 467 651 388 778 428 714 b 590 842 507 714 547 778 l 690 989 l 901 989 l 575 508 "},"Y":{"ha":949,"x_min":0,"x_max":0,"o":"m 940 989 l 569 390 l 569 0 l 382 0 l 382 390 l 8 989 l 221 989 l 331 810 b 479 560 381 726 432 643 b 625 811 526 644 576 729 l 733 989 "},"Z":{"ha":871,"x_min":0,"x_max":0,"o":"m 836 168 l 836 0 l 35 0 l 35 153 l 407 610 b 588 824 467 682 526 753 b 301 821 492 822 396 821 l 54 821 l 54 989 l 828 989 l 828 838 l 453 379 b 272 165 393 307 333 236 b 558 168 368 167 464 168 "},"[":{"ha":481,"x_min":0,"x_max":0,"o":"m 81 1090 l 458 1090 l 458 943 l 249 943 l 249 -125 l 458 -125 l 458 -272 l 81 -272 "},"\\":{"ha":540,"x_min":0,"x_max":0,"o":"m 8 989 l 178 989 l 532 0 l 363 0 "},"]":{"ha":481,"x_min":0,"x_max":0,"o":"m 22 -125 l 232 -125 l 232 943 l 22 943 l 22 1090 l 399 1090 l 399 -272 l 22 -272 "},"^":{"ha":599,"x_min":0,"x_max":0,"o":"m 594 582 l 433 582 l 329 792 b 300 858 318 815 308 836 b 269 792 290 836 281 815 l 165 582 l 4 582 l 214 989 l 383 989 "},"_":{"ha":642,"x_min":0,"x_max":0,"o":"m -1 -103 l 643 -103 l 643 -236 l -1 -236 "},"`":{"ha":556,"x_min":0,"x_max":0,"o":"m 117 1010 l 318 1010 l 439 810 l 296 810 "},"a":{"ha":749,"x_min":0,"x_max":0,"o":"m 540 0 b 521 88 529 19 524 53 b 290 -17 474 21 396 -17 b 32 199 138 -17 32 60 b 307 422 32 318 104 403 l 415 432 b 517 514 482 440 517 461 b 386 603 517 569 488 603 b 238 489 286 603 244 576 l 65 489 b 388 733 75 640 164 733 b 686 518 601 733 686 647 l 686 136 b 715 0 686 85 696 28 m 332 108 b 517 283 425 108 517 158 l 517 349 b 435 319 499 332 472 324 l 340 308 b 211 206 243 297 211 263 b 332 108 211 146 251 108 "},"b":{"ha":828,"x_min":0,"x_max":0,"o":"m 468 733 b 789 358 665 733 789 586 b 468 -17 789 131 665 -17 b 239 103 364 -17 288 28 l 239 0 l 71 0 l 71 989 l 246 989 l 246 624 b 468 733 294 693 368 733 m 426 128 b 611 364 540 128 611 213 b 426 589 611 515 540 589 b 242 358 313 589 242 510 b 426 128 242 207 313 128 "},"c":{"ha":754,"x_min":0,"x_max":0,"o":"m 393 -17 b 39 358 181 -17 39 129 b 393 733 39 588 179 733 b 726 458 581 733 706 626 l 551 458 b 393 588 535 547 471 588 b 218 358 289 588 218 515 b 393 129 218 201 292 129 b 554 267 472 129 540 172 l 729 267 b 393 -17 710 92 576 -17 "},"d":{"ha":828,"x_min":0,"x_max":0,"o":"m 757 989 l 757 0 l 588 0 l 588 100 b 361 -17 539 28 464 -17 b 39 358 163 -17 39 131 b 361 733 39 586 163 733 b 582 624 460 733 533 693 l 582 989 m 401 128 b 586 358 515 128 586 207 b 401 589 586 510 515 589 b 218 353 289 589 218 504 b 401 128 218 201 289 128 "},"e":{"ha":789,"x_min":0,"x_max":0,"o":"m 747 304 l 211 304 b 397 119 224 176 296 119 b 561 222 481 119 535 158 l 729 222 b 396 -17 693 76 568 -17 b 39 358 185 -17 39 129 b 393 733 39 583 181 733 b 747 346 613 733 747 574 m 392 597 b 213 426 299 597 229 544 l 572 426 b 392 597 558 528 496 597 "},"f":{"ha":485,"x_min":0,"x_max":0,"o":"m 393 854 b 303 768 331 854 303 824 l 303 717 l 450 717 l 450 583 l 303 583 l 303 0 l 129 0 l 129 583 l 18 583 l 18 717 l 129 717 l 129 771 b 364 993 129 897 192 993 b 454 989 392 993 429 992 l 454 854 l 393 854 "},"g":{"ha":828,"x_min":0,"x_max":0,"o":"m 757 717 l 757 24 b 403 -289 757 -165 636 -289 b 74 -39 196 -289 85 -187 l 246 -39 b 406 -154 254 -115 310 -154 b 582 19 521 -154 582 -93 l 582 110 b 363 3 535 43 463 3 b 39 368 168 3 39 150 b 361 733 39 588 165 733 b 588 618 465 733 540 690 l 588 717 m 401 147 b 586 368 515 147 586 226 b 401 589 586 511 515 589 b 218 367 289 589 218 506 b 401 147 218 228 289 147 "},"h":{"ha":786,"x_min":0,"x_max":0,"o":"m 464 733 b 715 475 614 733 715 646 l 715 0 l 540 0 l 540 446 b 406 582 540 538 494 582 b 246 401 329 582 246 529 l 246 0 l 71 0 l 71 989 l 246 989 l 246 621 b 464 733 293 686 367 733 "},"i":{"ha":317,"x_min":0,"x_max":0,"o":"m 72 974 l 244 974 l 244 810 l 72 810 m 71 717 l 246 717 l 246 0 l 71 0 "},"j":{"ha":317,"x_min":0,"x_max":0,"o":"m 72 974 l 244 974 l 244 810 l 72 810 m 35 -276 b -32 -274 7 -276 -10 -275 l -32 -136 l 3 -136 b 71 -74 47 -136 71 -121 l 71 717 l 246 717 l 246 -93 b 35 -276 246 -225 172 -276 "},"k":{"ha":764,"x_min":0,"x_max":0,"o":"m 351 333 l 243 225 l 243 0 l 71 0 l 71 989 l 243 989 l 243 419 l 535 717 l 743 717 l 472 446 l 760 0 l 560 0 "},"l":{"ha":317,"x_min":0,"x_max":0,"o":"m 71 989 l 246 989 l 246 0 l 71 0 "},"m":{"ha":1210,"x_min":0,"x_max":0,"o":"m 889 733 b 1139 474 1049 733 1139 632 l 1139 0 l 964 0 l 964 446 b 840 582 964 538 924 582 b 692 394 764 582 692 529 l 692 0 l 518 0 l 518 446 b 393 582 518 538 476 582 b 246 394 319 582 246 529 l 246 0 l 71 0 l 71 717 l 240 717 l 240 614 b 444 733 283 683 350 733 b 667 600 554 733 631 682 b 889 733 714 676 789 733 "},"n":{"ha":786,"x_min":0,"x_max":0,"o":"m 464 733 b 715 475 614 733 715 646 l 715 0 l 540 0 l 540 446 b 406 582 540 538 494 582 b 246 401 329 582 246 529 l 246 0 l 71 0 l 71 717 l 240 717 l 240 614 b 464 733 286 682 363 733 "},"o":{"ha":807,"x_min":0,"x_max":0,"o":"m 404 -17 b 39 358 186 -17 39 131 b 404 733 39 586 186 733 b 768 358 622 733 768 586 b 404 -17 768 131 622 -17 m 404 128 b 590 358 517 128 590 207 b 404 589 590 510 517 589 b 218 358 290 589 218 510 b 404 128 218 207 290 128 "},"p":{"ha":828,"x_min":0,"x_max":0,"o":"m 468 733 b 789 358 665 733 789 586 b 468 -17 789 131 665 -17 b 246 93 368 -17 294 24 l 246 -272 l 71 -272 l 71 717 l 239 717 l 239 614 b 468 733 288 689 364 733 m 426 128 b 611 364 540 128 611 213 b 426 589 611 515 540 589 b 242 358 313 589 242 510 b 426 128 242 207 313 128 "},"q":{"ha":828,"x_min":0,"x_max":0,"o":"m 757 717 l 757 -272 l 582 -272 l 582 93 b 361 -17 533 24 460 -17 b 39 358 163 -17 39 131 b 361 733 39 586 163 733 b 588 617 464 733 539 689 l 588 717 m 401 128 b 586 358 515 128 586 207 b 401 589 586 510 515 589 b 218 353 289 589 218 504 b 401 128 218 201 289 128 "},"r":{"ha":529,"x_min":0,"x_max":0,"o":"m 454 728 b 497 725 469 728 482 728 l 497 564 l 453 564 b 246 364 324 564 246 500 l 246 0 l 71 0 l 71 717 l 240 717 l 240 589 b 454 728 275 669 343 728 "},"s":{"ha":693,"x_min":0,"x_max":0,"o":"m 353 -19 b 25 228 149 -19 36 54 l 196 228 b 356 106 206 138 251 106 b 497 192 457 106 497 138 b 357 286 497 243 465 268 l 275 300 b 40 517 121 326 40 394 b 338 733 40 651 146 733 b 654 490 558 733 649 638 l 489 490 b 338 608 485 582 428 608 b 213 525 253 608 213 576 b 332 438 213 472 254 451 l 422 424 b 671 206 594 393 671 329 b 353 -19 671 61 553 -19 "},"t":{"ha":476,"x_min":0,"x_max":0,"o":"m 303 583 l 303 196 b 385 133 303 149 326 133 l 444 133 l 444 0 b 353 -6 413 -3 381 -6 b 129 178 201 -6 129 46 l 129 583 l 18 583 l 18 717 l 129 717 l 129 925 l 303 925 l 303 717 l 444 717 l 444 583 "},"u":{"ha":786,"x_min":0,"x_max":0,"o":"m 715 717 l 715 0 l 546 0 l 546 104 b 321 -17 499 35 424 -17 b 71 242 172 -17 71 71 l 71 717 l 246 717 l 246 271 b 381 135 246 179 290 135 b 540 315 457 135 540 188 l 540 717 "},"v":{"ha":742,"x_min":0,"x_max":0,"o":"m 738 717 l 471 0 l 269 0 l 4 717 l 192 717 l 261 524 b 374 158 299 406 338 278 b 486 525 410 279 449 406 l 556 717 "},"w":{"ha":1147,"x_min":0,"x_max":0,"o":"m 1143 717 l 907 0 l 724 0 l 633 294 b 572 508 613 365 592 438 b 513 294 553 438 533 365 l 424 0 l 240 0 l 4 717 l 192 717 l 272 449 b 343 200 297 367 321 282 b 411 450 364 283 386 367 l 490 717 l 657 717 l 736 450 b 804 200 761 367 783 283 b 875 449 826 282 850 367 l 956 717 "},"x":{"ha":736,"x_min":0,"x_max":0,"o":"m 732 0 l 532 0 l 506 38 b 367 240 458 106 413 174 b 226 38 321 174 274 104 l 200 0 l 4 0 l 271 367 l 18 717 l 218 717 l 256 664 b 371 494 296 607 333 551 b 485 664 407 550 447 608 l 522 717 l 718 717 l 465 368 "},"y":{"ha":725,"x_min":0,"x_max":0,"o":"m 722 717 l 446 -58 b 138 -274 389 -218 311 -274 b 61 -269 104 -274 83 -272 l 61 -132 l 128 -132 b 246 -17 214 -132 246 -76 b 213 128 246 26 229 81 l 4 717 l 193 717 l 251 538 b 365 138 290 413 329 278 b 481 536 403 279 442 410 l 539 717 "},"z":{"ha":693,"x_min":0,"x_max":0,"o":"m 651 136 l 651 0 l 43 0 l 43 115 l 326 472 b 417 582 356 508 386 546 b 269 581 367 581 318 581 l 50 581 l 50 717 l 635 717 l 635 601 l 351 244 b 261 135 322 208 292 171 b 408 136 311 136 360 136 "},"{":{"ha":504,"x_min":0,"x_max":0,"o":"m 393 -272 b 160 -56 251 -272 160 -210 l 160 247 b 46 335 160 299 135 332 l 46 482 b 160 569 135 485 160 518 l 160 872 b 393 1090 160 1026 251 1090 l 483 1090 l 483 944 l 411 944 b 325 858 338 944 325 910 l 325 535 b 192 410 325 461 290 414 l 192 407 b 325 283 290 403 325 357 l 325 -42 b 411 -128 325 -93 338 -128 l 483 -128 l 483 -272 l 393 -272 "},"|":{"ha":310,"x_min":0,"x_max":0,"o":"m 81 1107 l 229 1107 l 229 -278 l 81 -278 "},"}":{"ha":504,"x_min":0,"x_max":0,"o":"m 22 -128 l 94 -128 b 181 -42 167 -128 181 -93 l 181 283 b 313 407 181 357 214 403 l 313 410 b 181 535 214 414 181 461 l 181 858 b 94 944 181 910 167 944 l 22 944 l 22 1090 l 113 1090 b 344 872 254 1090 344 1026 l 344 569 b 458 482 344 518 369 485 l 458 335 b 344 247 369 332 344 299 l 344 -56 b 113 -272 344 -210 254 -272 l 22 -272 "},"~":{"ha":733,"x_min":0,"x_max":0,"o":"m 497 382 b 349 431 442 382 392 407 b 247 467 314 449 279 467 b 174 386 213 467 183 450 l 46 386 b 238 613 51 524 118 613 b 389 564 292 613 343 588 b 486 528 425 544 458 528 b 560 608 522 528 550 544 l 688 608 b 497 382 682 471 617 382 "},"Á":{"ha":997,"x_min":0,"x_max":0,"o":"m 565 1049 l 422 1049 l 543 1249 l 744 1249 m 711 218 l 278 218 l 201 0 l 8 0 l 385 989 l 604 989 l 988 0 l 789 0 m 654 378 l 615 485 b 493 824 581 575 533 707 b 372 485 453 707 406 575 l 335 378 "},"Ă":{"ha":997,"x_min":0,"x_max":0,"o":"m 493 1042 b 260 1249 367 1042 275 1121 l 392 1249 b 493 1154 399 1188 436 1154 b 594 1249 549 1154 588 1188 l 726 1249 b 493 1042 708 1121 619 1042 m 711 218 l 278 218 l 201 0 l 8 0 l 385 989 l 604 989 l 988 0 l 789 0 m 654 378 l 615 485 b 493 824 581 575 533 707 b 372 485 453 707 406 575 l 335 378 "},"Â":{"ha":997,"x_min":0,"x_max":0,"o":"m 386 1049 l 226 1049 l 388 1249 l 597 1249 l 760 1049 l 600 1049 l 493 1160 m 711 218 l 278 218 l 201 0 l 8 0 l 385 989 l 604 989 l 988 0 l 789 0 m 654 378 l 615 485 b 493 824 581 575 533 707 b 372 485 453 707 406 575 l 335 378 "},"Ä":{"ha":997,"x_min":0,"x_max":0,"o":"m 443 1049 l 271 1049 l 271 1213 l 443 1213 m 715 1049 l 543 1049 l 543 1213 l 715 1213 m 711 218 l 278 218 l 201 0 l 8 0 l 385 989 l 604 989 l 988 0 l 789 0 m 654 378 l 615 485 b 493 824 581 575 533 707 b 372 485 453 707 406 575 l 335 378 "},"À":{"ha":997,"x_min":0,"x_max":0,"o":"m 418 1049 l 239 1249 l 440 1249 l 561 1049 m 711 218 l 278 218 l 201 0 l 8 0 l 385 989 l 604 989 l 988 0 l 789 0 m 654 378 l 615 485 b 493 824 581 575 533 707 b 372 485 453 707 406 575 l 335 378 "},"Ā":{"ha":997,"x_min":0,"x_max":0,"o":"m 714 1049 l 272 1049 l 272 1171 l 714 1171 m 711 218 l 278 218 l 201 0 l 8 0 l 385 989 l 604 989 l 988 0 l 789 0 m 654 378 l 615 485 b 493 824 581 575 533 707 b 372 485 453 707 406 575 l 335 378 "},"Ą":{"ha":997,"x_min":0,"x_max":0,"o":"m 850 -129 b 919 -182 850 -171 889 -182 b 989 -171 946 -182 968 -176 l 989 -275 b 890 -289 968 -282 931 -289 b 711 -156 786 -289 711 -240 b 854 0 711 -100 757 -35 l 789 0 l 711 218 l 278 218 l 201 0 l 8 0 l 385 989 l 604 989 l 988 0 l 989 0 b 850 -129 879 -51 850 -96 m 654 378 l 615 485 b 493 824 581 575 533 707 b 372 485 453 707 406 575 l 335 378 "},"Å":{"ha":997,"x_min":0,"x_max":0,"o":"m 711 218 l 278 218 l 201 0 l 8 0 l 361 928 b 294 1072 321 963 294 1013 b 493 1263 294 1183 382 1263 b 692 1072 604 1263 692 1183 b 626 931 692 1014 667 964 l 988 0 l 789 0 m 493 1157 b 408 1072 446 1157 408 1121 b 493 989 408 1025 446 989 b 578 1072 540 989 578 1025 b 493 1157 578 1121 540 1157 m 654 378 l 615 485 b 493 824 581 575 533 707 b 372 485 453 707 406 575 l 335 378 "},"Ǻ":{"ha":997,"x_min":0,"x_max":0,"o":"m 711 218 l 278 218 l 201 0 l 8 0 l 361 928 b 294 1072 321 963 294 1013 b 442 1257 294 1165 357 1236 l 543 1424 l 744 1424 l 583 1243 b 692 1072 647 1214 692 1151 b 626 931 692 1014 667 964 l 988 0 l 789 0 m 493 1157 b 408 1072 446 1157 408 1121 b 493 989 408 1025 446 989 b 579 1072 540 989 579 1025 b 493 1157 579 1121 540 1157 m 654 378 l 615 485 b 493 824 581 575 533 707 b 372 485 453 707 406 575 l 335 378 "},"Ã":{"ha":997,"x_min":0,"x_max":0,"o":"m 399 1107 b 360 1049 374 1107 361 1090 l 243 1049 b 382 1232 243 1176 297 1232 b 503 1200 428 1232 467 1215 b 588 1174 532 1186 560 1174 b 626 1232 613 1174 625 1190 l 743 1232 b 604 1049 743 1104 689 1049 b 481 1082 563 1049 519 1065 b 399 1107 451 1094 422 1107 m 711 218 l 278 218 l 201 0 l 8 0 l 385 989 l 604 989 l 988 0 l 789 0 m 654 378 l 615 485 b 493 824 581 575 533 707 b 372 485 453 707 406 575 l 335 378 "},"Æ":{"ha":1457,"x_min":0,"x_max":0,"o":"m 929 821 l 929 588 l 1371 588 l 1371 426 l 929 426 l 929 168 l 1418 168 l 1418 0 l 744 0 l 744 243 l 328 243 l 206 0 l 8 0 l 513 989 l 1422 989 l 1422 821 m 744 403 l 744 829 l 624 829 l 408 403 "},"Ǽ":{"ha":1457,"x_min":0,"x_max":0,"o":"m 1039 1049 l 896 1049 l 1017 1249 l 1218 1249 m 929 821 l 929 588 l 1371 588 l 1371 426 l 929 426 l 929 168 l 1418 168 l 1418 0 l 744 0 l 744 243 l 328 243 l 206 0 l 8 0 l 513 989 l 1422 989 l 1422 821 m 744 403 l 744 829 l 624 829 l 408 403 "},"Ć":{"ha":1007,"x_min":0,"x_max":0,"o":"m 569 1271 l 771 1271 l 592 1071 l 449 1071 m 518 -22 b 39 494 236 -22 39 175 b 518 1011 39 814 232 1011 b 967 649 738 1011 924 893 l 776 649 b 518 847 742 788 639 847 b 235 494 342 847 235 715 b 518 142 235 272 342 142 b 783 372 644 142 761 217 l 971 372 b 518 -22 943 111 744 -22 "},"Č":{"ha":1007,"x_min":0,"x_max":0,"o":"m 414 1071 l 251 1271 l 411 1271 l 518 1160 l 625 1271 l 785 1271 l 624 1071 m 971 372 b 518 -22 943 111 744 -22 b 39 494 236 -22 39 175 b 518 1011 39 814 232 1011 b 967 649 738 1011 924 893 l 776 649 b 518 847 742 788 639 847 b 235 494 342 847 235 715 b 518 142 235 272 342 142 b 783 372 644 142 761 217 "},"Ç":{"ha":1007,"x_min":0,"x_max":0,"o":"m 971 372 b 572 -19 946 132 775 0 l 518 -82 l 536 -82 b 674 -192 624 -82 674 -131 b 468 -325 674 -268 615 -325 b 376 -317 442 -325 403 -321 l 376 -243 b 456 -249 406 -247 425 -249 b 542 -190 511 -249 542 -226 b 463 -137 542 -158 518 -137 b 426 -139 453 -137 443 -137 l 426 -86 l 478 -21 b 39 494 218 -3 39 190 b 518 1011 39 814 232 1011 b 967 649 738 1011 924 893 l 776 649 b 518 847 742 788 639 847 b 235 494 342 847 235 715 b 518 142 235 272 342 142 b 783 372 644 142 761 217 l 971 372 "},"Ĉ":{"ha":1007,"x_min":0,"x_max":0,"o":"m 411 1071 l 251 1071 l 413 1271 l 622 1271 l 785 1071 l 625 1071 l 518 1182 m 971 372 b 518 -22 943 111 744 -22 b 39 494 236 -22 39 175 b 518 1011 39 814 232 1011 b 967 649 738 1011 924 893 l 776 649 b 518 847 742 788 639 847 b 235 494 342 847 235 715 b 518 142 235 272 342 142 b 783 372 644 142 761 217 "},"Ċ":{"ha":1007,"x_min":0,"x_max":0,"o":"m 431 1235 l 603 1235 l 603 1071 l 431 1071 m 518 -22 b 39 494 236 -22 39 175 b 518 1011 39 814 232 1011 b 967 649 738 1011 924 893 l 776 649 b 518 847 742 788 639 847 b 235 494 342 847 235 715 b 518 142 235 272 342 142 b 783 372 644 142 761 217 l 971 372 b 518 -22 943 111 744 -22 "},"Ð":{"ha":1024,"x_min":0,"x_max":0,"o":"m 486 989 b 983 494 810 989 983 796 b 486 0 983 193 810 0 l 110 0 l 110 453 l 0 453 l 0 561 l 110 561 l 110 989 l 486 989 m 485 161 b 788 494 676 161 788 275 b 485 828 788 714 676 828 l 297 828 l 297 561 l 535 561 l 535 453 l 297 453 l 297 161 l 485 161 "},"Ď":{"ha":994,"x_min":0,"x_max":0,"o":"m 376 1049 l 214 1249 l 374 1249 l 481 1138 l 588 1249 l 747 1249 l 586 1049 m 458 989 b 954 494 781 989 954 796 b 458 0 954 193 781 0 l 81 0 l 81 989 l 458 989 m 456 161 b 760 494 647 161 760 275 b 456 828 760 714 647 828 l 268 828 l 268 161 l 456 161 "},"Đ":{"ha":1024,"x_min":0,"x_max":0,"o":"m 486 989 b 983 494 810 989 983 796 b 486 0 983 193 810 0 l 110 0 l 110 453 l 0 453 l 0 561 l 110 561 l 110 989 l 486 989 m 485 161 b 788 494 676 161 788 275 b 485 828 788 714 676 828 l 297 828 l 297 561 l 535 561 l 535 453 l 297 453 l 297 161 l 485 161 "},"É":{"ha":844,"x_min":0,"x_max":0,"o":"m 518 1049 l 375 1049 l 496 1249 l 697 1249 m 268 821 l 268 588 l 758 588 l 758 426 l 268 426 l 268 168 l 807 168 l 807 0 l 81 0 l 81 989 l 810 989 l 810 821 "},"Ĕ":{"ha":844,"x_min":0,"x_max":0,"o":"m 446 1042 b 213 1249 319 1042 228 1121 l 344 1249 b 446 1154 351 1188 389 1154 b 547 1249 501 1154 540 1188 l 679 1249 b 446 1042 661 1121 572 1042 m 268 821 l 268 588 l 758 588 l 758 426 l 268 426 l 268 168 l 807 168 l 807 0 l 81 0 l 81 989 l 810 989 l 810 821 "},"Ě":{"ha":844,"x_min":0,"x_max":0,"o":"m 340 1049 l 178 1249 l 338 1249 l 444 1138 l 551 1249 l 711 1249 l 550 1049 m 268 821 l 268 588 l 758 588 l 758 426 l 268 426 l 268 168 l 807 168 l 807 0 l 81 0 l 81 989 l 810 989 l 810 821 "},"Ê":{"ha":844,"x_min":0,"x_max":0,"o":"m 338 1049 l 178 1049 l 339 1249 l 549 1249 l 711 1049 l 551 1049 l 444 1160 m 268 821 l 268 588 l 758 588 l 758 426 l 268 426 l 268 168 l 807 168 l 807 0 l 81 0 l 81 989 l 810 989 l 810 821 "},"Ë":{"ha":844,"x_min":0,"x_max":0,"o":"m 394 1049 l 222 1049 l 222 1213 l 394 1213 m 667 1049 l 494 1049 l 494 1213 l 667 1213 m 268 821 l 268 588 l 758 588 l 758 426 l 268 426 l 268 168 l 807 168 l 807 0 l 81 0 l 81 989 l 810 989 l 810 821 "},"Ė":{"ha":844,"x_min":0,"x_max":0,"o":"m 531 1049 l 358 1049 l 358 1213 l 531 1213 m 268 821 l 268 588 l 758 588 l 758 426 l 268 426 l 268 168 l 807 168 l 807 0 l 81 0 l 81 989 l 810 989 l 810 821 "},"È":{"ha":844,"x_min":0,"x_max":0,"o":"m 371 1049 l 192 1249 l 393 1249 l 514 1049 m 268 821 l 268 588 l 758 588 l 758 426 l 268 426 l 268 168 l 807 168 l 807 0 l 81 0 l 81 989 l 810 989 l 810 821 "},"Ē":{"ha":844,"x_min":0,"x_max":0,"o":"m 667 1049 l 225 1049 l 225 1171 l 667 1171 m 268 821 l 268 588 l 758 588 l 758 426 l 268 426 l 268 168 l 807 168 l 807 0 l 81 0 l 81 989 l 810 989 l 810 821 "},"Ę":{"ha":844,"x_min":0,"x_max":0,"o":"m 268 821 l 268 588 l 758 588 l 758 426 l 268 426 l 268 168 l 807 168 l 807 0 b 668 -129 697 -51 668 -96 b 738 -182 668 -171 707 -182 b 807 -171 764 -182 786 -176 l 807 -275 b 708 -289 786 -282 749 -289 b 529 -156 604 -289 529 -240 b 672 0 529 -100 575 -35 l 81 0 l 81 989 l 810 989 l 810 821 "},"Ǵ":{"ha":1063,"x_min":0,"x_max":0,"o":"m 600 1071 l 457 1071 l 578 1271 l 779 1271 m 996 533 l 996 0 l 860 0 l 833 131 b 511 -22 764 32 650 -22 b 39 494 226 -22 39 183 b 528 1011 39 806 226 1011 b 985 660 778 1011 951 874 l 792 660 b 529 847 764 775 665 847 b 235 494 347 847 235 713 b 536 142 235 276 350 142 b 813 382 682 142 803 238 l 554 382 l 554 533 "},"Ğ":{"ha":1063,"x_min":0,"x_max":0,"o":"m 528 1064 b 294 1271 401 1064 310 1143 l 426 1271 b 528 1176 433 1210 471 1176 b 629 1271 583 1176 622 1210 l 761 1271 b 528 1064 743 1143 654 1064 m 996 533 l 996 0 l 860 0 l 833 131 b 511 -22 764 32 650 -22 b 39 494 226 -22 39 183 b 528 1011 39 806 226 1011 b 985 660 778 1011 951 874 l 792 660 b 529 847 764 775 665 847 b 235 494 347 847 235 713 b 536 142 235 276 350 142 b 813 382 682 142 803 238 l 554 382 l 554 533 "},"Ĝ":{"ha":1063,"x_min":0,"x_max":0,"o":"m 421 1071 l 261 1071 l 422 1271 l 632 1271 l 794 1071 l 635 1071 l 528 1182 m 996 533 l 996 0 l 860 0 l 833 131 b 511 -22 764 32 650 -22 b 39 494 226 -22 39 183 b 528 1011 39 806 226 1011 b 985 660 778 1011 951 874 l 792 660 b 529 847 764 775 665 847 b 235 494 347 847 235 713 b 536 142 235 276 350 142 b 813 382 682 142 803 238 l 554 382 l 554 533 "},"Ģ":{"ha":1063,"x_min":0,"x_max":0,"o":"m 996 533 l 996 0 l 860 0 l 833 131 b 511 -22 764 32 650 -22 b 39 494 226 -22 39 183 b 528 1011 39 806 226 1011 b 985 660 778 1011 951 874 l 792 660 b 529 847 764 775 665 847 b 235 494 347 847 235 713 b 536 142 235 276 350 142 b 813 382 682 142 803 238 l 554 382 l 554 533 m 447 -81 l 617 -81 l 617 -235 b 475 -357 617 -318 572 -354 l 447 -358 l 447 -290 l 472 -289 b 525 -239 507 -287 525 -271 l 525 -218 l 447 -218 "},"Ġ":{"ha":1063,"x_min":0,"x_max":0,"o":"m 613 1071 l 440 1071 l 440 1235 l 613 1235 m 996 533 l 996 0 l 860 0 l 833 131 b 511 -22 764 32 650 -22 b 39 494 226 -22 39 183 b 528 1011 39 806 226 1011 b 985 660 778 1011 951 874 l 792 660 b 529 847 764 775 665 847 b 235 494 347 847 235 713 b 536 142 235 276 350 142 b 813 382 682 142 803 238 l 554 382 l 554 533 "},"Ħ":{"ha":1056,"x_min":0,"x_max":0,"o":"m 1056 735 l 944 735 l 944 0 l 757 0 l 757 422 l 299 422 l 299 0 l 111 0 l 111 735 l 0 735 l 0 843 l 111 843 l 111 989 l 299 989 l 299 843 l 757 843 l 757 989 l 944 989 l 944 843 l 1056 843 m 757 735 l 299 735 l 299 592 l 757 592 "},"Ĥ":{"ha":996,"x_min":0,"x_max":0,"o":"m 392 1049 l 232 1049 l 393 1249 l 603 1249 l 765 1049 l 606 1049 l 499 1160 m 915 989 l 915 0 l 728 0 l 728 422 l 268 422 l 268 0 l 81 0 l 81 989 l 268 989 l 268 592 l 728 592 l 728 989 "},"Ĳ":{"ha":1113,"x_min":0,"x_max":0,"o":"m 81 989 l 268 989 l 268 0 l 81 0 m 713 -22 b 386 289 507 -22 386 99 l 386 353 l 565 353 l 565 289 b 711 139 565 190 622 139 b 858 289 801 139 858 190 l 858 989 l 1044 989 l 1044 289 b 713 -22 1044 108 928 -22 "},"Í":{"ha":350,"x_min":0,"x_max":0,"o":"m 111 1049 l 185 1249 l 369 1249 l 240 1049 m 81 989 l 268 989 l 268 0 l 81 0 "},"Ĭ":{"ha":350,"x_min":0,"x_max":0,"o":"m 175 1042 b -37 1240 56 1042 -28 1124 l 89 1240 b 175 1154 93 1189 122 1154 b 261 1240 228 1154 257 1189 l 388 1240 b 175 1042 375 1124 294 1042 m 81 989 l 268 989 l 268 0 l 81 0 "},"Î":{"ha":350,"x_min":0,"x_max":0,"o":"m 89 1049 l -60 1049 l 74 1249 l 272 1249 l 407 1049 l 257 1049 l 174 1160 m 81 989 l 268 989 l 268 0 l 81 0 "},"Ï":{"ha":350,"x_min":0,"x_max":0,"o":"m -25 1213 l 135 1213 l 135 1049 l -25 1049 m 214 1213 l 374 1213 l 374 1049 l 214 1049 m 81 989 l 268 989 l 268 0 l 81 0 "},"İ":{"ha":350,"x_min":0,"x_max":0,"o":"m 89 1213 l 260 1213 l 260 1049 l 89 1049 m 81 989 l 268 989 l 268 0 l 81 0 "},"Ì":{"ha":350,"x_min":0,"x_max":0,"o":"m -19 1249 l 165 1249 l 239 1049 l 110 1049 m 81 989 l 268 989 l 268 0 l 81 0 "},"Ī":{"ha":350,"x_min":0,"x_max":0,"o":"m -7 1171 l 357 1171 l 357 1049 l -7 1049 m 81 989 l 268 989 l 268 0 l 81 0 "},"Į":{"ha":350,"x_min":0,"x_max":0,"o":"m 229 -183 b 281 -174 247 -183 265 -181 l 281 -276 b 204 -289 264 -282 236 -289 b 50 -158 113 -289 50 -243 b 156 0 50 -103 86 -35 l 81 0 l 81 989 l 268 989 l 268 0 l 269 0 b 169 -126 183 -51 169 -97 b 229 -183 169 -174 204 -183 "},"Ĩ":{"ha":350,"x_min":0,"x_max":0,"o":"m -26 1049 b 85 1231 -26 1176 18 1231 b 183 1197 122 1231 154 1214 b 250 1174 207 1185 229 1174 b 282 1231 271 1174 282 1189 l 376 1231 b 265 1049 376 1101 332 1049 b 165 1082 231 1049 194 1067 b 100 1106 139 1094 118 1106 b 68 1049 79 1106 68 1089 l -26 1049 m 81 989 l 268 989 l 268 0 l 81 0 "},"Ĵ":{"ha":763,"x_min":0,"x_max":0,"o":"m 517 1049 l 368 1049 l 501 1249 l 700 1249 l 835 1049 l 685 1049 l 601 1160 m 508 989 l 694 989 l 694 289 b 363 -22 694 108 578 -22 b 36 289 157 -22 36 99 l 36 353 l 215 353 l 215 289 b 361 139 215 190 272 139 b 508 289 451 139 508 190 "},"Ķ":{"ha":972,"x_min":0,"x_max":0,"o":"m 557 586 l 964 0 l 740 0 l 424 461 l 268 310 l 268 0 l 81 0 l 81 989 l 268 989 l 268 522 l 731 989 l 964 989 m 415 -60 l 585 -60 l 585 -214 b 443 -336 585 -297 540 -333 l 415 -337 l 415 -269 l 440 -268 b 493 -218 475 -267 493 -250 l 493 -197 l 415 -197 "},"Ĺ":{"ha":761,"x_min":0,"x_max":0,"o":"m 247 1049 l 104 1049 l 225 1249 l 426 1249 m 739 168 l 739 0 l 81 0 l 81 989 l 268 989 l 268 168 "},"Ľ":{"ha":761,"x_min":0,"x_max":0,"o":"m 739 168 l 739 0 l 81 0 l 81 989 l 268 989 l 268 168 m 482 758 l 363 758 l 404 989 l 583 989 "},"Ļ":{"ha":761,"x_min":0,"x_max":0,"o":"m 739 168 l 739 0 l 81 0 l 81 989 l 268 989 l 268 168 m 328 -60 l 497 -60 l 497 -214 b 356 -336 497 -297 453 -333 l 328 -337 l 328 -269 l 353 -268 b 406 -218 388 -267 406 -250 l 406 -197 l 328 -197 "},"Ŀ":{"ha":761,"x_min":0,"x_max":0,"o":"m 739 168 l 739 0 l 81 0 l 81 989 l 268 989 l 268 168 m 658 418 l 454 418 l 454 618 l 658 618 "},"Ł":{"ha":790,"x_min":0,"x_max":0,"o":"m 768 168 l 768 0 l 110 0 l 110 442 l 0 394 l 0 514 l 110 561 l 110 989 l 297 989 l 297 642 l 549 749 l 549 628 l 297 521 l 297 168 "},"Ń":{"ha":997,"x_min":0,"x_max":0,"o":"m 571 1049 l 428 1049 l 549 1249 l 750 1249 m 915 989 l 915 0 l 707 0 l 432 440 b 256 738 369 539 306 642 b 261 258 261 563 261 404 l 261 0 l 81 0 l 81 989 l 289 989 l 565 549 b 740 251 621 458 690 344 b 735 731 736 426 735 585 l 735 989 "},"Ň":{"ha":997,"x_min":0,"x_max":0,"o":"m 394 1049 l 232 1249 l 392 1249 l 499 1138 l 606 1249 l 765 1249 l 604 1049 m 915 989 l 915 0 l 707 0 l 432 440 b 256 738 369 539 306 642 b 261 258 261 563 261 404 l 261 0 l 81 0 l 81 989 l 289 989 l 565 549 b 740 251 621 458 690 344 b 735 731 736 426 735 585 l 735 989 "},"Ņ":{"ha":997,"x_min":0,"x_max":0,"o":"m 915 989 l 915 0 l 707 0 l 432 440 b 256 738 369 539 306 642 b 261 258 261 563 261 404 l 261 0 l 81 0 l 81 989 l 289 989 l 565 549 b 740 251 621 458 690 344 b 735 731 736 426 735 585 l 735 989 m 415 -60 l 585 -60 l 585 -214 b 443 -336 585 -297 540 -333 l 415 -337 l 415 -269 l 440 -268 b 493 -218 475 -267 493 -250 l 493 -197 l 415 -197 "},"Ŋ":{"ha":997,"x_min":0,"x_max":0,"o":"m 915 989 l 915 -12 b 633 -278 915 -171 836 -278 b 543 -272 606 -278 572 -275 l 543 -135 b 604 -139 563 -137 582 -139 b 740 -8 697 -139 740 -96 l 740 4 l 440 457 b 256 757 376 553 306 664 b 261 258 261 575 261 417 l 261 0 l 81 0 l 81 989 l 289 989 l 575 557 b 740 290 625 481 690 376 b 735 731 736 450 735 594 l 735 989 "},"Ñ":{"ha":997,"x_min":0,"x_max":0,"o":"m 403 1107 b 364 1049 378 1107 365 1090 l 247 1049 b 386 1232 247 1176 301 1232 b 507 1200 432 1232 471 1215 b 592 1174 536 1186 564 1174 b 631 1232 617 1174 629 1190 l 747 1232 b 608 1049 747 1104 693 1049 b 485 1082 567 1049 524 1065 b 403 1107 456 1094 426 1107 m 915 989 l 915 0 l 707 0 l 432 440 b 256 738 369 539 306 642 b 261 258 261 563 261 404 l 261 0 l 81 0 l 81 989 l 289 989 l 565 549 b 740 251 621 458 690 344 b 735 731 736 426 735 585 l 735 989 "},"Ó":{"ha":1067,"x_min":0,"x_max":0,"o":"m 583 1271 l 785 1271 l 606 1071 l 463 1071 m 533 -22 b 39 494 236 -22 39 183 b 533 1011 39 806 236 1011 b 1026 494 829 1011 1026 806 b 533 -22 1026 183 829 -22 m 533 143 b 832 494 714 143 832 276 b 533 846 832 713 714 846 b 235 494 353 846 235 713 b 533 143 235 276 353 143 "},"Ŏ":{"ha":1067,"x_min":0,"x_max":0,"o":"m 533 1064 b 300 1271 407 1064 315 1143 l 432 1271 b 533 1176 439 1210 476 1176 b 635 1271 589 1176 628 1210 l 767 1271 b 533 1064 749 1143 660 1064 m 533 -22 b 39 494 236 -22 39 183 b 533 1011 39 806 236 1011 b 1026 494 829 1011 1026 806 b 533 -22 1026 183 829 -22 m 533 143 b 832 494 714 143 832 276 b 533 846 832 713 714 846 b 235 494 353 846 235 713 b 533 143 235 276 353 143 "},"Ô":{"ha":1067,"x_min":0,"x_max":0,"o":"m 425 1071 l 265 1071 l 426 1271 l 636 1271 l 799 1071 l 639 1071 l 532 1182 m 533 1011 b 1026 494 829 1011 1026 806 b 533 -22 1026 183 829 -22 b 39 494 236 -22 39 183 b 533 1011 39 806 236 1011 m 533 143 b 832 494 714 143 832 276 b 533 846 832 713 714 846 b 235 494 353 846 235 713 b 533 143 235 276 353 143 "},"Ö":{"ha":1067,"x_min":0,"x_max":0,"o":"m 310 1235 l 482 1235 l 482 1071 l 310 1071 m 582 1235 l 754 1235 l 754 1071 l 582 1071 m 533 -22 b 39 494 236 -22 39 183 b 533 1011 39 806 236 1011 b 1026 494 829 1011 1026 806 b 533 -22 1026 183 829 -22 m 533 143 b 832 494 714 143 832 276 b 533 846 832 713 714 846 b 235 494 353 846 235 713 b 533 143 235 276 353 143 "},"Ò":{"ha":1067,"x_min":0,"x_max":0,"o":"m 279 1271 l 481 1271 l 601 1071 l 458 1071 m 533 -22 b 39 494 236 -22 39 183 b 533 1011 39 806 236 1011 b 1026 494 829 1011 1026 806 b 533 -22 1026 183 829 -22 m 533 143 b 832 494 714 143 832 276 b 533 846 832 713 714 846 b 235 494 353 846 235 713 b 533 143 235 276 353 143 "},"Ő":{"ha":1067,"x_min":0,"x_max":0,"o":"m 444 1271 l 644 1271 l 460 1071 l 322 1071 m 722 1271 l 922 1271 l 738 1071 l 600 1071 m 533 -22 b 39 494 236 -22 39 183 b 533 1011 39 806 236 1011 b 1026 494 829 1011 1026 806 b 533 -22 1026 183 829 -22 m 533 143 b 832 494 714 143 832 276 b 533 846 832 713 714 846 b 235 494 353 846 235 713 b 533 143 235 276 353 143 "},"Ō":{"ha":1067,"x_min":0,"x_max":0,"o":"m 313 1193 l 754 1193 l 754 1071 l 313 1071 m 533 -22 b 39 494 236 -22 39 183 b 533 1011 39 806 236 1011 b 1026 494 829 1011 1026 806 b 533 -22 1026 183 829 -22 m 533 143 b 832 494 714 143 832 276 b 533 846 832 713 714 846 b 235 494 353 846 235 713 b 533 143 235 276 353 143 "},"Ø":{"ha":1067,"x_min":0,"x_max":0,"o":"m 917 840 b 1026 494 988 751 1026 633 b 533 -22 1026 183 829 -22 b 232 69 415 -22 313 10 l 113 -67 l 26 10 l 149 149 b 39 494 79 236 39 354 b 533 1011 39 806 236 1011 b 833 921 651 1011 753 979 l 953 1056 l 1039 978 m 235 494 b 278 294 235 415 250 349 l 714 786 b 533 846 667 825 604 846 b 235 494 353 846 235 713 m 832 494 b 789 696 832 574 817 640 l 351 203 b 533 143 400 164 461 143 b 832 494 714 143 832 276 "},"Ǿ":{"ha":1067,"x_min":0,"x_max":0,"o":"m 606 1071 l 463 1071 l 583 1271 l 785 1271 m 917 840 b 1026 494 988 751 1026 633 b 533 -22 1026 183 829 -22 b 232 69 415 -22 313 10 l 113 -67 l 26 10 l 149 149 b 39 494 79 236 39 354 b 533 1011 39 806 236 1011 b 833 921 651 1011 753 979 l 953 1056 l 1039 978 m 235 494 b 278 294 235 415 250 349 l 714 786 b 533 846 667 825 604 846 b 235 494 353 846 235 713 m 832 494 b 789 696 832 574 817 640 l 351 203 b 533 143 400 164 461 143 b 832 494 714 143 832 276 "},"Õ":{"ha":1067,"x_min":0,"x_max":0,"o":"m 282 1071 b 421 1254 282 1199 336 1254 b 542 1222 467 1254 506 1238 b 626 1196 571 1208 599 1196 b 665 1254 651 1196 664 1213 l 782 1254 b 643 1071 782 1126 728 1071 b 519 1104 601 1071 558 1088 b 438 1129 490 1117 461 1129 b 399 1071 413 1129 400 1113 l 282 1071 m 533 -22 b 39 494 236 -22 39 183 b 533 1011 39 806 236 1011 b 1026 494 829 1011 1026 806 b 533 -22 1026 183 829 -22 m 533 143 b 832 494 714 143 832 276 b 533 846 832 713 714 846 b 235 494 353 846 235 713 b 533 143 235 276 353 143 "},"Œ":{"ha":1594,"x_min":0,"x_max":0,"o":"m 1019 821 l 1019 586 l 1510 586 l 1510 426 l 1019 426 l 1019 167 l 1557 167 l 1557 0 l 832 0 l 832 108 b 515 -22 758 25 653 -22 b 39 494 235 -22 39 183 b 515 1011 39 806 235 1011 b 832 881 653 1011 758 964 l 832 989 l 1560 989 l 1560 821 m 533 143 b 832 494 714 143 832 276 b 533 846 832 713 714 846 b 235 494 353 846 235 713 b 533 143 235 276 353 143 "},"Þ":{"ha":904,"x_min":0,"x_max":0,"o":"m 515 817 b 865 494 743 817 865 686 b 515 172 865 303 743 172 l 268 172 l 268 0 l 81 0 l 81 989 l 268 989 l 268 817 l 515 817 m 507 335 b 676 494 617 335 676 392 b 507 654 676 597 617 654 l 268 654 l 268 335 l 507 335 "},"Ŕ":{"ha":924,"x_min":0,"x_max":0,"o":"m 531 1049 l 388 1049 l 508 1249 l 710 1249 m 864 115 b 894 0 865 72 875 29 l 701 0 b 675 118 683 29 676 69 l 671 226 b 513 388 665 353 613 388 l 268 388 l 268 0 l 81 0 l 81 989 l 529 989 b 878 710 757 989 878 876 b 713 474 878 596 819 511 b 856 263 822 439 851 365 l 864 115 m 518 535 b 685 689 619 535 685 588 b 511 835 685 786 619 835 l 268 835 l 268 535 "},"Ř":{"ha":924,"x_min":0,"x_max":0,"o":"m 353 1049 l 190 1249 l 350 1249 l 457 1138 l 564 1249 l 724 1249 l 563 1049 m 864 115 b 894 0 865 72 875 29 l 701 0 b 675 118 683 29 676 69 l 671 226 b 513 388 665 353 613 388 l 268 388 l 268 0 l 81 0 l 81 989 l 529 989 b 878 710 757 989 878 876 b 713 474 878 596 819 511 b 856 263 822 439 851 365 l 864 115 m 518 535 b 685 689 619 535 685 588 b 511 835 685 786 619 835 l 268 835 l 268 535 "},"Ŗ":{"ha":924,"x_min":0,"x_max":0,"o":"m 864 115 b 894 0 865 72 875 29 l 701 0 b 675 118 683 29 676 69 l 671 226 b 513 388 665 353 613 388 l 268 388 l 268 0 l 81 0 l 81 989 l 529 989 b 878 710 757 989 878 876 b 713 474 878 596 819 511 b 856 263 822 439 851 365 l 864 115 m 518 535 b 685 689 619 535 685 588 b 511 835 685 786 619 835 l 268 835 l 268 535 m 407 -60 l 576 -60 l 576 -214 b 435 -336 576 -297 532 -333 l 407 -337 l 407 -269 l 432 -268 b 485 -218 467 -267 485 -250 l 485 -197 l 407 -197 "},"Ś":{"ha":885,"x_min":0,"x_max":0,"o":"m 476 1271 l 678 1271 l 499 1071 l 356 1071 m 457 -22 b 33 326 193 -22 35 99 l 218 326 b 463 129 221 171 325 129 b 663 272 592 129 663 179 b 460 415 663 350 611 385 l 376 432 b 58 732 185 468 58 553 b 425 1011 58 896 188 1011 b 828 694 703 1011 821 881 l 646 694 b 428 860 639 800 585 860 b 250 738 308 860 250 813 b 443 592 250 658 296 622 l 529 575 b 857 282 763 529 857 439 b 457 -22 857 86 704 -22 "},"Š":{"ha":885,"x_min":0,"x_max":0,"o":"m 321 1071 l 158 1271 l 318 1271 l 425 1160 l 532 1271 l 692 1271 l 531 1071 m 529 575 b 857 282 763 529 857 439 b 457 -22 857 86 704 -22 b 33 326 193 -22 35 99 l 218 326 b 463 129 221 171 325 129 b 663 272 592 129 663 179 b 460 415 663 350 611 385 l 376 432 b 58 732 185 468 58 553 b 425 1011 58 896 188 1011 b 828 694 703 1011 821 881 l 646 694 b 428 860 639 800 585 860 b 250 738 308 860 250 813 b 443 592 250 658 296 622 l 529 575 "},"Ş":{"ha":885,"x_min":0,"x_max":0,"o":"m 857 282 b 518 -19 857 103 729 -3 l 464 -82 l 482 -82 b 619 -192 569 -82 619 -131 b 414 -325 619 -268 561 -325 b 322 -317 388 -325 349 -321 l 322 -243 b 401 -249 351 -247 371 -249 b 488 -190 457 -249 488 -226 b 408 -137 488 -158 464 -137 b 372 -139 399 -137 389 -137 l 372 -86 l 422 -21 b 33 326 179 -11 35 108 l 218 326 b 463 129 221 171 325 129 b 663 272 592 129 663 179 b 460 415 663 350 611 385 l 376 432 b 58 732 185 468 58 553 b 425 1011 58 896 188 1011 b 828 694 703 1011 821 881 l 646 694 b 428 860 639 800 585 860 b 250 738 308 860 250 813 b 443 592 250 658 296 622 l 529 575 b 857 282 763 529 857 439 "},"Ŝ":{"ha":885,"x_min":0,"x_max":0,"o":"m 318 1071 l 158 1071 l 319 1271 l 529 1271 l 692 1071 l 532 1071 l 425 1182 m 529 575 b 857 282 763 529 857 439 b 457 -22 857 86 704 -22 b 33 326 193 -22 35 99 l 218 326 b 463 129 221 171 325 129 b 663 272 592 129 663 179 b 460 415 663 350 611 385 l 376 432 b 58 732 185 468 58 553 b 425 1011 58 896 188 1011 b 828 694 703 1011 821 881 l 646 694 b 428 860 639 800 585 860 b 250 738 308 860 250 813 b 443 592 250 658 296 622 l 529 575 "},"Ș":{"ha":885,"x_min":0,"x_max":0,"o":"m 529 575 b 857 282 763 529 857 439 b 457 -22 857 86 704 -22 b 33 326 193 -22 35 99 l 218 326 b 463 129 221 171 325 129 b 663 272 592 129 663 179 b 460 415 663 350 611 385 l 376 432 b 58 732 185 468 58 553 b 425 1011 58 896 188 1011 b 828 694 703 1011 821 881 l 646 694 b 428 860 639 800 585 860 b 250 738 308 860 250 813 b 443 592 250 658 296 622 l 529 575 m 381 -82 l 550 -82 l 550 -236 b 408 -358 550 -319 506 -356 l 381 -360 l 381 -292 l 406 -290 b 458 -240 440 -289 458 -272 l 458 -219 l 381 -219 "},"ẞ":{"ha":960,"x_min":0,"x_max":0,"o":"m 661 585 b 932 297 833 554 932 447 b 546 -11 932 111 797 -11 b 385 4 494 -11 442 -6 l 385 157 b 533 144 433 149 483 144 b 740 296 671 144 740 197 b 531 443 740 392 664 443 b 444 440 500 443 471 442 l 444 569 l 674 847 b 513 854 621 853 572 854 b 253 621 307 854 253 757 l 253 0 l 67 0 l 67 617 b 511 1010 67 874 224 1010 b 885 986 642 1010 772 1000 l 885 847 l 661 585 "},"Ə":{"ha":1024,"x_min":0,"x_max":0,"o":"m 501 1011 b 983 493 799 1011 983 806 b 510 -22 983 189 799 -22 b 39 500 210 -22 39 206 l 39 549 l 789 549 b 501 847 774 744 672 847 b 253 676 375 847 289 781 l 64 676 b 501 1011 110 874 267 1011 m 507 140 b 788 418 664 140 767 238 l 232 418 b 507 140 246 257 340 140 "},"Ŧ":{"ha":867,"x_min":0,"x_max":0,"o":"m 528 821 l 528 540 l 708 540 l 708 432 l 528 432 l 528 0 l 339 0 l 339 432 l 158 432 l 158 540 l 339 540 l 339 821 l 22 821 l 22 989 l 844 989 l 844 821 "},"Ť":{"ha":867,"x_min":0,"x_max":0,"o":"m 329 1049 l 167 1249 l 326 1249 l 433 1138 l 540 1249 l 700 1249 l 539 1049 m 844 821 l 528 821 l 528 0 l 339 0 l 339 821 l 22 821 l 22 989 l 844 989 "},"Ţ":{"ha":867,"x_min":0,"x_max":0,"o":"m 486 0 l 433 -60 l 451 -60 b 589 -169 539 -60 589 -108 b 383 -303 589 -246 531 -303 b 292 -294 357 -303 318 -299 l 292 -221 b 371 -226 321 -225 340 -226 b 457 -168 426 -226 457 -204 b 378 -115 457 -136 433 -115 b 342 -117 368 -115 358 -115 l 342 -64 l 392 0 l 339 0 l 339 821 l 22 821 l 22 989 l 844 989 l 844 821 l 528 821 l 528 0 "},"Ț":{"ha":867,"x_min":0,"x_max":0,"o":"m 844 821 l 528 821 l 528 0 l 339 0 l 339 821 l 22 821 l 22 989 l 844 989 m 350 -60 l 519 -60 l 519 -214 b 378 -336 519 -297 475 -333 l 350 -337 l 350 -269 l 375 -268 b 428 -218 410 -267 428 -250 l 428 -197 l 350 -197 "},"Ú":{"ha":961,"x_min":0,"x_max":0,"o":"m 531 1249 l 732 1249 l 553 1049 l 410 1049 m 481 -21 b 67 372 232 -21 67 115 l 67 989 l 254 989 l 254 371 b 481 142 254 215 339 142 b 707 371 622 142 707 215 l 707 989 l 894 989 l 894 372 b 481 -21 894 115 735 -21 "},"Ŭ":{"ha":961,"x_min":0,"x_max":0,"o":"m 481 1042 b 247 1249 354 1042 263 1121 l 379 1249 b 481 1154 386 1188 424 1154 b 582 1249 536 1154 575 1188 l 714 1249 b 481 1042 696 1121 607 1042 m 481 -21 b 67 372 232 -21 67 115 l 67 989 l 254 989 l 254 371 b 481 142 254 215 339 142 b 707 371 622 142 707 215 l 707 989 l 894 989 l 894 372 b 481 -21 894 115 735 -21 "},"Û":{"ha":961,"x_min":0,"x_max":0,"o":"m 374 1049 l 214 1049 l 375 1249 l 585 1249 l 747 1049 l 588 1049 l 481 1160 m 894 989 l 894 372 b 481 -21 894 115 735 -21 b 67 372 232 -21 67 115 l 67 989 l 254 989 l 254 371 b 481 142 254 215 339 142 b 707 371 622 142 707 215 l 707 989 "},"Ü":{"ha":961,"x_min":0,"x_max":0,"o":"m 257 1213 l 429 1213 l 429 1049 l 257 1049 m 529 1213 l 701 1213 l 701 1049 l 529 1049 m 481 -21 b 67 372 232 -21 67 115 l 67 989 l 254 989 l 254 371 b 481 142 254 215 339 142 b 707 371 622 142 707 215 l 707 989 l 894 989 l 894 372 b 481 -21 894 115 735 -21 "},"Ù":{"ha":961,"x_min":0,"x_max":0,"o":"m 226 1249 l 428 1249 l 549 1049 l 406 1049 m 481 -21 b 67 372 232 -21 67 115 l 67 989 l 254 989 l 254 371 b 481 142 254 215 339 142 b 707 371 622 142 707 215 l 707 989 l 894 989 l 894 372 b 481 -21 894 115 735 -21 "},"Ű":{"ha":961,"x_min":0,"x_max":0,"o":"m 392 1249 l 592 1249 l 407 1049 l 269 1049 m 669 1249 l 869 1249 l 685 1049 l 547 1049 m 481 -21 b 67 372 232 -21 67 115 l 67 989 l 254 989 l 254 371 b 481 142 254 215 339 142 b 707 371 622 142 707 215 l 707 989 l 894 989 l 894 372 b 481 -21 894 115 735 -21 "},"Ū":{"ha":961,"x_min":0,"x_max":0,"o":"m 260 1171 l 701 1171 l 701 1049 l 260 1049 m 481 -21 b 67 372 232 -21 67 115 l 67 989 l 254 989 l 254 371 b 481 142 254 215 339 142 b 707 371 622 142 707 215 l 707 989 l 894 989 l 894 372 b 481 -21 894 115 735 -21 "},"Ų":{"ha":961,"x_min":0,"x_max":0,"o":"m 894 989 l 894 372 b 638 0 894 174 799 47 l 640 0 b 501 -129 531 -51 501 -96 b 571 -182 501 -171 540 -182 b 640 -171 597 -182 619 -176 l 640 -275 b 542 -289 619 -282 582 -289 b 363 -156 438 -289 363 -240 b 460 -21 363 -110 394 -57 b 67 372 222 -12 67 122 l 67 989 l 254 989 l 254 371 b 481 142 254 215 339 142 b 707 371 622 142 707 215 l 707 989 "},"Ů":{"ha":961,"x_min":0,"x_max":0,"o":"m 481 883 b 282 1072 369 883 282 963 b 481 1263 282 1183 369 1263 b 679 1072 592 1263 679 1183 b 481 883 679 963 592 883 m 481 989 b 565 1072 528 989 565 1025 b 481 1157 565 1121 528 1157 b 394 1072 433 1157 394 1121 b 481 989 394 1025 433 989 m 481 -21 b 67 372 232 -21 67 115 l 67 989 l 254 989 l 254 371 b 481 142 254 215 339 142 b 707 371 622 142 707 215 l 707 989 l 894 989 l 894 372 b 481 -21 894 115 735 -21 "},"Ũ":{"ha":961,"x_min":0,"x_max":0,"o":"m 229 1049 b 368 1232 229 1176 283 1232 b 489 1200 414 1232 453 1215 b 574 1174 518 1186 546 1174 b 613 1232 599 1174 611 1190 l 729 1232 b 590 1049 729 1104 675 1049 b 467 1082 549 1049 506 1065 b 385 1107 438 1094 408 1107 b 346 1049 360 1107 347 1090 l 229 1049 m 481 -21 b 67 372 232 -21 67 115 l 67 989 l 254 989 l 254 371 b 481 142 254 215 339 142 b 707 371 622 142 707 215 l 707 989 l 894 989 l 894 372 b 481 -21 894 115 735 -21 "},"Ẃ":{"ha":1358,"x_min":0,"x_max":0,"o":"m 753 1049 l 610 1049 l 731 1249 l 932 1249 m 1350 989 l 1076 0 l 865 0 l 760 411 b 679 761 732 525 703 644 b 599 411 656 644 628 525 l 493 0 l 283 0 l 8 989 l 204 989 l 307 590 b 397 214 338 468 371 339 b 482 592 424 339 453 468 l 583 989 l 776 989 l 878 592 b 961 213 908 468 936 338 b 1051 590 989 338 1021 468 l 1156 989 "},"Ŵ":{"ha":1358,"x_min":0,"x_max":0,"o":"m 572 1049 l 413 1049 l 574 1249 l 783 1249 l 946 1049 l 786 1049 l 679 1160 m 1350 989 l 1076 0 l 865 0 l 760 411 b 679 761 732 525 703 644 b 599 411 656 644 628 525 l 493 0 l 283 0 l 8 989 l 204 989 l 307 590 b 397 214 338 468 371 339 b 482 592 424 339 453 468 l 583 989 l 776 989 l 878 592 b 961 213 908 468 936 338 b 1051 590 989 338 1021 468 l 1156 989 "},"Ẅ":{"ha":1358,"x_min":0,"x_max":0,"o":"m 629 1049 l 457 1049 l 457 1213 l 629 1213 m 901 1049 l 729 1049 l 729 1213 l 901 1213 m 1350 989 l 1076 0 l 865 0 l 760 411 b 679 761 732 525 703 644 b 599 411 656 644 628 525 l 493 0 l 283 0 l 8 989 l 204 989 l 307 590 b 397 214 338 468 371 339 b 482 592 424 339 453 468 l 583 989 l 776 989 l 878 592 b 961 213 908 468 936 338 b 1051 590 989 338 1021 468 l 1156 989 "},"Ẁ":{"ha":1358,"x_min":0,"x_max":0,"o":"m 606 1049 l 426 1249 l 628 1249 l 749 1049 m 1350 989 l 1076 0 l 865 0 l 760 411 b 679 761 732 525 703 644 b 599 411 656 644 628 525 l 493 0 l 283 0 l 8 989 l 204 989 l 307 590 b 397 214 338 468 371 339 b 482 592 424 339 453 468 l 583 989 l 776 989 l 878 592 b 961 213 908 468 936 338 b 1051 590 989 338 1021 468 l 1156 989 "},"Ý":{"ha":949,"x_min":0,"x_max":0,"o":"m 547 1049 l 404 1049 l 525 1249 l 726 1249 m 940 989 l 569 390 l 569 0 l 382 0 l 382 390 l 8 989 l 221 989 l 331 810 b 479 560 381 726 432 643 b 625 811 526 644 576 729 l 733 989 "},"Ŷ":{"ha":949,"x_min":0,"x_max":0,"o":"m 367 1049 l 207 1049 l 368 1249 l 578 1249 l 740 1049 l 581 1049 l 474 1160 m 940 989 l 569 390 l 569 0 l 382 0 l 382 390 l 8 989 l 221 989 l 331 810 b 479 560 381 726 432 643 b 625 811 526 644 576 729 l 733 989 "},"Ÿ":{"ha":949,"x_min":0,"x_max":0,"o":"m 424 1049 l 251 1049 l 251 1213 l 424 1213 m 696 1049 l 524 1049 l 524 1213 l 696 1213 m 940 989 l 569 390 l 569 0 l 382 0 l 382 390 l 8 989 l 221 989 l 331 810 b 479 560 381 726 432 643 b 625 811 526 644 576 729 l 733 989 "},"Ỳ":{"ha":949,"x_min":0,"x_max":0,"o":"m 400 1049 l 221 1249 l 422 1249 l 543 1049 m 940 989 l 569 390 l 569 0 l 382 0 l 382 390 l 8 989 l 221 989 l 331 810 b 479 560 381 726 432 643 b 625 811 526 644 576 729 l 733 989 "},"Ź":{"ha":871,"x_min":0,"x_max":0,"o":"m 513 1049 l 369 1049 l 490 1249 l 692 1249 m 836 168 l 836 0 l 35 0 l 35 153 l 407 610 b 588 824 467 682 526 753 b 301 821 492 822 396 821 l 54 821 l 54 989 l 828 989 l 828 838 l 453 379 b 272 165 393 307 333 236 b 558 168 368 167 464 168 "},"Ž":{"ha":871,"x_min":0,"x_max":0,"o":"m 335 1049 l 172 1249 l 332 1249 l 439 1138 l 546 1249 l 706 1249 l 544 1049 m 836 168 l 836 0 l 35 0 l 35 153 l 407 610 b 588 824 467 682 526 753 b 301 821 492 822 396 821 l 54 821 l 54 989 l 828 989 l 828 838 l 453 379 b 272 165 393 307 333 236 b 558 168 368 167 464 168 "},"Ż":{"ha":871,"x_min":0,"x_max":0,"o":"m 524 1049 l 351 1049 l 351 1213 l 524 1213 m 836 168 l 836 0 l 35 0 l 35 153 l 407 610 b 588 824 467 682 526 753 b 301 821 492 822 396 821 l 54 821 l 54 989 l 828 989 l 828 838 l 453 379 b 272 165 393 307 333 236 b 558 168 368 167 464 168 "},"á":{"ha":749,"x_min":0,"x_max":0,"o":"m 464 810 l 321 810 l 442 1010 l 643 1010 m 540 0 b 521 88 529 19 524 53 b 290 -17 474 21 396 -17 b 32 199 138 -17 32 60 b 307 422 32 318 104 403 l 415 432 b 517 514 482 440 517 461 b 386 603 517 569 488 603 b 238 489 286 603 244 576 l 65 489 b 388 733 75 640 164 733 b 686 518 601 733 686 647 l 686 136 b 715 0 686 85 696 28 m 332 108 b 517 283 425 108 517 158 l 517 349 b 435 319 499 332 472 324 l 340 308 b 211 206 243 297 211 263 b 332 108 211 146 251 108 "},"ă":{"ha":749,"x_min":0,"x_max":0,"o":"m 388 803 b 154 1010 261 803 169 881 l 286 1010 b 388 915 293 947 331 915 b 489 1010 443 915 482 947 l 621 1010 b 388 803 603 881 514 803 m 540 0 b 521 88 529 19 524 53 b 290 -17 474 21 396 -17 b 32 199 138 -17 32 60 b 307 422 32 318 104 403 l 415 432 b 517 514 482 440 517 461 b 386 603 517 569 488 603 b 238 489 286 603 244 576 l 65 489 b 388 733 75 640 164 733 b 686 518 601 733 686 647 l 686 136 b 715 0 686 85 696 28 m 332 108 b 517 283 425 108 517 158 l 517 349 b 435 319 499 332 472 324 l 340 308 b 211 206 243 297 211 263 b 332 108 211 146 251 108 "},"â":{"ha":749,"x_min":0,"x_max":0,"o":"m 279 810 l 119 810 l 281 1010 l 490 1010 l 653 810 l 493 810 l 386 919 m 540 0 b 521 88 529 19 524 53 b 290 -17 474 21 396 -17 b 32 199 138 -17 32 60 b 307 422 32 318 104 403 l 415 432 b 517 514 482 440 517 461 b 386 603 517 569 488 603 b 238 489 286 603 244 576 l 65 489 b 388 733 75 640 164 733 b 686 518 601 733 686 647 l 686 136 b 715 0 686 85 696 28 m 332 108 b 517 283 425 108 517 158 l 517 349 b 435 319 499 332 472 324 l 340 308 b 211 206 243 297 211 263 b 332 108 211 146 251 108 "},"ä":{"ha":749,"x_min":0,"x_max":0,"o":"m 336 810 l 164 810 l 164 974 l 336 974 m 608 810 l 436 810 l 436 974 l 608 974 m 540 0 b 521 88 529 19 524 53 b 290 -17 474 21 396 -17 b 32 199 138 -17 32 60 b 307 422 32 318 104 403 l 415 432 b 517 514 482 440 517 461 b 386 603 517 569 488 603 b 238 489 286 603 244 576 l 65 489 b 388 733 75 640 164 733 b 686 518 601 733 686 647 l 686 136 b 715 0 686 85 696 28 m 332 108 b 517 283 425 108 517 158 l 517 349 b 435 319 499 332 472 324 l 340 308 b 211 206 243 297 211 263 b 332 108 211 146 251 108 "},"à":{"ha":749,"x_min":0,"x_max":0,"o":"m 318 810 l 139 1010 l 340 1010 l 461 810 m 540 0 b 521 88 529 19 524 53 b 290 -17 474 21 396 -17 b 32 199 138 -17 32 60 b 307 422 32 318 104 403 l 415 432 b 517 514 482 440 517 461 b 386 603 517 569 488 603 b 238 489 286 603 244 576 l 65 489 b 388 733 75 640 164 733 b 686 518 601 733 686 647 l 686 136 b 715 0 686 85 696 28 m 332 108 b 517 283 425 108 517 158 l 517 349 b 435 319 499 332 472 324 l 340 308 b 211 206 243 297 211 263 b 332 108 211 146 251 108 "},"ā":{"ha":749,"x_min":0,"x_max":0,"o":"m 608 810 l 167 810 l 167 932 l 608 932 m 540 0 b 521 88 529 19 524 53 b 290 -17 474 21 396 -17 b 32 199 138 -17 32 60 b 307 422 32 318 104 403 l 415 432 b 517 514 482 440 517 461 b 386 603 517 569 488 603 b 238 489 286 603 244 576 l 65 489 b 388 733 75 640 164 733 b 686 518 601 733 686 647 l 686 136 b 715 0 686 85 696 28 m 332 108 b 517 283 425 108 517 158 l 517 349 b 435 319 499 332 472 324 l 340 308 b 211 206 243 297 211 263 b 332 108 211 146 251 108 "},"ą":{"ha":749,"x_min":0,"x_max":0,"o":"m 578 -129 b 647 -182 578 -171 617 -182 b 715 -171 674 -182 696 -176 l 715 -275 b 618 -289 694 -282 658 -289 b 439 -156 514 -289 439 -240 b 551 -7 439 -106 475 -47 b 521 88 531 21 524 56 b 290 -17 474 21 396 -17 b 32 199 138 -17 32 60 b 307 422 32 318 104 403 l 415 432 b 517 514 482 440 517 461 b 386 603 517 569 488 603 b 238 489 286 603 244 576 l 65 489 b 388 733 75 640 164 733 b 686 518 601 733 686 647 l 686 136 b 715 0 686 85 696 28 b 578 -129 607 -51 578 -96 m 332 108 b 517 283 425 108 517 158 l 517 349 b 435 319 499 332 472 324 l 340 308 b 211 206 243 297 211 263 b 332 108 211 146 251 108 "},"å":{"ha":749,"x_min":0,"x_max":0,"o":"m 388 803 b 189 993 276 803 189 882 b 388 1182 189 1103 276 1182 b 586 993 499 1182 586 1103 b 388 803 586 882 499 803 m 388 1076 b 303 993 340 1076 303 1040 b 388 908 303 944 340 908 b 472 993 435 908 472 944 b 388 1076 472 1040 435 1076 m 540 0 b 521 88 529 19 524 53 b 290 -17 474 21 396 -17 b 32 199 138 -17 32 60 b 307 422 32 318 104 403 l 415 432 b 517 514 482 440 517 461 b 386 603 517 569 488 603 b 238 489 286 603 244 576 l 65 489 b 388 733 75 640 164 733 b 686 518 601 733 686 647 l 686 136 b 715 0 686 85 696 28 m 332 108 b 517 283 425 108 517 158 l 517 349 b 435 319 499 332 472 324 l 340 308 b 211 206 243 297 211 263 b 332 108 211 146 251 108 "},"ǻ":{"ha":749,"x_min":0,"x_max":0,"o":"m 464 1254 l 321 1254 l 442 1454 l 643 1454 m 388 803 b 189 993 276 803 189 882 b 388 1182 189 1103 276 1182 b 586 993 499 1182 586 1103 b 388 803 586 882 499 803 m 388 1076 b 303 993 340 1076 303 1040 b 388 908 303 944 340 908 b 472 993 435 908 472 944 b 388 1076 472 1040 435 1076 m 540 0 b 521 88 529 19 524 53 b 290 -17 474 21 396 -17 b 32 199 138 -17 32 60 b 307 422 32 318 104 403 l 415 432 b 517 514 482 440 517 461 b 386 603 517 569 488 603 b 238 489 286 603 244 576 l 65 489 b 388 733 75 640 164 733 b 686 518 601 733 686 647 l 686 136 b 715 0 686 85 696 28 m 332 108 b 517 283 425 108 517 158 l 517 349 b 435 319 499 332 472 324 l 340 308 b 211 206 243 297 211 263 b 332 108 211 146 251 108 "},"ã":{"ha":749,"x_min":0,"x_max":0,"o":"m 292 868 b 253 810 267 868 254 851 l 136 810 b 275 993 136 938 190 993 b 396 960 321 993 360 976 b 481 935 425 947 453 935 b 519 993 506 935 518 950 l 636 993 b 497 810 636 865 582 810 b 374 843 456 810 413 826 b 292 868 344 856 315 868 m 540 0 b 521 88 529 19 524 53 b 290 -17 474 21 396 -17 b 32 199 138 -17 32 60 b 307 422 32 318 104 403 l 415 432 b 517 514 482 440 517 461 b 386 603 517 569 488 603 b 238 489 286 603 244 576 l 65 489 b 388 733 75 640 164 733 b 686 518 601 733 686 647 l 686 136 b 715 0 686 85 696 28 m 332 108 b 517 283 425 108 517 158 l 517 349 b 435 319 499 332 472 324 l 340 308 b 211 206 243 297 211 263 b 332 108 211 146 251 108 "},"æ":{"ha":1231,"x_min":0,"x_max":0,"o":"m 1189 304 l 679 304 b 857 119 692 178 760 119 b 1011 222 936 119 988 158 l 1172 222 b 854 -17 1138 76 1018 -17 b 590 108 742 -17 650 28 b 303 -17 521 24 424 -17 b 32 199 138 -17 32 60 b 307 422 32 318 104 403 l 415 432 b 517 514 482 440 517 461 b 386 603 517 569 488 603 b 238 489 286 603 244 576 l 65 489 b 388 733 75 640 164 733 b 625 647 514 733 586 701 b 851 733 682 703 760 733 b 1189 346 1061 733 1189 574 m 851 597 b 681 426 763 597 696 543 l 1022 426 b 851 597 1010 528 950 597 m 332 108 b 517 283 425 108 517 158 l 517 349 b 435 319 499 332 472 324 l 340 308 b 211 206 243 297 211 263 b 332 108 211 146 251 108 "},"ǽ":{"ha":1231,"x_min":0,"x_max":0,"o":"m 700 810 l 557 810 l 678 1010 l 879 1010 m 1189 304 l 679 304 b 857 119 692 178 760 119 b 1011 222 936 119 988 158 l 1172 222 b 854 -17 1138 76 1018 -17 b 590 108 742 -17 650 28 b 303 -17 521 24 424 -17 b 32 199 138 -17 32 60 b 307 422 32 318 104 403 l 415 432 b 517 514 482 440 517 461 b 386 603 517 569 488 603 b 238 489 286 603 244 576 l 65 489 b 388 733 75 640 164 733 b 625 647 514 733 586 701 b 851 733 682 703 760 733 b 1189 346 1061 733 1189 574 m 851 597 b 681 426 763 597 696 543 l 1022 426 b 851 597 1010 528 950 597 m 332 108 b 517 283 425 108 517 158 l 517 349 b 435 319 499 332 472 324 l 340 308 b 211 206 243 297 211 263 b 332 108 211 146 251 108 "},"ć":{"ha":754,"x_min":0,"x_max":0,"o":"m 449 1010 l 650 1010 l 471 810 l 328 810 m 393 -17 b 39 358 181 -17 39 129 b 393 733 39 588 179 733 b 726 458 581 733 706 626 l 551 458 b 393 588 535 547 471 588 b 218 358 289 588 218 515 b 393 129 218 201 292 129 b 554 267 472 129 540 172 l 729 267 b 393 -17 710 92 576 -17 "},"č":{"ha":754,"x_min":0,"x_max":0,"o":"m 289 808 l 126 1008 l 286 1008 l 393 897 l 500 1008 l 660 1008 l 499 808 m 729 267 b 393 -17 710 92 576 -17 b 39 358 181 -17 39 129 b 393 733 39 588 179 733 b 726 458 581 733 706 626 l 551 458 b 393 588 535 547 471 588 b 218 358 289 588 218 515 b 393 129 218 201 292 129 b 554 267 472 129 540 172 "},"ç":{"ha":754,"x_min":0,"x_max":0,"o":"m 729 267 b 458 -12 713 113 607 11 l 401 -76 l 419 -76 b 557 -186 507 -76 557 -125 b 351 -319 557 -262 499 -319 b 260 -311 325 -319 286 -315 l 260 -237 b 339 -243 289 -242 308 -243 b 425 -185 394 -243 425 -221 b 346 -132 425 -153 401 -132 b 310 -133 336 -132 326 -132 l 310 -81 l 361 -15 b 39 358 167 -1 39 142 b 393 733 39 588 179 733 b 726 458 581 733 706 626 l 551 458 b 393 588 535 547 471 588 b 218 358 289 588 218 515 b 393 129 218 201 292 129 b 554 267 472 129 540 172 l 729 267 "},"ĉ":{"ha":754,"x_min":0,"x_max":0,"o":"m 286 810 l 126 810 l 288 1010 l 497 1010 l 660 810 l 500 810 l 393 919 m 729 267 b 393 -17 710 92 576 -17 b 39 358 181 -17 39 129 b 393 733 39 588 179 733 b 726 458 581 733 706 626 l 551 458 b 393 588 535 547 471 588 b 218 358 289 588 218 515 b 393 129 218 201 292 129 b 554 267 472 129 540 172 "},"ċ":{"ha":754,"x_min":0,"x_max":0,"o":"m 307 974 l 479 974 l 479 810 l 307 810 m 393 -17 b 39 358 181 -17 39 129 b 393 733 39 588 179 733 b 726 458 581 733 706 626 l 551 458 b 393 588 535 547 471 588 b 218 358 289 588 218 515 b 393 129 218 201 292 129 b 554 267 472 129 540 172 l 729 267 b 393 -17 710 92 576 -17 "},"ð":{"ha":806,"x_min":0,"x_max":0,"o":"m 557 847 b 765 369 690 690 765 531 b 404 -17 765 121 617 -17 b 39 347 193 -17 39 124 b 399 703 39 560 181 703 b 517 675 436 703 478 693 b 414 804 485 721 450 764 l 196 739 l 196 849 l 333 889 l 233 989 l 425 989 l 478 933 l 689 996 l 689 886 l 557 847 m 404 128 b 590 343 517 128 590 204 b 404 561 590 483 518 561 b 218 343 290 561 218 483 b 404 128 218 204 290 128 "},"ď":{"ha":1015,"x_min":0,"x_max":0,"o":"m 582 989 l 757 989 l 757 0 l 588 0 l 588 100 b 361 -17 539 28 464 -17 b 39 358 163 -17 39 131 b 361 733 39 586 163 733 b 582 624 460 733 533 693 m 1029 989 l 926 758 l 807 758 l 850 989 m 401 128 b 586 358 515 128 586 207 b 401 589 586 510 515 589 b 218 353 289 589 218 504 b 401 128 218 201 289 128 "},"đ":{"ha":868,"x_min":0,"x_max":0,"o":"m 868 803 l 757 803 l 757 0 l 588 0 l 588 100 b 361 -17 539 28 464 -17 b 39 358 163 -17 39 131 b 361 733 39 586 163 733 b 582 624 460 733 533 693 l 582 803 l 426 803 l 426 911 l 582 911 l 582 989 l 757 989 l 757 911 l 868 911 m 401 128 b 586 358 515 128 586 207 b 401 589 586 510 515 589 b 218 353 289 589 218 504 b 401 128 218 201 289 128 "},"é":{"ha":789,"x_min":0,"x_max":0,"o":"m 471 810 l 328 810 l 449 1010 l 650 1010 m 747 304 l 211 304 b 397 119 224 176 296 119 b 561 222 481 119 535 158 l 729 222 b 396 -17 693 76 568 -17 b 39 358 185 -17 39 129 b 393 733 39 583 181 733 b 747 346 613 733 747 574 m 392 597 b 213 426 299 597 229 544 l 572 426 b 392 597 558 528 496 597 "},"ĕ":{"ha":789,"x_min":0,"x_max":0,"o":"m 393 803 b 160 1010 267 803 175 881 l 292 1010 b 393 915 299 947 336 915 b 494 1010 449 915 488 947 l 626 1010 b 393 803 608 881 519 803 m 747 304 l 211 304 b 397 119 224 176 296 119 b 561 222 481 119 535 158 l 729 222 b 396 -17 693 76 568 -17 b 39 358 185 -17 39 129 b 393 733 39 583 181 733 b 747 346 613 733 747 574 m 392 597 b 213 426 299 597 229 544 l 572 426 b 392 597 558 528 496 597 "},"ě":{"ha":789,"x_min":0,"x_max":0,"o":"m 289 808 l 126 1008 l 286 1008 l 393 897 l 500 1008 l 660 1008 l 499 808 m 747 304 l 211 304 b 397 119 224 176 296 119 b 561 222 481 119 535 158 l 729 222 b 396 -17 693 76 568 -17 b 39 358 185 -17 39 129 b 393 733 39 583 181 733 b 747 346 613 733 747 574 m 392 597 b 213 426 299 597 229 544 l 572 426 b 392 597 558 528 496 597 "},"ê":{"ha":789,"x_min":0,"x_max":0,"o":"m 286 810 l 126 810 l 288 1010 l 497 1010 l 660 810 l 500 810 l 393 919 m 747 304 l 211 304 b 397 119 224 176 296 119 b 561 222 481 119 535 158 l 729 222 b 396 -17 693 76 568 -17 b 39 358 185 -17 39 129 b 393 733 39 583 181 733 b 747 346 613 733 747 574 m 392 597 b 213 426 299 597 229 544 l 572 426 b 392 597 558 528 496 597 "},"ë":{"ha":789,"x_min":0,"x_max":0,"o":"m 343 810 l 171 810 l 171 974 l 343 974 m 615 810 l 443 810 l 443 974 l 615 974 m 747 304 l 211 304 b 397 119 224 176 296 119 b 561 222 481 119 535 158 l 729 222 b 396 -17 693 76 568 -17 b 39 358 185 -17 39 129 b 393 733 39 583 181 733 b 747 346 613 733 747 574 m 392 597 b 213 426 299 597 229 544 l 572 426 b 392 597 558 528 496 597 "},"ė":{"ha":789,"x_min":0,"x_max":0,"o":"m 479 810 l 307 810 l 307 974 l 479 974 m 747 304 l 211 304 b 397 119 224 176 296 119 b 561 222 481 119 535 158 l 729 222 b 396 -17 693 76 568 -17 b 39 358 185 -17 39 129 b 393 733 39 583 181 733 b 747 346 613 733 747 574 m 392 597 b 213 426 299 597 229 544 l 572 426 b 392 597 558 528 496 597 "},"è":{"ha":789,"x_min":0,"x_max":0,"o":"m 324 810 l 144 1010 l 346 1010 l 467 810 m 747 304 l 211 304 b 397 119 224 176 296 119 b 561 222 481 119 535 158 l 729 222 b 396 -17 693 76 568 -17 b 39 358 185 -17 39 129 b 393 733 39 583 181 733 b 747 346 613 733 747 574 m 392 597 b 213 426 299 597 229 544 l 572 426 b 392 597 558 528 496 597 "},"ē":{"ha":789,"x_min":0,"x_max":0,"o":"m 614 810 l 172 810 l 172 932 l 614 932 m 747 304 l 211 304 b 397 119 224 176 296 119 b 561 222 481 119 535 158 l 729 222 b 396 -17 693 76 568 -17 b 39 358 185 -17 39 129 b 393 733 39 583 181 733 b 747 346 613 733 747 574 m 392 597 b 213 426 299 597 229 544 l 572 426 b 392 597 558 528 496 597 "},"ę":{"ha":789,"x_min":0,"x_max":0,"o":"m 747 304 l 211 304 b 397 119 224 176 296 119 b 561 222 481 119 535 158 l 729 222 b 508 -1 701 111 622 29 b 374 -129 401 -53 374 -96 b 443 -182 374 -171 413 -182 b 513 -171 469 -182 492 -176 l 513 -275 b 414 -289 492 -282 454 -289 b 235 -156 310 -289 235 -240 b 344 -14 235 -107 271 -50 b 39 358 161 8 39 149 b 393 733 39 583 181 733 b 747 346 613 733 747 574 m 392 597 b 213 426 299 597 229 544 l 572 426 b 392 597 558 528 496 597 "},"ə":{"ha":789,"x_min":0,"x_max":0,"o":"m 392 733 b 750 358 606 733 750 588 b 396 -17 750 133 610 -17 b 43 371 176 -17 43 143 l 43 413 l 578 413 b 390 597 565 540 494 597 b 226 494 310 597 253 558 l 57 494 b 392 733 94 640 222 733 m 397 119 b 576 290 490 119 560 172 l 218 290 b 397 119 231 189 294 119 "},"ǵ":{"ha":828,"x_min":0,"x_max":0,"o":"m 489 810 l 346 810 l 467 1010 l 668 1010 m 757 717 l 757 24 b 403 -289 757 -165 636 -289 b 74 -39 196 -289 85 -187 l 246 -39 b 406 -154 254 -115 310 -154 b 582 19 521 -154 582 -93 l 582 110 b 363 3 535 43 463 3 b 39 368 168 3 39 150 b 361 733 39 588 165 733 b 588 618 465 733 540 690 l 588 717 m 401 147 b 586 368 515 147 586 226 b 401 589 586 511 515 589 b 218 367 289 589 218 506 b 401 147 218 228 289 147 "},"ğ":{"ha":828,"x_min":0,"x_max":0,"o":"m 411 803 b 178 1010 285 803 193 881 l 310 1010 b 411 915 317 947 354 915 b 513 1010 467 915 506 947 l 644 1010 b 411 803 626 881 538 803 m 757 717 l 757 24 b 403 -289 757 -165 636 -289 b 74 -39 196 -289 85 -187 l 246 -39 b 406 -154 254 -115 310 -154 b 582 19 521 -154 582 -93 l 582 110 b 363 3 535 43 463 3 b 39 368 168 3 39 150 b 361 733 39 588 165 733 b 588 618 465 733 540 690 l 588 717 m 401 147 b 586 368 515 147 586 226 b 401 589 586 511 515 589 b 218 367 289 589 218 506 b 401 147 218 228 289 147 "},"ĝ":{"ha":828,"x_min":0,"x_max":0,"o":"m 304 810 l 144 810 l 306 1010 l 515 1010 l 678 810 l 518 810 l 411 919 m 757 717 l 757 24 b 403 -289 757 -165 636 -289 b 74 -39 196 -289 85 -187 l 246 -39 b 406 -154 254 -115 310 -154 b 582 19 521 -154 582 -93 l 582 110 b 363 3 535 43 463 3 b 39 368 168 3 39 150 b 361 733 39 588 165 733 b 588 618 465 733 540 690 l 588 717 m 401 147 b 586 368 515 147 586 226 b 401 589 586 511 515 589 b 218 367 289 589 218 506 b 401 147 218 228 289 147 "},"ģ":{"ha":828,"x_min":0,"x_max":0,"o":"m 496 810 l 326 810 l 326 964 b 468 1086 326 1046 371 1083 l 496 1088 l 496 1018 l 471 1018 b 418 967 436 1017 418 999 l 418 947 l 496 947 m 757 717 l 757 24 b 403 -289 757 -165 636 -289 b 74 -39 196 -289 85 -187 l 246 -39 b 406 -154 254 -115 310 -154 b 582 19 521 -154 582 -93 l 582 110 b 363 3 535 43 463 3 b 39 368 168 3 39 150 b 361 733 39 588 165 733 b 588 618 465 733 540 690 l 588 717 m 401 147 b 586 368 515 147 586 226 b 401 589 586 511 515 589 b 218 367 289 589 218 506 b 401 147 218 228 289 147 "},"ġ":{"ha":828,"x_min":0,"x_max":0,"o":"m 497 810 l 325 810 l 325 974 l 497 974 m 757 717 l 757 24 b 403 -289 757 -165 636 -289 b 74 -39 196 -289 85 -187 l 246 -39 b 406 -154 254 -115 310 -154 b 582 19 521 -154 582 -93 l 582 110 b 363 3 535 43 463 3 b 39 368 168 3 39 150 b 361 733 39 588 165 733 b 588 618 465 733 540 690 l 588 717 m 401 147 b 586 368 515 147 586 226 b 401 589 586 511 515 589 b 218 367 289 589 218 506 b 401 147 218 228 289 147 "},"ħ":{"ha":825,"x_min":0,"x_max":0,"o":"m 504 733 b 754 475 653 733 754 646 l 754 0 l 581 0 l 581 446 b 446 582 581 538 535 582 b 285 401 368 582 285 529 l 285 0 l 111 0 l 111 803 l 0 803 l 0 911 l 111 911 l 111 989 l 285 989 l 285 911 l 440 911 l 440 803 l 285 803 l 285 619 b 504 733 331 685 404 733 "},"ĥ":{"ha":786,"x_min":0,"x_max":0,"o":"m 74 1049 l -75 1049 l 58 1249 l 257 1249 l 392 1049 l 242 1049 l 158 1160 m 464 733 b 715 475 614 733 715 646 l 715 0 l 540 0 l 540 446 b 406 582 540 538 494 582 b 246 401 329 582 246 529 l 246 0 l 71 0 l 71 989 l 246 989 l 246 621 b 464 733 293 686 367 733 "},"ı":{"ha":317,"x_min":0,"x_max":0,"o":"m 71 717 l 246 717 l 246 0 l 71 0 "},"í":{"ha":317,"x_min":0,"x_max":0,"o":"m 168 1010 l 353 1010 l 224 810 l 94 810 m 71 717 l 246 717 l 246 0 l 71 0 "},"ĭ":{"ha":317,"x_min":0,"x_max":0,"o":"m 158 803 b -54 1001 39 803 -44 885 l 72 1001 b 158 915 76 950 106 915 b 244 1001 211 915 240 950 l 371 1001 b 158 803 358 885 278 803 m 71 717 l 246 717 l 246 0 l 71 0 "},"î":{"ha":317,"x_min":0,"x_max":0,"o":"m 74 810 l -75 810 l 58 1010 l 257 1010 l 392 810 l 242 810 l 158 921 m 71 717 l 246 717 l 246 0 l 71 0 "},"ï":{"ha":317,"x_min":0,"x_max":0,"o":"m -42 974 l 118 974 l 118 810 l -42 810 m 199 974 l 357 974 l 357 810 l 199 810 m 71 717 l 246 717 l 246 0 l 71 0 "},"ì":{"ha":317,"x_min":0,"x_max":0,"o":"m -36 1010 l 149 1010 l 222 810 l 93 810 m 71 717 l 246 717 l 246 0 l 71 0 "},"ĳ":{"ha":633,"x_min":0,"x_max":0,"o":"m 72 974 l 244 974 l 244 810 l 72 810 m 389 974 l 561 974 l 561 810 l 389 810 m 71 717 l 246 717 l 246 0 l 71 0 m 351 -276 b 285 -274 324 -276 307 -275 l 285 -136 l 319 -136 b 388 -74 364 -136 388 -121 l 388 717 l 563 717 l 563 -93 b 351 -276 563 -225 489 -276 "},"ī":{"ha":317,"x_min":0,"x_max":0,"o":"m -24 932 l 340 932 l 340 810 l -24 810 m 71 717 l 246 717 l 246 0 l 71 0 "},"į":{"ha":317,"x_min":0,"x_max":0,"o":"m 244 810 l 72 810 l 72 974 l 244 974 m 206 -183 b 257 -174 224 -183 242 -181 l 257 -276 b 181 -289 240 -282 213 -289 b 26 -158 89 -289 26 -243 b 132 0 26 -103 63 -35 l 71 0 l 71 717 l 246 717 l 246 0 b 146 -126 160 -51 146 -97 b 206 -183 146 -174 181 -183 "},"ĩ":{"ha":317,"x_min":0,"x_max":0,"o":"m -43 810 b 68 990 -43 938 1 990 b 167 958 106 990 138 974 b 233 933 190 944 213 933 b 265 990 254 933 265 950 l 360 990 b 249 810 360 863 315 810 b 149 843 214 810 178 826 b 83 867 122 856 101 867 b 51 810 63 867 51 850 l -43 810 m 71 717 l 246 717 l 246 0 l 71 0 "},"ȷ":{"ha":317,"x_min":0,"x_max":0,"o":"m 35 -276 b -32 -274 7 -276 -10 -275 l -32 -136 l 3 -136 b 71 -74 47 -136 71 -121 l 71 717 l 246 717 l 246 -93 b 35 -276 246 -225 172 -276 "},"ĵ":{"ha":317,"x_min":0,"x_max":0,"o":"m 74 810 l -75 810 l 58 1010 l 257 1010 l 392 810 l 242 810 l 158 921 m 71 717 l 246 717 l 246 -93 b 35 -276 246 -225 172 -276 b -32 -274 7 -276 -10 -275 l -32 -136 l 3 -136 b 71 -74 47 -136 71 -121 "},"ķ":{"ha":764,"x_min":0,"x_max":0,"o":"m 760 0 l 560 0 l 351 333 l 243 225 l 243 0 l 71 0 l 71 989 l 243 989 l 243 419 l 535 717 l 743 717 l 472 446 m 317 -93 l 486 -93 l 486 -247 b 344 -369 486 -329 442 -367 l 317 -371 l 317 -301 l 342 -301 b 394 -250 376 -300 394 -282 l 394 -231 l 317 -231 "},"ĸ":{"ha":764,"x_min":0,"x_max":0,"o":"m 351 333 l 243 225 l 243 0 l 71 0 l 71 717 l 243 717 l 243 419 l 535 717 l 743 717 l 472 446 l 760 0 l 560 0 "},"ĺ":{"ha":317,"x_min":0,"x_max":0,"o":"m 94 1049 l 168 1249 l 353 1249 l 224 1049 m 71 989 l 246 989 l 246 0 l 71 0 "},"ľ":{"ha":506,"x_min":0,"x_max":0,"o":"m 71 989 l 246 989 l 246 0 l 71 0 m 340 989 l 519 989 l 417 758 l 297 758 "},"ļ":{"ha":317,"x_min":0,"x_max":0,"o":"m 246 989 l 246 0 l 71 0 l 71 989 m 75 -93 l 244 -93 l 244 -247 b 103 -369 244 -329 200 -367 l 75 -371 l 75 -301 l 100 -301 b 153 -250 135 -300 153 -282 l 153 -231 l 75 -231 "},"ŀ":{"ha":631,"x_min":0,"x_max":0,"o":"m 71 989 l 246 989 l 246 0 l 71 0 m 375 592 l 578 592 l 578 392 l 375 392 "},"ł":{"ha":396,"x_min":0,"x_max":0,"o":"m 396 531 l 285 476 l 285 0 l 111 0 l 111 390 l 0 336 l 0 461 l 111 515 l 111 989 l 285 989 l 285 601 l 396 656 "},"ń":{"ha":786,"x_min":0,"x_max":0,"o":"m 471 810 l 328 810 l 449 1010 l 650 1010 m 464 733 b 715 475 614 733 715 646 l 715 0 l 540 0 l 540 446 b 406 582 540 538 494 582 b 246 401 329 582 246 529 l 246 0 l 71 0 l 71 717 l 240 717 l 240 614 b 464 733 286 682 363 733 "},"ŉ":{"ha":1031,"x_min":0,"x_max":0,"o":"m 53 989 l 244 989 l 244 788 b 76 596 244 657 185 600 l 53 594 l 53 690 l 75 692 b 135 781 117 694 135 724 l 135 803 l 53 803 m 708 733 b 958 475 858 733 958 646 l 958 0 l 785 0 l 785 446 b 650 582 785 538 739 582 b 489 401 572 582 489 529 l 489 0 l 315 0 l 315 717 l 483 717 l 483 611 b 708 733 529 682 606 733 "},"ň":{"ha":786,"x_min":0,"x_max":0,"o":"m 289 808 l 126 1008 l 286 1008 l 393 897 l 500 1008 l 660 1008 l 499 808 m 464 733 b 715 475 614 733 715 646 l 715 0 l 540 0 l 540 446 b 406 582 540 538 494 582 b 246 401 329 582 246 529 l 246 0 l 71 0 l 71 717 l 240 717 l 240 614 b 464 733 286 682 363 733 "},"ņ":{"ha":786,"x_min":0,"x_max":0,"o":"m 464 733 b 715 475 614 733 715 646 l 715 0 l 540 0 l 540 446 b 406 582 540 538 494 582 b 246 401 329 582 246 529 l 246 0 l 71 0 l 71 717 l 240 717 l 240 614 b 464 733 286 682 363 733 m 307 -93 l 476 -93 l 476 -247 b 335 -369 476 -329 432 -367 l 307 -371 l 307 -301 l 332 -301 b 385 -250 367 -300 385 -282 l 385 -231 l 307 -231 "},"ŋ":{"ha":786,"x_min":0,"x_max":0,"o":"m 464 733 b 715 475 614 733 715 646 l 715 -94 b 504 -278 715 -226 642 -278 b 438 -275 476 -278 458 -276 l 438 -139 l 472 -139 b 540 -76 517 -139 540 -124 l 540 446 b 406 582 540 538 494 582 b 246 401 329 582 246 529 l 246 0 l 71 0 l 71 717 l 240 717 l 240 614 b 464 733 286 682 363 733 "},"ñ":{"ha":786,"x_min":0,"x_max":0,"o":"m 299 868 b 260 810 274 868 261 851 l 143 810 b 282 993 143 938 197 993 b 403 960 328 993 367 976 b 488 935 432 947 460 935 b 526 993 513 935 525 950 l 643 993 b 504 810 643 865 589 810 b 381 843 463 810 419 826 b 299 868 351 856 322 868 m 464 733 b 715 475 614 733 715 646 l 715 0 l 540 0 l 540 446 b 406 582 540 538 494 582 b 246 401 329 582 246 529 l 246 0 l 71 0 l 71 717 l 240 717 l 240 614 b 464 733 286 682 363 733 "},"ó":{"ha":807,"x_min":0,"x_max":0,"o":"m 460 1010 l 661 1010 l 482 810 l 339 810 m 404 -17 b 39 358 186 -17 39 131 b 404 733 39 586 186 733 b 768 358 622 733 768 586 b 404 -17 768 131 622 -17 m 404 128 b 590 358 517 128 590 207 b 404 589 590 510 517 589 b 218 358 290 589 218 510 b 404 128 218 207 290 128 "},"ŏ":{"ha":807,"x_min":0,"x_max":0,"o":"m 404 803 b 171 1010 278 803 186 881 l 303 1010 b 404 915 310 947 347 915 b 506 1010 460 915 499 947 l 638 1010 b 404 803 619 881 531 803 m 404 -17 b 39 358 186 -17 39 131 b 404 733 39 586 186 733 b 768 358 622 733 768 586 b 404 -17 768 131 622 -17 m 404 128 b 590 358 517 128 590 207 b 404 589 590 510 517 589 b 218 358 290 589 218 510 b 404 128 218 207 290 128 "},"ô":{"ha":807,"x_min":0,"x_max":0,"o":"m 296 810 l 136 810 l 297 1010 l 507 1010 l 669 810 l 510 810 l 403 919 m 404 733 b 768 358 622 733 768 586 b 404 -17 768 131 622 -17 b 39 358 186 -17 39 131 b 404 733 39 586 186 733 m 404 128 b 590 358 517 128 590 207 b 404 589 590 510 517 589 b 218 358 290 589 218 510 b 404 128 218 207 290 128 "},"ö":{"ha":807,"x_min":0,"x_max":0,"o":"m 181 974 l 353 974 l 353 810 l 181 810 m 453 974 l 625 974 l 625 810 l 453 810 m 404 -17 b 39 358 186 -17 39 131 b 404 733 39 586 186 733 b 768 358 622 733 768 586 b 404 -17 768 131 622 -17 m 404 128 b 590 358 517 128 590 207 b 404 589 590 510 517 589 b 218 358 290 589 218 510 b 404 128 218 207 290 128 "},"ò":{"ha":807,"x_min":0,"x_max":0,"o":"m 156 1010 l 357 1010 l 478 810 l 335 810 m 404 -17 b 39 358 186 -17 39 131 b 404 733 39 586 186 733 b 768 358 622 733 768 586 b 404 -17 768 131 622 -17 m 404 128 b 590 358 517 128 590 207 b 404 589 590 510 517 589 b 218 358 290 589 218 510 b 404 128 218 207 290 128 "},"ő":{"ha":807,"x_min":0,"x_max":0,"o":"m 328 1010 l 528 1010 l 343 810 l 206 810 m 606 1010 l 806 1010 l 621 810 l 483 810 m 404 -17 b 39 358 186 -17 39 131 b 404 733 39 586 186 733 b 768 358 622 733 768 586 b 404 -17 768 131 622 -17 m 404 128 b 590 358 517 128 590 207 b 404 589 590 510 517 589 b 218 358 290 589 218 510 b 404 128 218 207 290 128 "},"ō":{"ha":807,"x_min":0,"x_max":0,"o":"m 183 932 l 625 932 l 625 810 l 183 810 m 404 -17 b 39 358 186 -17 39 131 b 404 733 39 586 186 733 b 768 358 622 733 768 586 b 404 -17 768 131 622 -17 m 404 128 b 590 358 517 128 590 207 b 404 589 590 510 517 589 b 218 358 290 589 218 510 b 404 128 218 207 290 128 "},"ø":{"ha":807,"x_min":0,"x_max":0,"o":"m 689 607 b 768 358 740 544 768 458 b 404 -17 768 131 622 -17 b 193 42 322 -17 251 4 l 106 -58 l 29 8 l 118 110 b 39 358 68 174 39 258 b 404 733 39 586 186 733 b 615 675 486 733 557 713 l 701 774 l 776 707 m 213 358 b 232 239 213 311 219 272 l 517 563 b 404 597 486 586 449 597 b 213 358 288 597 213 515 m 596 358 b 576 479 596 406 589 446 l 292 154 b 404 119 322 131 360 119 b 596 358 521 119 596 201 "},"ǿ":{"ha":807,"x_min":0,"x_max":0,"o":"m 482 810 l 339 810 l 460 1010 l 661 1010 m 689 607 b 768 358 740 544 768 458 b 404 -17 768 131 622 -17 b 193 42 322 -17 251 4 l 106 -58 l 29 8 l 118 110 b 39 358 68 174 39 258 b 404 733 39 586 186 733 b 615 675 486 733 557 713 l 701 774 l 776 707 m 213 358 b 232 239 213 311 219 272 l 517 563 b 404 597 486 586 449 597 b 213 358 288 597 213 515 m 596 358 b 576 479 596 406 589 446 l 292 154 b 404 119 322 131 360 119 b 596 358 521 119 596 201 "},"õ":{"ha":807,"x_min":0,"x_max":0,"o":"m 153 810 b 292 993 153 938 207 993 b 413 960 338 993 376 976 b 497 935 442 947 469 935 b 536 993 522 935 535 950 l 653 993 b 514 810 653 865 599 810 b 390 843 472 810 429 826 b 308 868 361 856 332 868 b 269 810 283 868 271 851 l 153 810 m 404 -17 b 39 358 186 -17 39 131 b 404 733 39 586 186 733 b 768 358 622 733 768 586 b 404 -17 768 131 622 -17 m 404 128 b 590 358 517 128 590 207 b 404 589 590 510 517 589 b 218 358 290 589 218 510 b 404 128 218 207 290 128 "},"œ":{"ha":1340,"x_min":0,"x_max":0,"o":"m 1297 304 l 763 304 b 947 119 775 178 846 119 b 1110 222 1031 119 1085 158 l 1278 222 b 946 -17 1242 76 1118 -17 b 678 111 833 -17 739 31 b 404 -17 617 31 519 -17 b 39 358 186 -17 39 131 b 404 733 39 586 186 733 b 678 604 519 733 617 686 b 944 733 738 686 832 733 b 1297 346 1164 733 1297 574 m 943 597 b 764 426 851 597 781 543 l 1122 426 b 943 597 1110 528 1046 597 m 404 128 b 590 358 517 128 590 207 b 404 589 590 510 517 589 b 218 358 290 589 218 510 b 404 128 218 207 290 128 "},"þ":{"ha":829,"x_min":0,"x_max":0,"o":"m 468 733 b 789 358 667 733 789 586 b 468 -17 789 131 667 -17 b 246 94 368 -17 294 25 l 246 -272 l 71 -272 l 71 989 l 246 989 l 246 622 b 468 733 294 692 368 733 m 426 128 b 611 364 540 128 611 213 b 426 589 611 515 540 589 b 243 358 314 589 243 510 b 426 128 243 207 314 128 "},"ŕ":{"ha":529,"x_min":0,"x_max":0,"o":"m 360 810 l 231 810 l 304 1010 l 489 1010 m 454 728 b 497 725 469 728 482 728 l 497 564 l 453 564 b 246 364 324 564 246 500 l 246 0 l 71 0 l 71 717 l 240 717 l 240 589 b 454 728 275 669 343 728 "},"ř":{"ha":529,"x_min":0,"x_max":0,"o":"m 194 808 l 61 1008 l 210 1008 l 294 897 l 378 1008 l 528 1008 l 393 808 m 240 589 b 454 728 275 669 343 728 b 497 725 469 728 482 728 l 497 564 l 453 564 b 246 364 324 564 246 500 l 246 0 l 71 0 l 71 717 l 240 717 l 240 589 "},"ŗ":{"ha":529,"x_min":0,"x_max":0,"o":"m 454 728 b 497 725 469 728 482 728 l 497 564 l 453 564 b 246 364 324 564 246 500 l 246 0 l 71 0 l 71 717 l 240 717 l 240 589 b 454 728 275 669 343 728 m 75 -93 l 244 -93 l 244 -247 b 103 -369 244 -329 200 -367 l 75 -371 l 75 -301 l 100 -301 b 153 -250 135 -300 153 -282 l 153 -231 l 75 -231 "},"ś":{"ha":693,"x_min":0,"x_max":0,"o":"m 400 1010 l 601 1010 l 422 810 l 279 810 m 353 -19 b 25 228 149 -19 36 54 l 196 228 b 356 106 206 138 251 106 b 497 192 457 106 497 138 b 357 286 497 243 465 268 l 275 300 b 40 517 121 326 40 394 b 338 733 40 651 146 733 b 654 490 558 733 649 638 l 489 490 b 338 608 485 582 428 608 b 213 525 253 608 213 576 b 332 438 213 472 254 451 l 422 424 b 671 206 594 393 671 329 b 353 -19 671 61 553 -19 "},"š":{"ha":693,"x_min":0,"x_max":0,"o":"m 240 808 l 78 1008 l 238 1008 l 344 897 l 451 1008 l 611 1008 l 450 808 m 422 424 b 671 206 594 393 671 329 b 353 -19 671 61 553 -19 b 25 228 149 -19 36 54 l 196 228 b 356 106 206 138 251 106 b 497 192 457 106 497 138 b 357 286 497 243 465 268 l 275 300 b 40 517 121 326 40 394 b 338 733 40 651 146 733 b 654 490 558 733 649 638 l 489 490 b 338 608 485 582 428 608 b 213 525 253 608 213 576 b 332 438 213 472 254 451 l 422 424 "},"ş":{"ha":693,"x_min":0,"x_max":0,"o":"m 671 206 b 408 -17 671 75 575 -3 l 354 -79 l 372 -79 b 510 -189 460 -79 510 -128 b 304 -322 510 -265 451 -322 b 213 -314 278 -322 239 -318 l 213 -240 b 292 -246 242 -244 261 -246 b 378 -187 347 -246 378 -224 b 299 -135 378 -156 354 -135 b 263 -136 289 -135 279 -135 l 263 -83 l 314 -18 b 25 228 135 -10 35 65 l 196 228 b 356 106 206 138 251 106 b 497 192 457 106 497 138 b 357 286 497 243 465 268 l 275 300 b 40 517 121 326 40 394 b 338 733 40 651 146 733 b 654 490 558 733 649 638 l 489 490 b 338 608 485 582 428 608 b 213 525 253 608 213 576 b 332 438 213 472 254 451 l 422 424 b 671 206 594 393 671 329 "},"ŝ":{"ha":693,"x_min":0,"x_max":0,"o":"m 238 810 l 78 810 l 239 1010 l 449 1010 l 611 810 l 451 810 l 344 919 m 422 424 b 671 206 594 393 671 329 b 353 -19 671 61 553 -19 b 25 228 149 -19 36 54 l 196 228 b 356 106 206 138 251 106 b 497 192 457 106 497 138 b 357 286 497 243 465 268 l 275 300 b 40 517 121 326 40 394 b 338 733 40 651 146 733 b 654 490 558 733 649 638 l 489 490 b 338 608 485 582 428 608 b 213 525 253 608 213 576 b 332 438 213 472 254 451 l 422 424 "},"ș":{"ha":693,"x_min":0,"x_max":0,"o":"m 422 424 b 671 206 594 393 671 329 b 353 -19 671 61 553 -19 b 25 228 149 -19 36 54 l 196 228 b 356 106 206 138 251 106 b 497 192 457 106 497 138 b 357 286 497 243 465 268 l 275 300 b 40 517 121 326 40 394 b 338 733 40 651 146 733 b 654 490 558 733 649 638 l 489 490 b 338 608 485 582 428 608 b 213 525 253 608 213 576 b 332 438 213 472 254 451 l 422 424 m 271 -112 l 440 -112 l 440 -267 b 299 -389 440 -349 396 -386 l 271 -390 l 271 -321 l 296 -321 b 349 -269 331 -319 349 -301 l 349 -250 l 271 -250 "},"ß":{"ha":799,"x_min":0,"x_max":0,"o":"m 586 546 b 758 301 696 500 758 407 b 403 -4 758 111 618 -4 b 332 0 385 -4 357 -3 l 332 142 b 392 139 351 140 374 139 b 579 299 506 139 579 197 b 390 458 579 393 517 458 l 346 458 l 346 586 l 388 586 b 536 725 474 586 536 640 b 390 863 536 801 483 863 b 246 710 296 863 246 800 l 246 0 l 71 0 l 71 701 b 388 1011 71 894 185 1011 b 699 751 576 1011 699 889 b 586 546 699 664 661 592 "},"ŧ":{"ha":476,"x_min":0,"x_max":0,"o":"m 303 583 l 303 425 l 444 425 l 444 317 l 303 317 l 303 196 b 385 133 303 149 326 133 l 444 133 l 444 0 b 353 -6 413 -3 381 -6 b 129 178 201 -6 129 46 l 129 317 l 18 317 l 18 425 l 129 425 l 129 583 l 18 583 l 18 717 l 129 717 l 129 925 l 303 925 l 303 717 l 444 717 l 444 583 "},"ť":{"ha":476,"x_min":0,"x_max":0,"o":"m 569 989 l 467 758 l 347 758 l 390 989 m 303 717 l 444 717 l 444 583 l 303 583 l 303 196 b 385 133 303 149 326 133 l 444 133 l 444 0 b 353 -6 413 -3 381 -6 b 129 178 201 -6 129 46 l 129 583 l 18 583 l 18 717 l 129 717 l 129 925 l 303 925 "},"ţ":{"ha":476,"x_min":0,"x_max":0,"o":"m 303 583 l 303 196 b 385 133 303 149 326 133 l 444 133 l 444 0 b 353 -6 413 -3 381 -6 l 333 -6 l 286 -60 l 304 -60 b 442 -169 392 -60 442 -108 b 236 -303 442 -246 383 -303 b 144 -294 210 -303 171 -299 l 144 -221 b 224 -226 174 -225 193 -226 b 310 -168 279 -226 310 -204 b 231 -115 310 -136 286 -115 b 194 -117 221 -115 211 -115 l 194 -64 l 249 6 b 129 178 168 28 129 81 l 129 583 l 18 583 l 18 717 l 129 717 l 129 925 l 303 925 l 303 717 l 444 717 l 444 583 "},"ț":{"ha":476,"x_min":0,"x_max":0,"o":"m 303 583 l 303 196 b 385 133 303 149 326 133 l 444 133 l 444 0 b 353 -6 413 -3 381 -6 b 129 178 201 -6 129 46 l 129 583 l 18 583 l 18 717 l 129 717 l 129 925 l 303 925 l 303 717 l 444 717 l 444 583 m 203 -93 l 372 -93 l 372 -247 b 231 -369 372 -329 328 -367 l 203 -371 l 203 -301 l 228 -301 b 281 -250 263 -300 281 -282 l 281 -231 l 203 -231 "},"ú":{"ha":786,"x_min":0,"x_max":0,"o":"m 464 810 l 321 810 l 442 1010 l 643 1010 m 715 717 l 715 0 l 546 0 l 546 104 b 321 -17 499 35 424 -17 b 71 242 172 -17 71 71 l 71 717 l 246 717 l 246 271 b 381 135 246 179 290 135 b 540 315 457 135 540 188 l 540 717 "},"ŭ":{"ha":786,"x_min":0,"x_max":0,"o":"m 386 803 b 153 1010 260 803 168 881 l 285 1010 b 386 915 292 947 329 915 b 488 1010 442 915 481 947 l 619 1010 b 386 803 601 881 513 803 m 715 717 l 715 0 l 546 0 l 546 104 b 321 -17 499 35 424 -17 b 71 242 172 -17 71 71 l 71 717 l 246 717 l 246 271 b 381 135 246 179 290 135 b 540 315 457 135 540 188 l 540 717 "},"û":{"ha":786,"x_min":0,"x_max":0,"o":"m 279 810 l 119 810 l 281 1010 l 490 1010 l 653 810 l 493 810 l 386 919 m 715 717 l 715 0 l 546 0 l 546 104 b 321 -17 499 35 424 -17 b 71 242 172 -17 71 71 l 71 717 l 246 717 l 246 271 b 381 135 246 179 290 135 b 540 315 457 135 540 188 l 540 717 "},"ü":{"ha":786,"x_min":0,"x_max":0,"o":"m 336 810 l 164 810 l 164 974 l 336 974 m 608 810 l 436 810 l 436 974 l 608 974 m 715 717 l 715 0 l 546 0 l 546 104 b 321 -17 499 35 424 -17 b 71 242 172 -17 71 71 l 71 717 l 246 717 l 246 271 b 381 135 246 179 290 135 b 540 315 457 135 540 188 l 540 717 "},"ù":{"ha":786,"x_min":0,"x_max":0,"o":"m 318 810 l 139 1010 l 340 1010 l 461 810 m 715 717 l 715 0 l 546 0 l 546 104 b 321 -17 499 35 424 -17 b 71 242 172 -17 71 71 l 71 717 l 246 717 l 246 271 b 381 135 246 179 290 135 b 540 315 457 135 540 188 l 540 717 "},"ű":{"ha":786,"x_min":0,"x_max":0,"o":"m 326 810 l 189 810 l 311 1010 l 511 1010 m 467 810 l 589 1010 l 789 1010 l 604 810 m 540 717 l 715 717 l 715 0 l 546 0 l 546 104 b 321 -17 499 35 424 -17 b 71 242 172 -17 71 71 l 71 717 l 246 717 l 246 271 b 381 135 246 179 290 135 b 540 315 457 135 540 188 "},"ū":{"ha":786,"x_min":0,"x_max":0,"o":"m 607 810 l 165 810 l 165 932 l 607 932 m 715 717 l 715 0 l 546 0 l 546 104 b 321 -17 499 35 424 -17 b 71 242 172 -17 71 71 l 71 717 l 246 717 l 246 271 b 381 135 246 179 290 135 b 540 315 457 135 540 188 l 540 717 "},"ų":{"ha":786,"x_min":0,"x_max":0,"o":"m 715 0 b 576 -129 606 -51 576 -96 b 646 -182 576 -171 615 -182 b 715 -171 672 -182 694 -176 l 715 -275 b 617 -289 694 -282 657 -289 b 438 -156 513 -289 438 -240 b 581 0 438 -100 483 -35 l 546 0 l 546 104 b 321 -17 499 35 424 -17 b 71 242 172 -17 71 71 l 71 717 l 246 717 l 246 271 b 381 135 246 179 290 135 b 540 315 457 135 540 188 l 540 717 l 715 717 l 715 0 "},"ů":{"ha":786,"x_min":0,"x_max":0,"o":"m 386 803 b 188 993 275 803 188 882 b 386 1182 188 1103 275 1182 b 585 993 497 1182 585 1103 b 386 803 585 882 497 803 m 386 1076 b 301 993 339 1076 301 1040 b 386 908 301 944 339 908 b 471 993 433 908 471 944 b 386 1076 471 1040 433 1076 m 715 717 l 715 0 l 546 0 l 546 104 b 321 -17 499 35 424 -17 b 71 242 172 -17 71 71 l 71 717 l 246 717 l 246 271 b 381 135 246 179 290 135 b 540 315 457 135 540 188 l 540 717 "},"ũ":{"ha":786,"x_min":0,"x_max":0,"o":"m 292 868 b 253 810 267 868 254 851 l 136 810 b 275 993 136 938 190 993 b 396 960 321 993 360 976 b 481 935 425 947 453 935 b 519 993 506 935 518 950 l 636 993 b 497 810 636 865 582 810 b 374 843 456 810 413 826 b 292 868 344 856 315 868 m 715 717 l 715 0 l 546 0 l 546 104 b 321 -17 499 35 424 -17 b 71 242 172 -17 71 71 l 71 717 l 246 717 l 246 271 b 381 135 246 179 290 135 b 540 315 457 135 540 188 l 540 717 "},"ẃ":{"ha":1147,"x_min":0,"x_max":0,"o":"m 651 810 l 508 810 l 629 1010 l 831 1010 m 1143 717 l 907 0 l 724 0 l 633 294 b 572 508 613 365 592 438 b 513 294 553 438 533 365 l 424 0 l 240 0 l 4 717 l 192 717 l 272 449 b 343 200 297 367 321 282 b 411 450 364 283 386 367 l 490 717 l 657 717 l 736 450 b 804 200 761 367 783 283 b 875 449 826 282 850 367 l 956 717 "},"ŵ":{"ha":1147,"x_min":0,"x_max":0,"o":"m 467 810 l 307 810 l 468 1010 l 678 1010 l 840 810 l 681 810 l 574 919 m 1143 717 l 907 0 l 724 0 l 633 294 b 572 508 613 365 592 438 b 513 294 553 438 533 365 l 424 0 l 240 0 l 4 717 l 192 717 l 272 449 b 343 200 297 367 321 282 b 411 450 364 283 386 367 l 490 717 l 657 717 l 736 450 b 804 200 761 367 783 283 b 875 449 826 282 850 367 l 956 717 "},"ẅ":{"ha":1147,"x_min":0,"x_max":0,"o":"m 524 810 l 351 810 l 351 974 l 524 974 m 796 810 l 624 810 l 624 974 l 796 974 m 1143 717 l 907 0 l 724 0 l 633 294 b 572 508 613 365 592 438 b 513 294 553 438 533 365 l 424 0 l 240 0 l 4 717 l 192 717 l 272 449 b 343 200 297 367 321 282 b 411 450 364 283 386 367 l 490 717 l 657 717 l 736 450 b 804 200 761 367 783 283 b 875 449 826 282 850 367 l 956 717 "},"ẁ":{"ha":1147,"x_min":0,"x_max":0,"o":"m 506 810 l 326 1010 l 528 1010 l 649 810 m 1143 717 l 907 0 l 724 0 l 633 294 b 572 508 613 365 592 438 b 513 294 553 438 533 365 l 424 0 l 240 0 l 4 717 l 192 717 l 272 449 b 343 200 297 367 321 282 b 411 450 364 283 386 367 l 490 717 l 657 717 l 736 450 b 804 200 761 367 783 283 b 875 449 826 282 850 367 l 956 717 "},"ý":{"ha":725,"x_min":0,"x_max":0,"o":"m 440 810 l 297 810 l 418 1010 l 619 1010 m 722 717 l 446 -58 b 138 -274 389 -218 311 -274 b 61 -269 104 -274 83 -272 l 61 -132 l 128 -132 b 246 -17 214 -132 246 -76 b 213 128 246 26 229 81 l 4 717 l 193 717 l 251 538 b 365 138 290 413 329 278 b 481 536 403 279 442 410 l 539 717 "},"ŷ":{"ha":725,"x_min":0,"x_max":0,"o":"m 256 810 l 96 810 l 257 1010 l 467 1010 l 629 810 l 469 810 l 363 919 m 722 717 l 446 -58 b 138 -274 389 -218 311 -274 b 61 -269 104 -274 83 -272 l 61 -132 l 128 -132 b 246 -17 214 -132 246 -76 b 213 128 246 26 229 81 l 4 717 l 193 717 l 251 538 b 365 138 290 413 329 278 b 481 536 403 279 442 410 l 539 717 "},"ÿ":{"ha":725,"x_min":0,"x_max":0,"o":"m 313 810 l 140 810 l 140 974 l 313 974 m 585 810 l 413 810 l 413 974 l 585 974 m 722 717 l 446 -58 b 138 -274 389 -218 311 -274 b 61 -269 104 -274 83 -272 l 61 -132 l 128 -132 b 246 -17 214 -132 246 -76 b 213 128 246 26 229 81 l 4 717 l 193 717 l 251 538 b 365 138 290 413 329 278 b 481 536 403 279 442 410 l 539 717 "},"ỳ":{"ha":725,"x_min":0,"x_max":0,"o":"m 294 810 l 115 1010 l 317 1010 l 438 810 m 722 717 l 446 -58 b 138 -274 389 -218 311 -274 b 61 -269 104 -274 83 -272 l 61 -132 l 128 -132 b 246 -17 214 -132 246 -76 b 213 128 246 26 229 81 l 4 717 l 193 717 l 251 538 b 365 138 290 413 329 278 b 481 536 403 279 442 410 l 539 717 "},"ź":{"ha":693,"x_min":0,"x_max":0,"o":"m 425 810 l 282 810 l 403 1010 l 604 1010 m 651 136 l 651 0 l 43 0 l 43 115 l 326 472 b 417 582 356 508 386 546 b 269 581 367 581 318 581 l 50 581 l 50 717 l 635 717 l 635 601 l 351 244 b 261 135 322 208 292 171 b 408 136 311 136 360 136 "},"ž":{"ha":693,"x_min":0,"x_max":0,"o":"m 243 808 l 81 1008 l 240 1008 l 347 897 l 454 1008 l 614 1008 l 453 808 m 651 136 l 651 0 l 43 0 l 43 115 l 326 472 b 417 582 356 508 386 546 b 269 581 367 581 318 581 l 50 581 l 50 717 l 635 717 l 635 601 l 351 244 b 261 135 322 208 292 171 b 408 136 311 136 360 136 "},"ż":{"ha":693,"x_min":0,"x_max":0,"o":"m 433 810 l 261 810 l 261 974 l 433 974 m 651 136 l 651 0 l 43 0 l 43 115 l 326 472 b 417 582 356 508 386 546 b 269 581 367 581 318 581 l 50 581 l 50 717 l 635 717 l 635 601 l 351 244 b 261 135 322 208 292 171 b 408 136 311 136 360 136 "},"ﬁ":{"ha":794,"x_min":0,"x_max":0,"o":"m 129 771 b 364 993 129 897 192 993 b 454 989 392 993 429 992 l 454 854 l 393 854 b 303 768 331 854 303 824 l 303 717 l 450 717 l 450 583 l 303 583 l 303 0 l 129 0 l 129 583 l 18 583 l 18 717 l 129 717 l 129 771 m 721 810 l 549 810 l 549 974 l 721 974 m 722 717 l 722 0 l 547 0 l 547 717 "},"ﬂ":{"ha":785,"x_min":0,"x_max":0,"o":"m 129 771 b 364 993 129 897 192 993 b 454 989 392 993 429 992 l 454 854 l 393 854 b 303 768 331 854 303 824 l 303 717 l 450 717 l 450 583 l 303 583 l 303 0 l 129 0 l 129 583 l 18 583 l 18 717 l 129 717 l 129 771 m 713 989 l 713 0 l 538 0 l 538 989 "},"ª":{"ha":654,"x_min":0,"x_max":0,"o":"m 457 364 b 443 442 449 388 444 414 b 243 350 403 382 333 350 b 18 535 110 350 18 417 b 258 732 18 650 86 715 l 350 742 b 436 810 413 747 436 765 b 328 885 436 856 413 885 b 203 786 243 885 208 861 l 46 786 b 328 1001 54 919 131 1001 b 592 814 515 1001 592 926 l 592 492 b 613 364 592 449 597 401 m 282 464 b 436 613 361 464 436 507 l 436 664 b 368 642 419 650 397 644 l 289 633 b 181 546 219 626 181 601 b 282 464 181 497 215 464 "},"º":{"ha":713,"x_min":0,"x_max":0,"o":"m 356 350 b 38 675 165 350 38 478 b 356 1001 38 874 165 1001 b 675 675 547 1001 675 872 b 356 350 675 478 547 350 m 356 479 b 513 675 451 479 513 549 b 356 872 513 804 451 872 b 200 675 261 872 200 804 b 356 479 200 549 260 479 "},"ʰ":{"ha":650,"x_min":0,"x_max":0,"o":"m 390 1001 b 608 772 525 1001 608 919 l 608 364 l 449 364 l 449 749 b 335 865 449 822 414 865 b 200 714 269 865 200 819 l 200 364 l 42 364 l 42 1224 l 200 1224 l 200 900 b 390 1001 239 957 303 1001 "},"ⁿ":{"ha":650,"x_min":0,"x_max":0,"o":"m 390 1001 b 608 772 525 1001 608 919 l 608 364 l 449 364 l 449 749 b 335 865 449 822 414 865 b 200 714 269 865 200 819 l 200 364 l 42 364 l 42 989 l 196 989 l 196 893 b 390 1001 235 954 299 1001 "},"ʳ":{"ha":447,"x_min":0,"x_max":0,"o":"m 381 999 b 418 997 394 999 408 999 l 418 850 l 378 850 b 200 675 271 850 200 797 l 200 364 l 42 364 l 42 989 l 196 989 l 196 879 b 381 999 226 949 286 999 "},"ˢ":{"ha":619,"x_min":0,"x_max":0,"o":"m 314 347 b 26 561 125 347 36 413 l 182 561 b 317 460 190 486 222 460 b 435 531 403 460 435 485 b 317 610 435 575 407 594 l 236 622 b 38 811 103 643 38 706 b 306 1001 38 931 129 1001 b 579 790 497 1001 575 915 l 429 790 b 304 890 425 868 376 890 b 194 819 225 890 194 863 b 296 744 194 774 229 754 l 376 733 b 594 543 515 713 594 661 b 314 347 594 418 489 347 "},"Δ":{"ha":940,"x_min":0,"x_max":0,"o":"m 906 160 l 906 0 l 35 0 l 35 160 l 357 989 l 576 989 m 465 821 b 346 485 426 706 381 574 l 226 165 l 708 165 l 588 485 b 465 821 553 575 506 706 "},"Ω":{"ha":1081,"x_min":0,"x_max":0,"o":"m 39 164 l 254 164 l 254 167 b 50 554 121 258 50 394 b 539 1010 50 833 242 1010 b 1029 554 839 1010 1029 833 b 826 167 1029 394 960 258 l 826 164 l 1042 164 l 1042 0 l 606 0 l 606 146 b 839 526 763 224 839 364 b 542 846 839 744 718 846 b 240 526 365 846 240 744 b 478 146 240 364 319 224 l 478 0 l 39 0 "},"μ":{"ha":786,"x_min":0,"x_max":0,"o":"m 715 717 l 715 0 l 546 0 l 546 104 b 326 -17 497 31 422 -17 b 243 3 296 -17 268 -10 l 243 -272 l 71 -272 l 71 717 l 246 717 l 246 271 b 381 135 246 179 292 135 b 540 315 458 135 540 188 l 540 717 "},"π":{"ha":850,"x_min":0,"x_max":0,"o":"m 708 583 l 708 183 b 756 131 708 151 715 131 l 803 131 l 803 0 b 713 -6 774 -3 740 -6 b 533 169 582 -6 533 43 l 533 583 l 303 583 l 303 0 l 129 0 l 129 583 l 18 583 l 18 717 l 818 717 l 818 583 "},"ᵈ":{"ha":707,"x_min":0,"x_max":0,"o":"m 665 1224 l 665 364 l 511 364 l 511 454 b 315 350 471 389 406 350 b 38 675 143 350 38 478 b 315 1001 38 874 143 1001 b 506 906 401 1001 465 965 l 506 1224 m 354 479 b 510 675 450 479 510 547 b 354 872 510 804 450 872 b 200 671 260 872 200 800 b 354 479 200 542 260 479 "},"ₙ":{"ha":650,"x_min":0,"x_max":0,"o":"m 390 365 b 608 136 525 365 608 283 l 608 -272 l 449 -272 l 449 113 b 335 229 449 186 414 229 b 200 78 269 229 200 183 l 200 -272 l 42 -272 l 42 353 l 196 353 l 196 257 b 390 365 235 318 299 365 "},"ᵗ":{"ha":431,"x_min":0,"x_max":0,"o":"m 282 868 l 282 543 b 351 488 282 504 297 488 l 404 488 l 404 367 b 322 361 375 363 344 361 b 122 525 171 361 122 421 l 122 868 l 26 868 l 26 989 l 122 989 l 122 1171 l 282 1171 l 282 989 l 404 989 l 404 868 "},"⓿":{"ha":1328,"x_min":0,"x_max":0,"o":"m 664 -149 b 0 494 292 -149 0 136 b 664 1138 0 853 292 1138 b 1328 494 1036 1138 1328 853 b 664 -149 1328 136 1036 -149 m 664 169 b 926 494 833 169 926 283 b 664 821 926 706 835 821 b 401 494 493 821 401 706 b 664 169 401 282 494 169 m 664 285 b 544 494 583 285 544 351 b 664 706 544 639 583 706 b 783 494 746 706 783 639 b 664 285 783 351 744 285 "},"❶":{"ha":1328,"x_min":0,"x_max":0,"o":"m 664 -149 b 0 494 292 -149 0 136 b 664 1138 0 853 292 1138 b 1328 494 1036 1138 1328 853 b 664 -149 1328 136 1036 -149 m 758 182 l 758 808 l 643 808 b 471 701 610 717 547 701 l 471 604 l 615 604 l 615 182 "},"❷":{"ha":1328,"x_min":0,"x_max":0,"o":"m 664 -149 b 0 494 292 -149 0 136 b 664 1138 0 853 292 1138 b 1328 494 1036 1138 1328 853 b 664 -149 1328 136 1036 -149 m 904 204 l 904 319 l 582 319 b 679 421 589 367 622 396 l 722 439 b 901 656 843 493 901 553 b 672 843 901 760 821 843 b 433 626 517 843 444 756 l 568 626 b 669 728 569 692 607 728 b 765 647 731 728 765 700 b 665 540 765 601 732 568 l 619 521 b 426 256 471 457 431 358 l 424 204 "},"❸":{"ha":1328,"x_min":0,"x_max":0,"o":"m 664 -149 b 0 494 292 -149 0 136 b 664 1138 0 853 292 1138 b 1328 494 1036 1138 1328 853 b 664 -149 1328 136 1036 -149 m 669 169 b 914 365 817 169 914 247 b 806 517 914 436 874 493 b 897 650 863 542 897 594 b 668 821 897 756 810 821 b 432 628 522 821 439 754 l 564 628 b 668 713 571 686 603 713 b 765 638 729 713 765 685 b 663 557 765 583 732 557 l 618 557 l 618 458 l 661 458 b 775 369 736 458 775 429 b 665 281 775 315 732 281 b 544 396 585 281 546 317 l 413 396 b 669 169 415 249 506 169 "},"❹":{"ha":1328,"x_min":0,"x_max":0,"o":"m 664 -149 b 0 494 292 -149 0 136 b 664 1138 0 853 292 1138 b 1328 494 1036 1138 1328 853 b 664 -149 1328 136 1036 -149 m 813 190 l 813 329 l 896 329 l 896 442 l 813 442 l 813 815 l 669 815 l 376 465 l 376 329 l 674 329 l 674 190 m 679 674 l 679 442 l 482 442 "},"❺":{"ha":1328,"x_min":0,"x_max":0,"o":"m 664 -149 b 0 494 292 -149 0 136 b 664 1138 0 853 292 1138 b 1328 494 1036 1138 1328 853 b 664 -149 1328 136 1036 -149 m 665 164 b 907 382 804 164 907 249 b 694 593 907 499 833 593 b 576 558 646 593 606 581 l 600 686 l 879 686 l 879 801 l 494 801 l 432 438 l 563 438 b 665 496 581 474 618 496 b 778 382 732 496 778 449 b 665 271 778 317 732 271 b 554 351 608 271 567 301 l 422 351 b 665 164 436 238 531 164 "},"❻":{"ha":1328,"x_min":0,"x_max":0,"o":"m 664 -149 b 0 494 292 -149 0 136 b 664 1138 0 853 292 1138 b 1328 494 1036 1138 1328 853 b 664 -149 1328 136 1036 -149 m 664 169 b 906 389 808 169 906 257 b 688 600 906 504 825 600 b 536 538 625 600 571 576 l 536 544 b 667 717 544 667 585 717 b 767 650 718 717 753 693 l 897 650 b 668 821 878 758 793 821 b 408 485 499 821 408 704 b 510 214 408 356 443 263 b 664 169 550 186 606 169 m 664 276 b 554 385 599 276 554 321 b 664 494 554 449 599 494 b 776 385 731 494 776 449 b 664 276 776 322 731 276 "},"❼":{"ha":1328,"x_min":0,"x_max":0,"o":"m 664 -149 b 0 494 292 -149 0 136 b 664 1138 0 853 292 1138 b 1328 494 1036 1138 1328 853 b 664 -149 1328 136 1036 -149 m 692 167 b 889 676 693 410 760 547 l 889 790 l 447 790 l 447 676 l 758 676 b 544 167 640 560 549 375 "},"❽":{"ha":1328,"x_min":0,"x_max":0,"o":"m 664 -149 b 0 494 292 -149 0 136 b 664 1138 0 853 292 1138 b 1328 494 1036 1138 1328 853 b 664 -149 1328 136 1036 -149 m 664 169 b 917 358 818 169 917 244 b 808 513 917 432 881 483 b 888 647 860 543 888 590 b 664 821 888 756 803 821 b 440 647 526 821 440 756 b 521 513 440 590 469 542 b 411 358 449 483 411 432 b 664 169 411 244 510 169 m 664 553 b 563 639 601 553 563 586 b 664 722 563 690 603 722 b 765 639 726 722 765 690 b 664 553 765 586 726 553 m 664 275 b 546 369 589 275 546 310 b 664 467 546 431 590 467 b 782 369 739 467 782 431 b 664 275 782 310 739 275 "},"❾":{"ha":1328,"x_min":0,"x_max":0,"o":"m 664 -149 b 0 494 292 -149 0 136 b 664 1138 0 853 292 1138 b 1328 494 1036 1138 1328 853 b 664 -149 1328 136 1036 -149 m 665 167 b 926 506 832 167 926 279 b 822 778 926 631 893 726 b 668 824 783 807 728 824 b 424 601 525 824 424 736 b 646 389 424 486 507 389 b 788 442 703 389 753 406 l 794 449 b 793 439 794 447 794 444 b 665 275 783 322 743 275 b 568 343 618 275 582 296 l 433 343 b 665 167 451 229 540 167 m 668 497 b 560 606 603 497 560 543 b 668 711 560 667 603 711 b 776 606 733 711 776 667 b 668 497 776 543 732 497 "},"⓪":{"ha":1328,"x_min":0,"x_max":0,"o":"m 664 -149 b 0 494 290 -149 0 136 b 664 1138 0 853 290 1138 b 1328 494 1038 1138 1328 853 b 664 -149 1328 136 1038 -149 m 664 -7 b 1176 494 953 -7 1176 211 b 664 996 1176 778 953 996 b 153 494 376 996 153 778 b 664 -7 153 211 376 -7 m 664 167 b 397 494 486 167 397 289 b 664 825 397 701 486 825 b 931 494 842 825 931 701 b 664 167 931 289 842 167 m 664 288 b 779 494 739 288 779 347 b 664 703 779 643 739 703 b 549 494 590 703 549 644 b 664 288 549 346 590 288 "},"①":{"ha":1328,"x_min":0,"x_max":0,"o":"m 664 1138 b 1328 494 1038 1138 1328 853 b 664 -149 1328 136 1038 -149 b 0 494 290 -149 0 136 b 664 1138 0 853 290 1138 m 664 -7 b 1176 494 953 -7 1176 211 b 664 996 1176 778 953 996 b 153 494 376 996 153 778 b 664 -7 153 211 376 -7 m 760 179 l 615 179 l 615 613 b 469 601 572 603 521 601 l 469 704 b 642 811 544 707 610 718 l 760 811 "},"②":{"ha":1328,"x_min":0,"x_max":0,"o":"m 664 1138 b 1328 494 1038 1138 1328 853 b 664 -149 1328 136 1038 -149 b 0 494 290 -149 0 136 b 664 1138 0 853 290 1138 m 664 -7 b 1176 494 953 -7 1176 211 b 664 996 1176 778 953 996 b 153 494 376 996 153 778 b 664 -7 153 211 376 -7 m 676 422 b 585 331 622 397 594 374 l 907 331 l 907 208 l 419 208 l 422 264 b 617 532 426 368 469 467 l 663 551 b 760 654 731 581 760 611 b 668 732 760 704 729 732 b 571 631 610 732 572 699 l 431 631 b 671 854 438 760 510 854 b 904 663 822 854 904 769 b 724 443 904 558 844 499 l 676 422 "},"③":{"ha":1328,"x_min":0,"x_max":0,"o":"m 664 1138 b 1328 494 1038 1138 1328 853 b 664 -149 1328 136 1038 -149 b 0 494 290 -149 0 136 b 664 1138 0 853 290 1138 m 664 -7 b 1176 494 953 -7 1176 211 b 664 996 1176 778 953 996 b 153 494 376 996 153 778 b 664 -7 153 211 376 -7 m 817 517 b 917 365 879 492 917 436 b 669 167 917 250 826 167 b 408 400 496 167 408 254 l 549 400 b 665 286 550 315 592 286 b 771 371 731 286 771 317 b 661 454 771 432 728 454 l 614 454 l 614 561 l 663 561 b 763 638 724 561 763 582 b 668 708 763 682 726 708 b 568 624 608 708 572 686 l 428 624 b 668 825 433 751 514 825 b 901 650 814 825 901 757 b 817 517 901 593 867 544 "},"④":{"ha":1328,"x_min":0,"x_max":0,"o":"m 664 1138 b 1328 494 1038 1138 1328 853 b 664 -149 1328 136 1038 -149 b 0 494 290 -149 0 136 b 664 1138 0 853 290 1138 m 664 -7 b 1176 494 953 -7 1176 211 b 664 996 1176 778 953 996 b 153 494 376 996 153 778 b 664 -7 153 211 376 -7 m 817 446 l 900 446 l 900 326 l 817 326 l 817 188 l 671 188 l 671 326 l 372 326 l 372 467 l 668 819 l 817 819 m 490 446 l 675 446 l 675 664 "},"⑤":{"ha":1328,"x_min":0,"x_max":0,"o":"m 664 1138 b 1328 494 1038 1138 1328 853 b 664 -149 1328 136 1038 -149 b 0 494 290 -149 0 136 b 664 1138 0 853 290 1138 m 664 -7 b 1176 494 953 -7 1176 211 b 664 996 1176 778 953 996 b 153 494 376 996 153 778 b 664 -7 153 211 376 -7 m 692 597 b 910 382 836 597 910 497 b 664 161 910 243 801 161 b 418 356 535 161 429 231 l 556 356 b 664 275 565 307 606 275 b 772 382 729 275 772 319 b 664 492 772 446 729 492 b 563 435 610 492 576 464 l 426 435 l 489 806 l 881 806 l 881 683 l 601 683 l 581 567 b 692 597 610 586 647 597 "},"⑥":{"ha":1328,"x_min":0,"x_max":0,"o":"m 664 1138 b 1328 494 1038 1138 1328 853 b 664 -149 1328 136 1038 -149 b 0 494 290 -149 0 136 b 664 1138 0 853 290 1138 m 664 -7 b 1176 494 953 -7 1176 211 b 664 996 1176 778 953 996 b 153 494 376 996 153 778 b 664 -7 153 211 376 -7 m 688 604 b 910 389 828 604 910 503 b 664 167 910 250 804 167 b 508 213 606 167 549 183 b 404 485 436 265 404 364 b 667 825 404 706 496 825 b 901 646 796 825 883 760 l 763 646 b 667 714 749 693 713 714 b 540 546 589 714 549 668 b 688 604 576 583 628 604 m 664 282 b 772 385 731 282 772 326 b 664 490 772 444 731 490 b 557 385 599 490 557 444 b 664 282 557 326 599 282 "},"⑦":{"ha":1328,"x_min":0,"x_max":0,"o":"m 664 1138 b 1328 494 1038 1138 1328 853 b 664 -149 1328 136 1038 -149 b 0 494 290 -149 0 136 b 664 1138 0 853 290 1138 m 664 -7 b 1176 494 953 -7 1176 211 b 664 996 1176 778 953 996 b 153 494 376 996 153 778 b 664 -7 153 211 376 -7 m 446 794 l 896 794 l 896 674 b 699 163 765 546 700 408 l 543 163 b 753 672 546 368 635 554 l 446 672 "},"⑧":{"ha":1328,"x_min":0,"x_max":0,"o":"m 664 1138 b 1328 494 1038 1138 1328 853 b 664 -149 1328 136 1038 -149 b 0 494 290 -149 0 136 b 664 1138 0 853 290 1138 m 664 -7 b 1176 494 953 -7 1176 211 b 664 996 1176 778 953 996 b 153 494 376 996 153 778 b 664 -7 153 211 376 -7 m 817 513 b 919 358 888 483 919 428 b 664 167 919 247 826 167 b 408 358 501 167 408 247 b 511 513 408 428 440 483 b 436 647 461 544 436 592 b 664 825 436 754 518 825 b 890 647 808 825 890 754 b 817 513 890 592 865 544 m 664 718 b 567 639 606 718 567 689 b 664 557 567 589 604 557 b 761 639 725 557 761 589 b 664 718 761 689 722 718 m 664 279 b 778 371 739 279 778 315 b 664 464 778 428 738 464 b 550 371 590 464 550 428 b 664 279 550 315 589 279 "},"⑨":{"ha":1328,"x_min":0,"x_max":0,"o":"m 664 1138 b 1328 494 1038 1138 1328 853 b 664 -149 1328 136 1038 -149 b 0 494 290 -149 0 136 b 664 1138 0 853 290 1138 m 664 -7 b 1176 494 953 -7 1176 211 b 664 996 1176 778 953 996 b 153 494 376 996 153 778 b 664 -7 153 211 376 -7 m 824 776 b 928 506 896 724 928 628 b 669 167 928 285 836 167 b 432 344 538 167 449 231 l 569 344 b 669 278 583 299 621 278 b 792 444 744 278 783 324 b 646 386 757 407 706 386 b 422 601 504 386 422 488 b 668 825 422 740 528 825 b 824 776 726 825 783 807 m 668 500 b 775 606 733 500 775 546 b 668 710 775 664 733 710 b 561 606 603 710 561 664 b 668 500 561 546 603 500 "},"₀":{"ha":539,"x_min":0,"x_max":0,"o":"m 269 -285 b 28 14 107 -285 28 -174 b 269 314 28 203 107 314 b 511 14 432 314 511 203 b 269 -285 511 -174 432 -285 m 269 -174 b 374 14 338 -174 374 -121 b 269 203 374 150 338 203 b 165 14 203 203 165 150 b 269 -174 165 -121 203 -174 "},"₁":{"ha":321,"x_min":0,"x_max":0,"o":"m 286 -272 l 153 -272 l 153 111 l 21 111 l 21 204 b 178 301 90 204 149 217 l 286 301 "},"₂":{"ha":482,"x_min":0,"x_max":0,"o":"m 461 -161 l 461 -272 l 17 -272 l 19 -222 b 197 21 25 -128 63 -37 l 239 39 b 328 133 300 65 328 93 b 244 203 328 178 299 203 b 156 111 190 203 156 172 l 26 111 b 246 314 33 228 99 314 b 458 140 383 314 458 236 b 293 -58 458 44 404 -10 l 254 -76 b 168 -161 206 -99 176 -121 "},"₃":{"ha":500,"x_min":0,"x_max":0,"o":"m 388 33 b 479 -104 444 13 479 -39 b 254 -285 479 -208 397 -285 b 17 -72 96 -285 17 -204 l 144 -72 b 251 -176 146 -149 183 -176 b 346 -99 310 -176 346 -147 b 246 -22 346 -43 307 -22 l 204 -22 l 204 74 l 249 74 b 338 143 304 74 338 93 b 253 208 338 185 306 208 b 163 132 199 208 167 188 l 35 132 b 254 314 40 247 113 314 b 465 156 386 314 465 253 b 388 33 465 104 433 58 "},"₄":{"ha":529,"x_min":0,"x_max":0,"o":"m 508 -146 l 432 -146 l 432 -272 l 299 -272 l 299 -146 l 26 -146 l 26 -19 l 297 301 l 432 301 l 432 -37 l 508 -37 m 135 -37 l 303 -37 l 303 163 "},"₅":{"ha":494,"x_min":0,"x_max":0,"o":"m 275 114 b 472 -82 406 114 472 22 b 247 -285 472 -208 374 -285 b 24 -107 131 -285 35 -221 l 150 -107 b 247 -181 160 -150 196 -181 b 347 -82 308 -181 347 -139 b 247 17 347 -25 308 17 b 157 -36 200 17 169 -7 l 32 -36 l 89 301 l 446 301 l 446 190 l 192 190 l 172 85 b 275 114 199 103 233 114 "},"₆":{"ha":510,"x_min":0,"x_max":0,"o":"m 286 114 b 489 -82 414 114 489 21 b 265 -285 489 -208 392 -285 b 124 -243 213 -285 161 -269 b 29 6 58 -194 29 -106 b 268 314 29 206 113 314 b 481 153 385 314 464 256 l 356 153 b 268 213 342 194 310 213 b 151 61 197 213 161 171 b 286 114 185 94 232 114 m 265 -181 b 363 -86 325 -181 363 -139 b 265 11 363 -32 325 11 b 168 -86 206 11 168 -32 b 265 -181 168 -139 206 -181 "},"₇":{"ha":451,"x_min":0,"x_max":0,"o":"m 431 301 l 431 193 b 251 -272 311 76 251 -50 l 110 -272 b 299 190 111 -85 192 82 l 21 190 l 21 301 "},"₈":{"ha":515,"x_min":0,"x_max":0,"o":"m 397 31 b 490 -110 461 3 490 -47 b 257 -285 490 -211 406 -285 b 25 -110 111 -285 25 -211 b 118 31 25 -47 54 3 b 50 153 74 58 50 103 b 257 314 50 250 125 314 b 464 153 389 314 464 250 b 397 31 464 103 440 60 m 257 218 b 169 144 204 218 169 190 b 257 71 169 100 203 71 b 346 144 313 71 346 100 b 257 218 346 190 311 218 m 257 -182 b 361 -99 326 -182 361 -149 b 257 -15 361 -47 324 -15 b 154 -99 192 -15 154 -47 b 257 -182 154 -149 189 -182 "},"₉":{"ha":510,"x_min":0,"x_max":0,"o":"m 386 271 b 482 24 453 222 482 135 b 246 -285 482 -176 397 -285 b 29 -124 126 -285 46 -226 l 156 -124 b 246 -183 168 -165 201 -183 b 358 -32 314 -183 350 -142 b 224 -85 325 -65 278 -85 b 22 111 96 -85 22 8 b 244 314 22 238 118 314 b 386 271 299 314 349 297 m 244 18 b 342 115 304 18 342 61 b 244 210 342 168 304 210 b 147 115 185 210 147 168 b 244 18 147 61 185 18 "},"⁰":{"ha":539,"x_min":0,"x_max":0,"o":"m 269 721 b 28 1019 107 721 28 832 b 269 1319 28 1208 107 1319 b 511 1019 432 1319 511 1208 b 269 721 511 832 432 721 m 269 832 b 374 1019 338 832 374 885 b 269 1208 374 1156 338 1208 b 165 1019 203 1208 165 1156 b 269 832 165 885 203 832 "},"¹":{"ha":321,"x_min":0,"x_max":0,"o":"m 286 733 l 153 733 l 153 1117 l 21 1117 l 21 1210 b 178 1307 90 1210 149 1222 l 286 1307 "},"²":{"ha":482,"x_min":0,"x_max":0,"o":"m 461 844 l 461 733 l 17 733 l 19 783 b 197 1026 25 878 63 968 l 239 1044 b 328 1139 300 1071 328 1099 b 244 1208 328 1183 299 1208 b 156 1117 190 1208 156 1178 l 26 1117 b 246 1319 33 1233 99 1319 b 458 1146 383 1319 458 1242 b 293 947 458 1050 404 996 l 254 929 b 168 844 206 907 176 885 "},"³":{"ha":500,"x_min":0,"x_max":0,"o":"m 388 1039 b 479 901 444 1018 479 967 b 254 721 479 797 397 721 b 17 933 96 721 17 801 l 144 933 b 251 829 146 857 183 829 b 346 907 310 829 346 858 b 246 983 346 963 307 983 l 204 983 l 204 1079 l 249 1079 b 338 1149 304 1079 338 1099 b 253 1214 338 1190 306 1214 b 163 1138 199 1214 167 1193 l 35 1138 b 254 1319 40 1253 113 1319 b 465 1161 386 1319 465 1258 b 388 1039 465 1110 433 1064 "},"⁴":{"ha":529,"x_min":0,"x_max":0,"o":"m 508 860 l 432 860 l 432 733 l 299 733 l 299 860 l 26 860 l 26 986 l 297 1307 l 432 1307 l 432 968 l 508 968 m 135 968 l 303 968 l 303 1168 "},"⁵":{"ha":494,"x_min":0,"x_max":0,"o":"m 275 1119 b 472 924 406 1119 472 1028 b 247 721 472 797 374 721 b 24 899 131 721 35 785 l 150 899 b 247 825 160 856 196 825 b 347 924 308 825 347 867 b 247 1022 347 981 308 1022 b 157 969 200 1022 169 999 l 32 969 l 89 1307 l 446 1307 l 446 1196 l 192 1196 l 172 1090 b 275 1119 199 1108 233 1119 "},"⁶":{"ha":510,"x_min":0,"x_max":0,"o":"m 286 1119 b 489 924 414 1119 489 1026 b 265 721 489 797 392 721 b 124 763 213 721 161 736 b 29 1011 58 811 29 900 b 268 1319 29 1211 113 1319 b 481 1158 385 1319 464 1261 l 356 1158 b 268 1218 342 1200 310 1218 b 151 1067 197 1218 161 1176 b 286 1119 185 1100 232 1119 m 265 825 b 363 919 325 825 363 867 b 265 1017 363 974 325 1017 b 168 919 206 1017 168 974 b 265 825 168 867 206 825 "},"⁷":{"ha":451,"x_min":0,"x_max":0,"o":"m 431 1307 l 431 1199 b 251 733 311 1082 251 956 l 110 733 b 299 1196 111 921 192 1088 l 21 1196 l 21 1307 "},"⁸":{"ha":515,"x_min":0,"x_max":0,"o":"m 397 1036 b 490 896 461 1008 490 958 b 257 721 490 794 406 721 b 25 896 111 721 25 794 b 118 1036 25 958 54 1008 b 50 1158 74 1064 50 1108 b 257 1319 50 1256 125 1319 b 464 1158 389 1319 464 1256 b 397 1036 464 1108 440 1065 m 257 1224 b 169 1150 204 1224 169 1196 b 257 1076 169 1106 203 1076 b 346 1150 313 1076 346 1106 b 257 1224 346 1196 311 1224 m 257 824 b 361 907 326 824 361 857 b 257 990 361 958 324 990 b 154 907 192 990 154 958 b 257 824 154 857 189 824 "},"⁹":{"ha":510,"x_min":0,"x_max":0,"o":"m 386 1276 b 482 1029 453 1228 482 1140 b 246 721 482 829 397 721 b 29 882 126 721 46 779 l 156 882 b 246 822 168 840 201 822 b 358 974 314 822 350 864 b 224 921 325 940 278 921 b 22 1117 96 921 22 1014 b 244 1319 22 1243 118 1319 b 386 1276 299 1319 349 1303 m 244 1024 b 342 1121 304 1024 342 1067 b 244 1215 342 1174 304 1215 b 147 1121 185 1215 147 1174 b 244 1024 147 1067 185 1024 "},"⁄":{"ha":432,"x_min":0,"x_max":0,"o":"m 418 989 l 542 989 l 14 0 l -110 0 "},"½":{"ha":1065,"x_min":0,"x_max":0,"o":"m 153 415 l 153 799 l 21 799 l 21 892 b 178 989 90 892 149 904 l 286 989 l 286 415 m 808 989 l 281 0 l 157 0 l 685 989 m 1044 111 l 1044 0 l 600 0 l 603 50 b 779 293 607 144 646 235 l 822 311 b 911 406 883 338 911 365 b 828 475 911 450 882 475 b 738 383 774 475 739 444 l 610 383 b 829 586 617 500 682 586 b 1042 413 967 586 1042 508 b 876 214 1042 317 988 263 l 838 196 b 751 111 789 174 760 151 "},"⅓":{"ha":1078,"x_min":0,"x_max":0,"o":"m 153 799 l 21 799 l 21 892 b 178 989 90 892 149 904 l 286 989 l 286 415 l 153 415 m 800 989 l 272 0 l 149 0 l 676 989 m 965 306 b 1057 168 1022 283 1057 233 b 831 -12 1057 64 974 -12 b 594 200 674 -12 594 68 l 722 200 b 829 96 724 124 761 96 b 924 174 888 96 924 125 b 824 250 924 229 885 250 l 782 250 l 782 346 l 826 346 b 915 415 881 346 915 365 b 831 481 915 457 883 481 b 740 404 776 481 744 460 l 611 404 b 832 586 618 519 690 586 b 1043 428 964 586 1043 525 b 965 306 1043 376 1011 331 "},"⅔":{"ha":1272,"x_min":0,"x_max":0,"o":"m 461 415 l 17 415 l 19 465 b 197 708 25 560 63 650 l 239 726 b 328 821 300 753 328 781 b 244 890 328 865 299 890 b 156 799 190 890 156 860 l 26 799 b 246 1001 33 915 99 1001 b 458 828 383 1001 458 924 b 293 629 458 732 404 678 l 254 611 b 168 526 206 589 176 567 l 461 526 m 996 989 l 468 0 l 343 0 l 871 989 m 1160 306 b 1253 168 1217 283 1253 233 b 1026 -12 1253 64 1169 -12 b 789 200 869 -12 790 68 l 918 200 b 1024 96 918 124 957 96 b 1118 174 1082 96 1118 125 b 1019 250 1118 229 1081 250 l 978 250 l 978 346 l 1021 346 b 1111 415 1076 346 1111 365 b 1026 481 1111 457 1078 481 b 935 404 972 481 939 460 l 807 404 b 1026 586 813 519 886 586 b 1238 428 1158 586 1238 525 b 1160 306 1238 376 1206 331 "},"¼":{"ha":1008,"x_min":0,"x_max":0,"o":"m 153 799 l 21 799 l 21 892 b 178 989 90 892 149 904 l 286 989 l 286 415 l 153 415 m 800 989 l 272 0 l 149 0 l 676 989 m 988 126 l 913 126 l 913 0 l 779 0 l 779 126 l 507 126 l 507 253 l 776 574 l 913 574 l 913 235 l 988 235 m 615 235 l 782 235 l 782 433 "},"¾":{"ha":1160,"x_min":0,"x_max":0,"o":"m 479 583 b 254 403 479 479 397 403 b 17 615 96 403 17 483 l 144 615 b 251 511 146 539 183 511 b 346 589 310 511 346 540 b 246 665 346 644 307 665 l 204 665 l 204 761 l 249 761 b 338 831 304 761 338 781 b 253 896 338 872 306 896 b 163 819 199 896 167 875 l 35 819 b 254 1001 40 935 113 1001 b 465 843 386 1001 465 940 b 388 721 465 792 433 746 b 479 583 444 700 479 649 m 949 989 l 421 0 l 297 0 l 825 989 m 1139 126 l 1063 126 l 1063 0 l 929 0 l 929 126 l 657 126 l 657 253 l 928 574 l 1063 574 l 1063 235 l 1139 235 m 765 235 l 933 235 l 933 435 "},"⅕":{"ha":1088,"x_min":0,"x_max":0,"o":"m 153 415 l 153 799 l 21 799 l 21 892 b 178 989 90 892 149 904 l 286 989 l 286 415 m 813 989 l 285 0 l 160 0 l 688 989 m 868 386 b 1067 190 999 386 1067 294 b 842 -12 1067 64 968 -12 b 618 165 719 -12 629 56 l 744 165 b 842 92 753 125 785 92 b 940 190 901 92 940 133 b 842 289 940 247 901 289 b 751 236 792 289 763 261 l 626 236 l 683 574 l 1040 574 l 1040 463 l 786 463 l 767 358 b 868 386 793 376 828 386 "},"⅖":{"ha":1260,"x_min":0,"x_max":0,"o":"m 461 415 l 17 415 l 19 465 b 197 708 25 560 63 650 l 239 726 b 328 821 300 753 328 781 b 244 890 328 865 299 890 b 156 799 190 890 156 860 l 26 799 b 246 1001 33 915 99 1001 b 458 828 383 1001 458 924 b 293 629 458 732 404 678 l 254 611 b 168 526 206 589 176 567 l 461 526 m 985 989 l 457 0 l 332 0 l 860 989 m 1042 386 b 1239 190 1172 386 1239 294 b 1014 -12 1239 64 1140 -12 b 790 165 893 -12 801 56 l 918 165 b 1014 92 926 125 957 92 b 1114 190 1075 92 1114 133 b 1014 289 1114 247 1075 289 b 924 236 964 289 936 261 l 799 236 l 857 574 l 1213 574 l 1213 463 l 958 463 l 939 358 b 1042 386 965 376 1000 386 "},"⅗":{"ha":1221,"x_min":0,"x_max":0,"o":"m 479 583 b 254 403 479 479 397 403 b 17 615 96 403 17 483 l 144 615 b 251 511 146 539 183 511 b 346 589 310 511 346 540 b 246 665 346 644 307 665 l 204 665 l 204 761 l 249 761 b 338 831 304 761 338 781 b 253 896 338 872 306 896 b 163 819 199 896 167 875 l 35 819 b 254 1001 40 935 113 1001 b 465 843 386 1001 465 940 b 388 721 465 792 433 746 b 479 583 444 700 479 649 m 949 989 l 421 0 l 297 0 l 825 989 m 1004 386 b 1201 190 1135 386 1201 294 b 976 -12 1201 64 1103 -12 b 753 165 856 -12 764 56 l 881 165 b 976 92 889 125 919 92 b 1076 190 1038 92 1076 133 b 976 289 1076 247 1038 289 b 886 236 926 289 899 261 l 761 236 l 818 574 l 1175 574 l 1175 463 l 921 463 l 901 358 b 1004 386 928 376 963 386 "},"⅘":{"ha":1250,"x_min":0,"x_max":0,"o":"m 299 415 l 299 542 l 26 542 l 26 668 l 297 989 l 432 989 l 432 650 l 508 650 l 508 542 l 432 542 l 432 415 m 976 989 l 449 0 l 325 0 l 853 989 m 135 650 l 303 650 l 303 850 m 1032 386 b 1229 190 1163 386 1229 294 b 1004 -12 1229 64 1131 -12 b 781 165 883 -12 792 56 l 908 165 b 1004 92 917 125 947 92 b 1104 190 1065 92 1104 133 b 1004 289 1104 247 1065 289 b 914 236 954 289 926 261 l 789 236 l 846 574 l 1203 574 l 1203 463 l 949 463 l 929 358 b 1032 386 956 376 990 386 "},"⅙":{"ha":1069,"x_min":0,"x_max":0,"o":"m 153 799 l 21 799 l 21 892 b 178 989 90 892 149 904 l 286 989 l 286 415 l 153 415 m 803 989 l 275 0 l 151 0 l 679 989 m 846 386 b 1049 190 974 386 1049 293 b 825 -12 1049 64 951 -12 b 683 29 772 -12 721 3 b 589 278 618 78 589 167 b 828 586 589 478 672 586 b 1040 425 944 586 1024 528 l 915 425 b 828 485 901 467 869 485 b 711 333 757 485 721 443 b 846 386 744 367 792 386 m 825 92 b 922 186 885 92 922 133 b 825 283 922 240 885 283 b 728 186 765 283 728 240 b 825 92 728 133 765 92 "},"⅚":{"ha":1196,"x_min":0,"x_max":0,"o":"m 472 606 b 247 403 472 479 374 403 b 24 581 131 403 35 467 l 150 581 b 247 507 160 538 196 507 b 347 606 308 507 347 549 b 247 704 347 663 308 704 b 157 651 200 704 169 681 l 32 651 l 89 989 l 446 989 l 446 878 l 192 878 l 172 772 b 275 801 199 790 233 801 b 472 606 406 801 472 710 m 931 989 l 403 0 l 279 0 l 807 989 m 972 386 b 1175 190 1100 386 1175 293 b 951 -12 1175 64 1078 -12 b 810 29 899 -12 847 3 b 715 278 744 78 715 167 b 954 586 715 478 799 586 b 1167 425 1071 586 1150 528 l 1042 425 b 954 485 1028 467 996 485 b 838 333 883 485 847 443 b 972 386 871 367 918 386 m 951 92 b 1049 186 1011 92 1049 133 b 951 283 1049 240 1011 283 b 854 186 892 283 854 240 b 951 92 854 133 892 92 "},"⅛":{"ha":1089,"x_min":0,"x_max":0,"o":"m 153 799 l 21 799 l 21 892 b 178 989 90 892 149 904 l 286 989 l 286 415 l 153 415 m 800 989 l 272 0 l 149 0 l 676 989 m 971 303 b 1064 163 1035 275 1064 225 b 831 -12 1064 61 979 -12 b 599 163 685 -12 599 61 b 692 303 599 225 628 275 b 624 425 647 331 624 375 b 831 586 624 522 699 586 b 1038 425 963 586 1038 522 b 971 303 1038 375 1014 332 m 831 490 b 743 417 778 490 743 463 b 831 343 743 372 776 343 b 919 417 886 343 919 372 b 831 490 919 463 885 490 m 831 90 b 935 174 900 90 935 124 b 831 257 935 225 897 257 b 728 174 765 257 728 225 b 831 90 728 124 764 90 "},"⅜":{"ha":1235,"x_min":0,"x_max":0,"o":"m 479 583 b 254 403 479 479 397 403 b 17 615 96 403 17 483 l 144 615 b 251 511 146 539 183 511 b 346 589 310 511 346 540 b 246 665 346 644 307 665 l 204 665 l 204 761 l 249 761 b 338 831 304 761 338 781 b 253 896 338 872 306 896 b 163 819 199 896 167 875 l 35 819 b 254 1001 40 935 113 1001 b 465 843 386 1001 465 940 b 388 721 465 792 433 746 b 479 583 444 700 479 649 m 946 989 l 418 0 l 293 0 l 821 989 m 1115 303 b 1210 163 1181 275 1210 225 b 976 -12 1210 61 1124 -12 b 743 163 829 -12 743 61 b 838 303 743 225 774 275 b 769 425 793 331 769 375 b 976 586 769 522 844 586 b 1183 425 1108 586 1183 522 b 1115 303 1183 375 1160 331 m 976 490 b 888 417 924 490 888 463 b 976 343 888 372 922 343 b 1065 417 1032 343 1065 372 b 976 490 1065 463 1031 490 m 976 90 b 1079 174 1044 90 1079 124 b 976 257 1079 225 1043 257 b 874 174 911 257 874 225 b 976 90 874 124 908 90 "},"⅝":{"ha":1221,"x_min":0,"x_max":0,"o":"m 472 606 b 247 403 472 479 374 403 b 24 581 131 403 35 467 l 150 581 b 247 507 160 538 196 507 b 347 606 308 507 347 549 b 247 704 347 663 308 704 b 157 651 200 704 169 681 l 32 651 l 89 989 l 446 989 l 446 878 l 192 878 l 172 772 b 275 801 199 790 233 801 b 472 606 406 801 472 710 m 932 989 l 404 0 l 281 0 l 808 989 m 1101 303 b 1196 163 1167 275 1196 225 b 963 -12 1196 61 1110 -12 b 731 163 815 -12 731 61 b 824 303 731 225 760 275 b 756 425 779 331 756 375 b 963 586 756 522 831 586 b 1169 425 1094 586 1169 522 b 1101 303 1169 375 1146 331 m 963 490 b 875 417 910 490 875 463 b 963 343 875 372 908 343 b 1051 417 1018 343 1051 372 b 963 490 1051 463 1017 490 m 963 90 b 1067 174 1031 90 1067 124 b 963 257 1067 225 1029 257 b 860 174 897 257 860 225 b 963 90 860 124 894 90 "},"⅞":{"ha":1086,"x_min":0,"x_max":0,"o":"m 110 415 b 299 878 111 603 192 769 l 21 878 l 21 989 l 431 989 l 431 881 b 251 415 311 764 251 638 m 794 989 l 267 0 l 143 0 l 671 989 m 968 303 b 1063 163 1033 275 1063 225 b 829 -12 1063 61 976 -12 b 596 163 682 -12 596 61 b 690 303 596 225 625 275 b 622 425 646 331 622 375 b 829 586 622 522 697 586 b 1035 425 960 586 1035 522 b 968 303 1035 375 1011 332 m 829 490 b 740 417 775 490 740 463 b 829 343 740 372 774 343 b 917 417 883 343 917 372 b 829 490 917 463 882 490 m 829 90 b 932 174 897 90 932 124 b 829 257 932 225 894 257 b 726 174 763 257 726 225 b 829 90 726 124 761 90 "},"…":{"ha":1001,"x_min":0,"x_max":0,"o":"m 53 199 l 257 199 l 257 0 l 53 0 m 403 199 l 607 199 l 607 0 l 403 0 m 746 199 l 949 199 l 949 0 l 746 0 "},"¡":{"ha":310,"x_min":0,"x_max":0,"o":"m 53 814 l 257 814 l 257 615 l 53 615 m 61 79 l 104 513 l 203 513 l 249 79 l 249 -175 l 61 -175 "},"¿":{"ha":738,"x_min":0,"x_max":0,"o":"m 281 814 l 483 814 l 483 615 l 281 615 m 363 -197 b 32 65 164 -197 32 -106 b 178 308 32 165 86 240 b 278 406 221 342 258 371 b 297 513 296 435 297 460 l 467 513 b 436 343 467 419 460 389 b 329 231 414 297 372 264 b 219 79 274 189 219 146 b 365 -47 219 3 263 -47 b 532 131 474 -47 526 -1 l 708 131 b 363 -197 708 -92 581 -197 "},"·":{"ha":310,"x_min":0,"x_max":0,"o":"m 53 594 l 257 594 l 257 394 l 53 394 "},"•":{"ha":514,"x_min":0,"x_max":0,"o":"m 81 567 l 433 567 l 433 224 l 81 224 "},"‽":{"ha":738,"x_min":0,"x_max":0,"o":"m 375 1011 b 706 749 574 1011 706 919 b 561 506 706 649 651 574 b 460 408 517 472 479 443 b 440 301 442 379 440 354 l 281 301 l 276 590 l 311 775 l 424 775 l 447 614 b 518 735 486 647 518 683 b 372 861 518 811 475 861 b 206 683 265 861 211 815 l 29 683 b 375 1011 29 906 157 1011 m 258 199 l 461 199 l 461 0 l 258 0 "},"⸘":{"ha":738,"x_min":0,"x_max":0,"o":"m 479 615 l 276 615 l 276 814 l 479 814 m 708 131 b 363 -197 708 -92 581 -197 b 32 65 164 -197 32 -106 b 178 308 32 165 86 240 b 278 406 221 342 258 371 b 297 513 296 435 297 460 l 457 513 l 461 224 l 426 39 l 314 39 l 290 200 b 219 79 251 167 219 131 b 365 -47 219 3 263 -47 b 532 131 474 -47 526 -1 "},"₍":{"ha":240,"x_min":0,"x_max":0,"o":"m 118 -382 b 36 13 60 -250 36 -147 b 118 410 36 175 60 279 l 240 410 b 160 13 190 292 160 167 b 240 -382 160 -132 190 -256 l 118 -382 "},"₎":{"ha":240,"x_min":0,"x_max":0,"o":"m 0 -383 b 82 11 51 -257 82 -133 b 0 410 82 167 50 292 l 122 410 b 206 11 181 278 206 175 b 122 -383 206 -147 181 -251 l 0 -383 "},"⁽":{"ha":240,"x_min":0,"x_max":0,"o":"m 118 625 b 36 1019 60 757 36 861 b 118 1418 36 1183 60 1286 l 240 1418 b 160 1019 190 1300 160 1175 b 240 625 160 875 190 751 l 118 625 "},"⁾":{"ha":240,"x_min":0,"x_max":0,"o":"m 0 625 b 82 1019 51 751 82 875 b 0 1418 82 1175 50 1300 l 122 1418 b 206 1019 181 1286 206 1183 b 122 625 206 861 181 757 l 0 625 "},"­":{"ha":506,"x_min":0,"x_max":0,"o":"m 46 465 l 458 465 l 458 315 l 46 315 "},"–":{"ha":733,"x_min":0,"x_max":0,"o":"m 46 465 l 688 465 l 688 315 l 46 315 "},"—":{"ha":1350,"x_min":0,"x_max":0,"o":"m 46 465 l 1304 465 l 1304 315 l 46 315 "},"‑":{"ha":506,"x_min":0,"x_max":0,"o":"m 46 465 l 458 465 l 458 315 l 46 315 "},"‚":{"ha":297,"x_min":0,"x_max":0,"o":"m 244 186 l 244 -15 b 76 -207 244 -144 185 -201 l 53 -207 l 53 -111 l 75 -111 b 135 -22 117 -108 135 -79 l 135 0 l 53 0 l 53 186 "},"„":{"ha":549,"x_min":0,"x_max":0,"o":"m 53 186 l 244 186 l 244 -15 b 76 -207 244 -144 185 -201 l 53 -207 l 53 -111 l 75 -111 b 135 -22 117 -108 135 -79 l 135 0 l 53 0 m 496 186 l 496 -15 b 328 -207 496 -144 436 -201 l 306 -207 l 306 -111 l 328 -111 b 388 -22 369 -108 388 -79 l 388 0 l 306 0 l 306 186 "},"“":{"ha":549,"x_min":0,"x_max":0,"o":"m 53 796 b 221 988 53 926 113 983 l 244 989 l 244 893 l 222 893 b 163 804 181 889 163 860 l 163 782 l 244 782 l 244 596 l 53 596 l 53 796 m 474 893 b 414 804 432 889 414 860 l 414 782 l 496 782 l 496 596 l 306 596 l 306 796 b 472 988 306 926 365 983 l 496 989 l 496 893 l 474 893 "},"”":{"ha":549,"x_min":0,"x_max":0,"o":"m 53 989 l 244 989 l 244 788 b 76 596 244 658 185 601 l 53 596 l 53 692 l 75 692 b 135 781 117 694 135 724 l 135 803 l 53 803 m 496 989 l 496 788 b 328 596 496 658 436 601 l 306 596 l 306 692 l 328 692 b 388 781 369 694 388 724 l 388 803 l 306 803 l 306 989 "},"‘":{"ha":297,"x_min":0,"x_max":0,"o":"m 222 893 b 163 804 181 890 163 861 l 163 782 l 244 782 l 244 596 l 53 596 l 53 797 b 221 989 53 926 113 985 l 244 990 l 244 894 l 222 893 "},"’":{"ha":297,"x_min":0,"x_max":0,"o":"m 244 989 l 244 788 b 76 596 244 657 185 600 l 53 594 l 53 690 l 75 692 b 135 781 117 694 135 724 l 135 803 l 53 803 l 53 989 "},"«":{"ha":683,"x_min":0,"x_max":0,"o":"m 81 453 l 317 646 l 317 474 l 181 363 l 317 251 l 317 79 l 81 272 m 601 474 l 465 363 l 601 251 l 601 79 l 365 272 l 365 453 l 601 646 "},"»":{"ha":683,"x_min":0,"x_max":0,"o":"m 81 646 l 317 453 l 317 272 l 81 79 l 81 251 l 217 363 l 81 474 m 601 453 l 601 272 l 365 79 l 365 251 l 501 363 l 365 474 l 365 646 "},"‹":{"ha":399,"x_min":0,"x_max":0,"o":"m 317 474 l 181 363 l 317 251 l 317 79 l 81 272 l 81 453 l 317 646 "},"›":{"ha":399,"x_min":0,"x_max":0,"o":"m 317 453 l 317 272 l 81 79 l 81 251 l 217 363 l 81 474 l 81 646 "}," ":{"ha":300,"x_min":0,"x_max":0,"o":""}," ":{"ha":317,"x_min":0,"x_max":0,"o":""},"﻿":{"ha":0,"x_min":0,"x_max":0,"o":""},"₿":{"ha":915,"x_min":0,"x_max":0,"o":"m 888 283 b 585 1 888 125 790 14 l 585 -161 l 482 -161 l 482 0 l 374 0 l 374 -161 l 271 -161 l 271 0 l 81 0 l 81 989 l 271 989 l 271 1150 l 374 1150 l 374 989 l 482 989 l 482 1150 l 585 1150 l 585 986 b 847 733 771 968 847 856 b 715 521 847 636 797 563 b 888 283 832 478 888 382 m 268 835 l 268 576 l 514 576 b 661 710 611 576 661 628 b 514 835 661 783 611 835 m 533 156 b 696 292 639 156 696 206 b 533 429 696 385 635 429 l 268 429 l 268 156 l 533 156 "},"¢":{"ha":754,"x_min":0,"x_max":0,"o":"m 729 267 b 442 -14 711 107 600 4 l 442 -161 l 344 -161 l 344 -14 b 39 358 160 7 39 147 b 344 731 39 569 158 710 l 344 872 l 442 872 l 442 731 b 726 458 601 714 707 611 l 551 458 b 442 582 539 528 496 568 l 442 135 b 554 267 499 150 543 192 l 729 267 m 218 358 b 344 135 218 228 269 156 l 344 582 b 218 358 268 561 218 489 "},"¤":{"ha":811,"x_min":0,"x_max":0,"o":"m 738 494 b 668 294 738 419 713 349 l 772 190 l 697 115 l 590 222 b 410 171 539 190 478 171 b 225 226 340 171 276 192 l 114 115 l 39 190 l 147 299 b 82 494 106 353 82 421 b 147 690 82 568 106 636 l 39 799 l 114 874 l 225 763 b 410 818 276 797 340 818 b 590 767 478 818 539 799 l 697 874 l 772 799 l 668 694 b 738 494 713 640 738 569 m 236 494 b 410 322 236 394 311 322 b 583 494 508 322 583 394 b 410 667 583 594 508 667 b 236 494 311 667 236 594 "},"€":{"ha":1001,"x_min":0,"x_max":0,"o":"m 965 343 b 549 -24 932 138 794 -24 b 119 350 322 -24 164 118 l 0 350 l 0 450 l 107 450 b 106 494 106 464 106 479 b 108 554 106 515 107 535 l 0 554 l 0 656 l 122 656 b 546 1011 171 875 322 1011 b 963 663 803 1011 925 844 l 775 663 b 544 850 743 778 672 850 b 314 656 421 850 346 781 l 581 656 l 581 554 l 299 554 b 297 497 297 536 297 517 b 299 450 297 481 297 465 l 581 450 l 581 350 l 311 350 b 547 138 342 217 417 138 b 782 343 679 138 756 208 "},"ƒ":{"ha":700,"x_min":0,"x_max":0,"o":"m 608 854 b 503 747 540 854 514 826 l 476 567 l 618 567 l 618 433 l 457 433 l 385 -50 b 132 -287 361 -212 293 -287 b 32 -282 100 -287 64 -286 l 32 -142 b 92 -146 57 -144 74 -146 b 199 -39 161 -146 186 -118 l 268 433 l 136 433 l 136 567 l 289 567 l 317 758 b 568 996 340 919 407 996 b 669 990 600 996 638 994 l 669 849 b 608 854 644 853 626 854 "},"₺":{"ha":851,"x_min":0,"x_max":0,"o":"m 815 517 b 286 0 815 206 611 0 l 99 0 l 99 429 l 0 386 l 0 493 l 99 536 l 99 635 l 0 592 l 0 699 l 99 742 l 99 989 l 286 989 l 286 824 l 535 933 l 535 826 l 286 717 l 286 618 l 535 728 l 535 621 l 286 511 l 286 165 b 622 517 496 165 622 299 "},"₼":{"ha":1047,"x_min":0,"x_max":0,"o":"m 629 743 b 979 394 864 743 979 618 l 979 0 l 797 0 l 797 399 b 614 586 797 522 744 583 l 614 115 l 431 115 l 431 586 b 251 399 304 585 251 524 l 251 0 l 67 0 l 67 394 b 415 743 67 618 188 743 l 431 743 l 431 989 l 614 989 l 614 743 l 629 743 "},"₹":{"ha":868,"x_min":0,"x_max":0,"o":"m 831 889 l 656 889 b 728 744 694 853 719 804 l 831 744 l 831 646 l 728 646 b 378 399 704 486 563 399 l 332 399 l 738 0 l 497 0 l 81 411 l 81 526 l 338 526 b 538 646 446 526 517 567 l 81 646 l 81 744 l 538 744 b 338 865 518 824 446 865 l 81 865 l 81 989 l 831 989 "},"£":{"ha":783,"x_min":0,"x_max":0,"o":"m 381 354 b 286 168 381 275 339 214 l 756 168 l 756 0 l 51 0 l 51 153 b 194 346 147 201 194 256 b 186 406 194 367 192 386 l 29 406 l 29 507 l 147 507 b 140 522 146 513 143 517 b 78 735 110 588 78 657 b 410 1011 78 904 211 1011 b 756 694 646 1011 747 883 l 574 694 b 407 857 568 793 528 857 b 268 735 318 857 268 811 b 317 576 268 689 290 635 b 346 507 326 554 338 531 l 629 507 l 629 406 l 376 406 b 381 354 379 389 381 371 "},"₸":{"ha":867,"x_min":0,"x_max":0,"o":"m 844 989 l 844 821 l 22 821 l 22 989 m 22 689 l 844 689 l 844 521 l 528 521 l 528 0 l 339 0 l 339 521 l 22 521 "},"¥":{"ha":949,"x_min":0,"x_max":0,"o":"m 621 472 l 793 472 l 793 371 l 569 371 l 569 268 l 793 268 l 793 167 l 569 167 l 569 0 l 382 0 l 382 167 l 156 167 l 156 268 l 382 268 l 382 371 l 156 371 l 156 472 l 331 472 l 8 989 l 221 989 l 331 810 b 479 560 381 726 432 643 b 625 811 526 644 576 729 l 733 989 l 940 989 "},"∙":{"ha":732,"x_min":0,"x_max":0,"o":"m 244 614 l 488 614 l 488 375 l 244 375 "},"∕":{"ha":733,"x_min":0,"x_max":0,"o":"m 513 989 l 688 989 l 221 0 l 46 0 "},"−":{"ha":733,"x_min":0,"x_max":0,"o":"m 46 569 l 688 569 l 688 419 l 46 419 "},"×":{"ha":733,"x_min":0,"x_max":0,"o":"m 474 496 l 667 303 l 561 197 l 368 390 l 174 197 l 68 303 l 261 496 l 68 688 l 174 793 l 368 600 l 561 793 l 667 688 "},"÷":{"ha":733,"x_min":0,"x_max":0,"o":"m 286 828 l 449 828 l 449 671 l 286 671 m 46 569 l 688 569 l 688 419 l 46 419 m 286 318 l 449 318 l 449 161 l 286 161 "},"≠":{"ha":733,"x_min":0,"x_max":0,"o":"m 453 563 l 404 426 l 688 426 l 688 293 l 357 293 l 301 139 l 190 176 l 232 293 l 46 293 l 46 426 l 279 426 l 329 563 l 46 563 l 46 696 l 376 696 l 432 851 l 542 813 l 500 696 l 688 696 l 688 563 "},"≥":{"ha":733,"x_min":0,"x_max":0,"o":"m 688 601 l 688 440 l 46 203 l 46 358 l 174 408 b 513 521 286 447 399 486 b 174 633 399 556 286 594 l 46 683 l 46 840 m 46 138 l 688 138 l 688 0 l 46 0 "},"≤":{"ha":733,"x_min":0,"x_max":0,"o":"m 560 633 b 221 521 447 594 335 556 b 560 408 335 486 447 447 l 688 358 l 688 203 l 46 440 l 46 601 l 688 840 l 688 683 m 46 138 l 688 138 l 688 0 l 46 0 "},"±":{"ha":733,"x_min":0,"x_max":0,"o":"m 688 606 l 688 456 l 447 456 l 447 253 l 285 253 l 285 456 l 46 456 l 46 606 l 285 606 l 285 810 l 447 810 l 447 606 m 46 150 l 688 150 l 688 0 l 46 0 "},"≈":{"ha":733,"x_min":0,"x_max":0,"o":"m 46 518 b 238 735 51 649 121 735 b 392 696 292 735 346 714 b 492 665 431 679 464 665 b 565 739 529 665 557 683 l 688 739 b 497 522 682 610 613 522 b 346 563 442 522 392 543 b 242 592 308 578 272 592 b 168 518 206 592 178 576 l 46 518 m 46 238 b 238 454 51 368 121 454 b 392 415 292 454 346 433 b 492 385 431 399 464 385 b 565 458 529 385 557 403 l 688 458 b 497 242 682 329 613 242 b 346 282 442 242 392 263 b 242 311 308 297 272 311 b 168 238 206 311 178 296 l 46 238 "},"¬":{"ha":733,"x_min":0,"x_max":0,"o":"m 688 611 l 688 222 l 525 222 l 525 461 l 46 461 l 46 611 "},"∞":{"ha":1138,"x_min":0,"x_max":0,"o":"m 832 772 b 1092 494 990 772 1092 658 b 832 217 1092 331 990 217 b 569 375 728 217 639 275 b 306 217 499 275 411 217 b 46 494 147 217 46 331 b 306 772 46 658 147 772 b 569 613 411 772 499 713 b 832 772 639 713 728 772 m 313 349 b 493 494 379 349 439 404 b 313 640 438 586 375 640 b 193 494 246 640 193 585 b 313 349 193 404 246 349 m 826 349 b 944 494 892 349 944 404 b 826 640 944 585 892 640 b 646 494 763 640 701 586 b 826 349 700 404 760 349 "},"∫":{"ha":568,"x_min":0,"x_max":0,"o":"m 136 -279 b 46 -272 108 -279 75 -276 l 46 -135 b 107 -139 65 -137 85 -139 b 197 -53 169 -139 197 -108 l 197 772 b 432 996 197 900 261 996 b 522 989 461 996 493 993 l 522 851 b 463 856 503 854 483 856 b 371 769 399 856 371 825 l 371 -56 b 136 -279 371 -183 308 -279 "},"Ω":{"ha":1081,"x_min":0,"x_max":0,"o":"m 39 164 l 254 164 l 254 167 b 50 554 121 258 50 394 b 539 1010 50 833 242 1010 b 1029 554 839 1010 1029 833 b 826 167 1029 394 960 258 l 826 164 l 1042 164 l 1042 0 l 606 0 l 606 146 b 839 526 763 224 839 364 b 542 846 839 744 718 846 b 240 526 365 846 240 744 b 478 146 240 364 319 224 l 478 0 l 39 0 "},"∆":{"ha":940,"x_min":0,"x_max":0,"o":"m 906 160 l 906 0 l 35 0 l 35 160 l 357 989 l 576 989 m 465 821 b 346 485 426 706 381 574 l 226 165 l 708 165 l 588 485 b 465 821 553 575 506 706 "},"∏":{"ha":996,"x_min":0,"x_max":0,"o":"m 915 989 l 915 -272 l 728 -272 l 728 822 l 268 822 l 268 -272 l 81 -272 l 81 989 "},"∑":{"ha":842,"x_min":0,"x_max":0,"o":"m 807 -107 l 807 -274 l 35 -274 l 35 -122 l 435 358 l 35 839 l 35 990 l 793 990 l 793 824 l 561 824 b 275 826 465 824 371 824 b 454 611 336 754 394 685 l 617 411 l 617 306 l 454 106 b 275 -110 396 33 336 -37 b 561 -107 371 -107 465 -107 "},"√":{"ha":1008,"x_min":0,"x_max":0,"o":"m 999 989 l 578 -272 l 357 -272 l 164 276 l 18 276 l 18 442 l 293 442 l 353 264 b 464 -93 389 150 426 26 b 575 265 501 26 539 153 l 811 989 "},"µ":{"ha":786,"x_min":0,"x_max":0,"o":"m 715 717 l 715 0 l 546 0 l 546 104 b 326 -17 497 31 422 -17 b 243 3 296 -17 268 -10 l 243 -272 l 71 -272 l 71 717 l 246 717 l 246 271 b 381 135 246 179 292 135 b 540 315 458 135 540 188 l 540 717 "},"∂":{"ha":897,"x_min":0,"x_max":0,"o":"m 532 1011 b 839 686 726 1011 839 894 b 588 51 839 428 757 172 b 356 -22 524 6 446 -22 b 50 263 181 -22 50 85 b 429 650 50 476 219 650 b 650 529 535 650 614 604 b 665 682 658 583 665 640 b 515 867 665 810 615 867 b 340 736 443 867 376 825 l 161 736 b 532 1011 221 911 357 1011 m 367 129 b 581 369 488 129 581 247 b 449 507 581 451 533 507 b 235 267 333 507 235 394 b 367 129 235 185 283 129 "},"‰":{"ha":1790,"x_min":0,"x_max":0,"o":"m 269 403 b 28 701 107 403 28 514 b 269 1001 28 890 107 1001 b 511 701 432 1001 511 890 b 269 403 511 514 432 403 m 826 989 l 953 989 l 425 0 l 299 0 m 269 514 b 374 701 338 514 374 567 b 269 890 374 838 338 890 b 165 701 203 890 165 838 b 269 514 165 567 203 514 m 982 -12 b 740 286 819 -12 740 99 b 982 586 740 475 819 586 b 1224 286 1143 586 1224 475 b 982 -12 1224 99 1143 -12 m 1521 -12 b 1279 286 1358 -12 1279 99 b 1521 586 1279 475 1358 586 b 1763 286 1683 586 1763 475 b 1521 -12 1763 99 1683 -12 m 982 99 b 1086 286 1049 99 1086 151 b 982 475 1086 422 1049 475 b 876 286 914 475 876 422 b 982 99 876 151 914 99 m 1521 99 b 1625 286 1588 99 1625 151 b 1521 475 1625 422 1588 475 b 1415 286 1454 475 1415 422 b 1521 99 1415 151 1454 99 "},"₌":{"ha":429,"x_min":0,"x_max":0,"o":"m 25 149 l 404 149 l 404 47 l 25 47 m 25 -19 l 404 -19 l 404 -121 l 25 -121 "},"₋":{"ha":429,"x_min":0,"x_max":0,"o":"m 25 65 l 404 65 l 404 -39 l 25 -39 "},"⁻":{"ha":429,"x_min":0,"x_max":0,"o":"m 25 1071 l 404 1071 l 404 967 l 25 967 "},"₊":{"ha":429,"x_min":0,"x_max":0,"o":"m 404 -39 l 272 -39 l 272 -172 l 156 -172 l 156 -39 l 25 -39 l 25 65 l 156 65 l 156 200 l 272 200 l 272 65 l 404 65 "},"⁺":{"ha":429,"x_min":0,"x_max":0,"o":"m 404 967 l 272 967 l 272 833 l 156 833 l 156 967 l 25 967 l 25 1071 l 156 1071 l 156 1206 l 272 1206 l 272 1071 l 404 1071 "},"↑":{"ha":1328,"x_min":0,"x_max":0,"o":"m 1158 638 l 1158 422 l 929 596 b 753 733 863 646 808 688 l 753 0 l 572 0 l 572 731 b 399 596 518 688 464 644 l 169 422 l 169 638 l 664 1011 "},"↗":{"ha":1328,"x_min":0,"x_max":0,"o":"m 1117 929 l 1117 192 l 943 32 l 943 397 b 946 639 943 478 943 558 l 336 49 l 215 178 l 825 768 b 582 765 743 765 663 765 l 199 765 l 356 929 "},"→":{"ha":1328,"x_min":0,"x_max":0,"o":"m 1169 494 l 796 0 l 574 0 l 747 229 b 890 413 799 299 843 356 l 158 413 l 158 578 l 889 578 b 747 760 842 635 797 692 l 574 989 l 796 989 "},"↘":{"ha":1328,"x_min":0,"x_max":0,"o":"m 1117 797 l 1117 60 l 356 60 l 199 225 l 582 225 b 824 222 663 225 743 225 l 215 811 l 336 942 l 946 350 b 943 593 943 431 943 513 l 943 957 "},"↓":{"ha":1328,"x_min":0,"x_max":0,"o":"m 1158 567 l 1158 351 l 664 -22 l 169 351 l 169 567 l 399 393 b 572 258 464 344 518 301 l 572 989 l 753 989 l 753 256 b 929 393 808 301 863 343 "},"↙":{"ha":1328,"x_min":0,"x_max":0,"o":"m 1129 217 l 972 53 l 211 53 l 211 790 l 385 949 l 385 585 b 382 343 385 504 385 424 l 992 933 l 1113 804 l 503 214 b 746 217 585 217 665 217 "},"←":{"ha":1328,"x_min":0,"x_max":0,"o":"m 1169 413 l 438 413 b 581 229 485 356 529 299 l 754 0 l 532 0 l 158 494 l 532 989 l 754 989 l 581 760 b 439 578 531 692 486 635 l 1169 578 "},"↖":{"ha":1328,"x_min":0,"x_max":0,"o":"m 746 765 b 503 768 665 765 585 765 l 1113 178 l 992 49 l 382 639 b 385 397 385 558 385 478 l 385 32 l 211 192 l 211 929 l 972 929 l 1129 765 l 746 765 "},"↔":{"ha":1328,"x_min":0,"x_max":0,"o":"m 1328 494 l 985 0 l 781 0 l 940 226 b 1072 414 986 293 1028 354 l 256 414 b 388 226 300 354 342 293 l 544 0 l 344 0 l 0 494 l 343 989 l 546 989 l 388 760 l 258 578 l 1069 578 l 940 758 l 781 989 l 985 989 "},"↕":{"ha":1328,"x_min":0,"x_max":0,"o":"m 753 58 b 929 196 808 104 863 146 l 1158 369 l 1158 154 l 664 -219 l 169 154 l 169 369 l 399 196 b 572 61 464 147 518 104 l 572 928 b 399 793 518 885 464 842 l 169 619 l 169 835 l 664 1208 l 1158 835 l 1158 619 l 929 793 b 753 931 863 843 808 885 l 753 58 "},"●":{"ha":1328,"x_min":0,"x_max":0,"o":"m 664 -149 b 0 494 292 -149 0 136 b 664 1138 0 853 292 1138 b 1328 494 1036 1138 1328 853 b 664 -149 1328 136 1036 -149 "},"○":{"ha":1328,"x_min":0,"x_max":0,"o":"m 664 -149 b 0 494 290 -149 0 136 b 664 1138 0 853 290 1138 b 1328 494 1038 1138 1328 853 b 664 -149 1328 136 1038 -149 m 664 -7 b 1176 494 953 -7 1176 211 b 664 996 1176 778 953 996 b 153 494 376 996 153 778 b 664 -7 153 211 376 -7 "},"◊":{"ha":828,"x_min":0,"x_max":0,"o":"m 799 494 l 510 0 l 318 0 l 29 494 l 318 989 l 510 989 m 608 494 l 414 831 l 219 494 l 414 158 "},"■":{"ha":1328,"x_min":0,"x_max":0,"o":"m 33 1111 l 1294 1111 l 1294 -122 l 33 -122 "},"□":{"ha":1328,"x_min":0,"x_max":0,"o":"m 33 1111 l 1294 1111 l 1294 -122 l 33 -122 m 1142 15 l 1142 974 l 186 974 l 186 15 "},"":{"ha":1096,"x_min":0,"x_max":0,"o":"m 497 869 b 436 929 497 910 476 929 b 365 850 403 929 365 906 l 365 671 l 289 671 l 289 1110 l 365 1110 l 365 946 b 463 997 386 975 418 997 b 574 882 529 997 574 958 l 574 671 l 497 671 l 497 869 m 1010 671 l 933 671 l 933 1110 l 1010 1110 m 754 664 b 597 831 661 664 597 728 b 754 997 597 931 660 997 b 911 825 851 997 911 926 l 911 807 l 672 807 b 756 724 678 750 711 724 b 828 769 793 724 817 742 l 903 769 b 754 664 888 706 832 664 m 753 936 b 674 861 713 936 682 913 l 833 861 b 753 936 828 907 799 936 m 1010 476 l 771 476 b 854 394 776 419 810 394 b 926 440 892 394 915 411 l 1001 440 b 853 335 986 375 931 335 b 696 501 760 335 696 399 b 853 668 696 601 757 668 b 1010 496 950 668 1010 596 m 507 339 l 389 657 l 471 657 l 513 536 b 553 408 526 492 542 450 b 594 536 565 450 581 492 l 635 657 l 715 657 l 596 339 m 851 607 b 772 531 810 607 779 583 l 932 531 b 851 607 926 576 899 607 m 371 433 l 371 360 l 294 360 l 294 433 m 208 317 l 271 317 l 271 258 l 208 258 l 208 86 b 244 58 208 65 218 58 l 271 58 l 271 -1 b 231 -3 257 -3 243 -3 b 131 78 163 -3 131 19 l 131 258 l 81 258 l 81 317 l 131 317 l 131 410 l 208 410 m 933 0 b 928 38 931 10 928 24 b 825 -7 907 10 872 -7 b 713 89 758 -7 713 26 b 833 188 713 142 743 179 l 881 192 b 926 228 914 194 926 206 b 869 268 926 253 914 268 b 803 218 825 268 807 256 l 726 218 b 869 326 732 285 771 326 b 1003 229 964 326 1003 288 l 1003 72 b 1013 0 1003 47 1007 14 m 551 56 b 622 118 586 56 615 75 l 700 118 b 551 -8 692 39 632 -8 b 394 158 456 -8 394 56 b 551 325 394 260 456 325 b 699 203 633 325 689 276 l 621 203 b 551 260 614 242 585 260 b 472 158 504 260 472 228 b 551 56 472 88 506 56 m 294 318 l 372 318 l 372 0 l 294 0 m 844 49 b 926 126 886 49 926 69 l 926 156 b 890 142 918 147 907 144 l 849 136 b 792 92 806 131 792 117 b 844 49 792 65 808 49 "},"¶":{"ha":790,"x_min":0,"x_max":0,"o":"m 343 504 b 39 743 164 504 39 588 b 367 989 39 911 157 989 l 710 989 l 710 0 l 569 0 l 569 854 l 482 854 l 482 0 l 343 0 "},"§":{"ha":819,"x_min":0,"x_max":0,"o":"m 790 300 b 625 94 790 207 731 136 b 706 -64 676 50 706 3 b 415 -286 706 -204 603 -286 b 119 -44 214 -286 124 -190 l 285 -44 b 418 -161 289 -136 344 -161 b 533 -72 496 -161 533 -128 b 417 53 533 -18 483 13 l 272 138 b 32 425 126 222 32 297 b 197 631 32 518 92 589 b 118 789 147 674 118 722 b 407 1011 118 929 221 1011 b 704 768 610 1011 699 915 l 539 768 b 406 886 535 860 479 886 b 290 797 328 886 290 851 b 407 672 290 743 340 711 l 550 588 b 790 300 697 503 790 428 m 481 190 b 507 175 489 185 499 181 b 619 297 586 197 619 247 b 489 449 619 358 572 399 l 343 533 l 315 550 b 204 426 236 528 204 476 b 335 276 204 367 251 326 l 481 190 "},"©":{"ha":1129,"x_min":0,"x_max":0,"o":"m 564 -22 b 39 494 263 -22 39 207 b 564 1013 39 783 263 1013 b 1089 494 867 1013 1089 783 b 564 -22 1089 207 867 -22 m 564 100 b 958 494 794 100 958 272 b 564 889 958 717 794 889 b 172 494 336 889 172 717 b 564 100 172 272 336 100 m 568 201 b 296 494 404 201 296 317 b 568 788 296 674 403 788 b 826 568 715 788 813 701 l 688 568 b 568 672 678 638 631 672 b 435 494 483 672 435 610 b 568 318 435 381 483 318 b 692 426 633 318 682 353 l 828 426 b 568 201 815 290 715 201 "},"®":{"ha":783,"x_min":0,"x_max":0,"o":"m 392 1011 b 746 667 592 1011 746 860 b 392 324 746 476 592 324 b 38 667 193 324 38 476 b 392 1011 38 860 193 1011 m 392 399 b 667 667 549 399 667 514 b 392 938 667 821 549 938 b 117 667 236 938 117 821 b 392 399 117 514 236 399 m 539 542 b 554 493 540 519 544 506 l 469 493 b 457 542 461 506 458 521 l 454 579 b 410 625 451 614 442 625 l 335 625 l 335 493 l 254 493 l 254 849 l 415 849 b 543 746 494 849 543 811 b 493 664 543 711 528 681 b 535 590 524 650 533 624 m 411 692 b 460 736 442 692 460 708 b 408 779 460 764 442 779 l 335 779 l 335 692 "},"℗":{"ha":1125,"x_min":0,"x_max":0,"o":"m 561 1013 b 1088 494 864 1013 1088 783 b 561 -22 1088 207 864 -22 b 38 494 260 -22 38 207 b 561 1013 38 783 260 1013 m 563 100 b 956 494 792 100 956 272 b 563 889 956 717 792 889 b 169 494 333 889 169 717 b 563 100 169 272 333 100 m 610 771 b 819 581 738 771 819 693 b 610 390 819 468 738 390 l 501 390 l 501 217 l 376 217 l 376 771 l 610 771 m 606 503 b 693 581 663 503 693 535 b 606 658 693 628 664 658 l 501 658 l 501 503 l 606 503 "},"™":{"ha":782,"x_min":0,"x_max":0,"o":"m 32 989 l 329 989 l 329 914 l 222 914 l 222 633 l 140 633 l 140 914 l 32 914 m 750 989 l 750 633 l 671 633 l 671 744 b 672 857 671 779 671 817 b 664 832 669 850 667 842 l 594 633 l 529 633 l 460 832 b 451 857 457 842 454 850 b 453 744 453 817 453 779 l 453 633 l 374 633 l 374 989 l 482 989 l 542 819 l 563 753 b 583 822 568 774 575 799 l 642 989 "},"℅":{"ha":1390,"x_min":0,"x_max":0,"o":"m 314 407 b 28 706 143 407 28 524 b 314 1006 28 889 136 1006 b 586 782 453 1006 564 926 l 450 782 b 314 890 435 851 383 890 b 168 706 219 890 168 819 b 314 522 168 592 219 522 b 453 636 382 522 438 564 l 586 636 b 314 407 567 489 456 407 m 890 989 l 1015 989 l 488 0 l 363 0 m 1068 -12 b 775 286 894 -12 775 106 b 1068 586 775 468 894 586 b 1363 286 1243 586 1363 468 b 1068 -12 1363 106 1243 -12 m 1068 104 b 1222 286 1161 104 1222 172 b 1068 469 1222 400 1163 469 b 915 286 975 469 915 400 b 1068 104 915 172 976 104 "},"°":{"ha":482,"x_min":0,"x_max":0,"o":"m 240 613 b 38 807 125 613 38 701 b 240 1001 38 915 125 1001 b 444 807 357 1001 444 915 b 240 613 444 701 357 613 m 240 719 b 328 807 290 719 328 757 b 240 893 328 857 290 893 b 153 807 192 893 153 857 b 240 719 153 757 192 719 "},"¦":{"ha":310,"x_min":0,"x_max":0,"o":"m 81 1107 l 229 1107 l 229 553 l 81 553 m 81 271 l 229 271 l 229 -283 l 81 -283 "},"ℓ":{"ha":649,"x_min":0,"x_max":0,"o":"m 390 122 b 514 165 435 122 483 142 l 563 64 b 351 -14 514 19 438 -14 b 140 207 217 -14 140 76 l 140 282 b 42 271 108 276 76 274 l 22 378 b 140 394 64 381 104 386 l 140 746 b 378 1011 140 911 219 1011 b 586 768 508 1011 586 936 b 314 335 586 574 493 418 l 314 218 b 390 122 314 153 347 122 m 314 469 b 457 763 407 536 457 636 b 390 872 457 840 433 872 b 314 747 336 872 314 826 "},"†":{"ha":824,"x_min":0,"x_max":0,"o":"m 801 556 l 507 556 l 507 -203 l 317 -203 l 317 556 l 22 556 l 22 717 l 317 717 l 317 989 l 507 989 l 507 717 l 801 717 "},"‡":{"ha":824,"x_min":0,"x_max":0,"o":"m 507 556 l 507 231 l 801 231 l 801 69 l 507 69 l 507 -203 l 317 -203 l 317 69 l 22 69 l 22 231 l 317 231 l 317 556 l 22 556 l 22 717 l 317 717 l 317 989 l 507 989 l 507 717 l 801 717 l 801 556 "},"№":{"ha":1578,"x_min":0,"x_max":0,"o":"m 1274 1003 b 1540 725 1431 1003 1540 893 b 1274 447 1540 558 1431 447 b 1004 725 1113 447 1004 558 b 1274 1003 1004 893 1113 1003 m 735 989 l 915 989 l 915 0 l 707 0 l 432 440 b 256 738 369 539 306 642 b 261 258 261 563 261 404 l 261 0 l 81 0 l 81 989 l 289 989 l 565 549 b 740 251 621 458 690 344 b 735 731 736 426 735 585 m 1274 585 b 1392 725 1346 585 1392 638 b 1274 868 1392 813 1346 868 b 1153 725 1200 868 1153 813 b 1274 585 1153 638 1200 585 "},"℮":{"ha":1265,"x_min":0,"x_max":0,"o":"m 633 1011 b 1194 481 989 1011 1194 765 l 297 481 b 278 463 286 481 278 472 l 278 218 b 300 153 278 188 282 169 b 633 19 385 69 496 19 b 983 179 776 19 907 86 l 1085 179 b 633 -18 1019 88 872 -18 b 69 494 292 -18 69 197 b 633 1011 69 785 282 1011 m 633 972 b 300 836 496 972 385 921 b 278 775 282 819 278 803 l 278 531 b 297 513 278 519 286 513 l 965 513 b 985 531 976 513 985 519 l 985 775 b 963 836 985 803 981 819 b 633 972 863 935 746 972 "},"ˉ":{"ha":556,"x_min":0,"x_max":0,"o":"m 57 932 l 499 932 l 499 810 l 57 810 "},"̈":{"ha":0,"x_min":0,"x_max":0,"o":"m -222 974 l -50 974 l -50 810 l -222 810 m 50 974 l 222 974 l 222 810 l 50 810 "},"̇":{"ha":0,"x_min":0,"x_max":0,"o":"m -86 974 l 86 974 l 86 810 l -86 810 "},"̀":{"ha":0,"x_min":0,"x_max":0,"o":"m -161 1010 l 40 1010 l 161 810 l 18 810 "},"́":{"ha":0,"x_min":0,"x_max":0,"o":"m -40 1010 l 161 1010 l -18 810 l -161 810 "},"̋":{"ha":0,"x_min":0,"x_max":0,"o":"m -178 1010 l 22 1010 l -162 810 l -300 810 m 100 1010 l 300 1010 l 115 810 l -22 810 "},"̂":{"ha":0,"x_min":0,"x_max":0,"o":"m 107 810 l 0 919 l -107 810 l -267 810 l -106 1010 l 104 1010 l 267 810 "},"̌":{"ha":0,"x_min":0,"x_max":0,"o":"m 267 1008 l 106 808 l -104 808 l -267 1008 l -107 1008 l 0 897 l 107 1008 "},"̆":{"ha":0,"x_min":0,"x_max":0,"o":"m 0 803 b -233 1010 -126 803 -218 881 l -101 1010 b 0 915 -94 947 -57 915 b 101 1010 56 915 94 947 l 233 1010 b 0 803 215 881 126 803 "},"̊":{"ha":0,"x_min":0,"x_max":0,"o":"m 0 803 b -199 993 -111 803 -199 882 b 0 1182 -199 1103 -111 1182 b 199 993 111 1182 199 1103 b 0 803 199 882 111 803 m 0 908 b 85 993 47 908 85 944 b 0 1076 85 1040 47 1076 b -85 993 -47 1076 -85 1040 b 0 908 -85 944 -47 908 "},"̃":{"ha":0,"x_min":0,"x_max":0,"o":"m -250 810 b -111 993 -250 938 -196 993 b 10 960 -65 993 -26 976 b 94 935 39 947 67 935 b 133 993 119 935 132 950 l 250 993 b 111 810 250 865 196 810 b -12 843 69 810 26 826 b -94 868 -42 856 -71 868 b -133 810 -119 868 -132 851 l -250 810 "},"̄":{"ha":0,"x_min":0,"x_max":0,"o":"m -221 932 l 221 932 l 221 810 l -221 810 "},"̒":{"ha":0,"x_min":0,"x_max":0,"o":"m 60 1018 b 7 967 25 1017 7 999 l 7 947 l 85 947 l 85 810 l -85 810 l -85 964 b 57 1086 -85 1046 -40 1083 l 85 1088 l 85 1018 l 60 1018 "},"̓":{"ha":0,"x_min":0,"x_max":0,"o":"m 85 1083 l 85 928 b -57 806 85 846 40 810 l -85 806 l -85 874 l -60 874 b -7 925 -25 876 -7 893 l -7 944 l -85 944 l -85 1083 "},"̣":{"ha":0,"x_min":0,"x_max":0,"o":"m -86 -93 l 86 -93 l 86 -257 l -86 -257 "},"̤":{"ha":0,"x_min":0,"x_max":0,"o":"m -222 -93 l -50 -93 l -50 -257 l -222 -257 m 50 -93 l 222 -93 l 222 -257 l 50 -257 "},"̥":{"ha":0,"x_min":0,"x_max":0,"o":"m 0 -464 b -196 -278 -111 -464 -196 -386 b 0 -93 -196 -169 -111 -93 b 196 -278 111 -93 196 -169 b 0 -464 196 -386 111 -464 m 0 -361 b 85 -278 47 -361 85 -326 b 0 -194 85 -231 47 -194 b -85 -278 -47 -194 -85 -231 b 0 -361 -85 -326 -47 -361 "},"̦":{"ha":0,"x_min":0,"x_max":0,"o":"m 85 -93 l 85 -247 b -57 -369 85 -329 40 -367 l -85 -371 l -85 -301 l -60 -301 b -7 -250 -25 -300 -7 -282 l -7 -231 l -85 -231 l -85 -93 "},"̧":{"ha":0,"x_min":0,"x_max":0,"o":"m 11 -60 b 149 -169 99 -60 149 -108 b -57 -303 149 -246 90 -303 b -149 -294 -83 -303 -122 -299 l -149 -221 b -69 -226 -119 -225 -100 -226 b 17 -168 -14 -226 17 -204 b -62 -115 17 -136 -7 -115 b -99 -117 -72 -115 -82 -115 l -99 -64 l -43 7 l 51 7 l -7 -60 l 11 -60 "},"̨":{"ha":0,"x_min":0,"x_max":0,"o":"m 40 -289 b -139 -156 -64 -289 -139 -240 b 4 0 -139 -100 -93 -35 l 139 0 b 0 -129 29 -51 0 -96 b 69 -182 0 -171 39 -182 b 139 -171 96 -182 118 -176 l 139 -275 b 40 -289 118 -282 81 -289 "},"̮":{"ha":0,"x_min":0,"x_max":0,"o":"m 0 -300 b -233 -93 -126 -300 -218 -221 l -101 -93 b 0 -186 -94 -154 -57 -186 b 101 -93 56 -186 94 -154 l 233 -93 b 0 -300 215 -221 126 -300 "},"̱":{"ha":0,"x_min":0,"x_max":0,"o":"m -221 -93 l 221 -93 l 221 -215 l -221 -215 "},"̵":{"ha":0,"x_min":0,"x_max":0,"o":"m -221 432 l 221 432 l 221 324 l -221 324 "},"̷":{"ha":0,"x_min":0,"x_max":0,"o":"m -374 7 l 299 772 l 374 706 l -299 -60 "},"̸":{"ha":0,"x_min":0,"x_max":0,"o":"m -507 1 l 421 1047 l 507 971 l -421 -75 "},"´":{"ha":556,"x_min":0,"x_max":0,"o":"m 240 1010 l 442 1010 l 263 810 l 119 810 "},"˘":{"ha":556,"x_min":0,"x_max":0,"o":"m 278 803 b 44 1010 151 803 60 881 l 176 1010 b 278 915 183 947 221 915 b 379 1010 333 915 372 947 l 511 1010 b 278 803 493 881 404 803 "},"ˇ":{"ha":556,"x_min":0,"x_max":0,"o":"m 546 1008 l 385 808 l 174 808 l 11 1008 l 171 1008 l 278 897 l 385 1008 "},"¸":{"ha":556,"x_min":0,"x_max":0,"o":"m 289 -60 b 426 -169 376 -60 426 -108 b 222 -303 426 -246 369 -303 b 131 -294 194 -303 157 -299 l 131 -221 b 210 -226 160 -225 178 -226 b 294 -168 265 -226 294 -204 b 215 -115 294 -136 271 -115 b 181 -117 206 -115 197 -115 l 181 -64 l 236 7 l 329 7 l 272 -60 l 289 -60 "},"ˆ":{"ha":556,"x_min":0,"x_max":0,"o":"m 385 810 l 278 919 l 171 810 l 11 810 l 172 1010 l 382 1010 l 544 810 "},"¨":{"ha":556,"x_min":0,"x_max":0,"o":"m 56 974 l 228 974 l 228 810 l 56 810 m 328 974 l 500 974 l 500 810 l 328 810 "},"˙":{"ha":556,"x_min":0,"x_max":0,"o":"m 192 974 l 365 974 l 365 810 l 192 810 "},"˝":{"ha":556,"x_min":0,"x_max":0,"o":"m 100 1010 l 301 1010 l 115 810 l -21 810 m 378 1010 l 578 1010 l 393 810 l 256 810 "},"¯":{"ha":556,"x_min":0,"x_max":0,"o":"m 57 932 l 499 932 l 499 810 l 57 810 "},"˛":{"ha":556,"x_min":0,"x_max":0,"o":"m 318 -289 b 139 -156 214 -289 139 -240 b 282 0 139 -100 185 -35 l 417 0 b 278 -129 307 -51 278 -96 b 347 -182 278 -171 317 -182 b 417 -171 374 -182 396 -176 l 417 -275 b 318 -289 396 -282 358 -289 "},"˚":{"ha":556,"x_min":0,"x_max":0,"o":"m 278 803 b 79 993 167 803 79 882 b 278 1182 79 1103 167 1182 b 476 993 389 1182 476 1103 b 278 803 476 882 389 803 m 278 908 b 363 993 325 908 363 944 b 278 1076 363 1040 325 1076 b 193 993 231 1076 193 1040 b 278 908 193 944 231 908 "},"˜":{"ha":556,"x_min":0,"x_max":0,"o":"m 28 810 b 167 993 28 938 82 993 b 288 960 213 993 251 976 b 372 935 317 947 344 935 b 411 993 397 935 410 950 l 528 993 b 389 810 528 865 474 810 b 265 843 347 810 304 826 b 183 868 236 856 207 868 b 144 810 158 868 146 851 l 28 810 "}}}
